<svg data-name="Calque 2" xmlns="http://www.w3.org/2000/svg" width="58.136" height="40.586"><path data-name="Tracé 344" d="M26.085 27.729c-.179 2.294-1 4.1-1.841 4.035l-7.866-.726a12.031 12.031 0 01-10.121-5.524H0v-1.422h10.791a8.593 8.593 0 005.319-1.537 4.393 4.393 0 001.781-3.483.254.254 0 00-.5-.065 5.207 5.207 0 01-.2.572 5.348 5.348 0 01-5.081 3.224H0v-.88h12.1a4.523 4.523 0 004.314-2.712 4.234 4.234 0 00.254-.886.104.104 0 00-.2-.055 4.975 4.975 0 01-4.368 2.925H0v-1.412h12.1a3.587 3.587 0 003.055-2.05 2.015 2.015 0 00.085-1.41.706.706 0 00-1.07-.363 3.657 3.657 0 00-1.23 1.371c-.642 1.184-1.746 1.184-3.95 1.184H.03v-1.413h.169V14.44l-.169.114v-1.721l.368-.249h5.8a12.065 12.065 0 0110.189-5.622l7.667-1.229c.333 0 .756 1.826.94 4.134s.07 4.2-.264 4.229l-6.776 1.254a5.7 5.7 0 01.03 7.353l6.916.751c.841.065 1.373 1.99 1.194 4.274zM4.74 15.932H1.005v.249h3.672c.02-.089.04-.169.063-.249zm-.249 1.169v-.09H1.01v.095h3.483zm.93-3.095H1.005v.5h4.2c.074-.166.143-.315.218-.499zm.557 2.866a.194.194 0 00.189.229c1.209-4.532 4.975-7.12 10.324-7.12l7.226-1.158a17.797 17.797 0 010-1.637c-1.9.244-7.329 1.194-7.329 1.194A10.612 10.612 0 005.98 16.873zm2.149-.1a7.015 7.015 0 013.98-4.015 11.05 11.05 0 014.259-.781l7.493-1.164c-.025-.184-.04-.373-.06-.567l-7.314 1.159a10.379 10.379 0 00-5.9 1.607 7.488 7.488 0 00-2.945 4.09.5.5 0 00.5-.328zm2.93 11.413a10.587 10.587 0 005.319 1.428l6.826.627a7.034 7.034 0 01-.114-.652l-6.965-.617a7.631 7.631 0 01-6.483-3.048 1 1 0 00-.8-.408.383.383 0 00-.284.647 10.622 10.622 0 002.513 2.025zm-.264-2.672a.2.2 0 00-.154.328 6.88 6.88 0 005.511 2.282l6.876.607v-.627l-7.224-.592a5.239 5.239 0 01-4.184-1.816.607.607 0 00-.453-.189h-.373zm5.4-11.587s6-.97 7.96-1.214c-.07-.318-.134-.677-.189-1.07l-7.587 1.174a10.234 10.234 0 00-4.125.8c-1 .537-1.771 1.582-1.443 1.831.582.443 2.3-1.184 4.707-1.493a5.094 5.094 0 01.677-.045zm-.97 10.771a.716.716 0 00.229 1.378h.348l7.34.619a8.652 8.652 0 01.5-1.935l-6.965-.647a1.269 1.269 0 00-.612.164 8.791 8.791 0 01-.841.413zm6.538 10.11c.109-.139.279-.08.234.075l-.716 2.433a.5.5 0 01-.5.358l-.4-.114c-.343-.095-.388-.562-.095-.93l1.493-1.821zm.6-31.066a.244.244 0 01-.06-.4l.259-.284a.5.5 0 01.771 0l.791 1.179c.06.09-.06.209-.164.164zm4.479 29.854c.219.035.109 1.627-.239 3.557s-.806 3.483-1.025 3.433l-1.065-.179c-.114 0-.184-.164-.164-.333.114-.836.378-2.488.557-3.254a12.96 12.96 0 011.189-3.164.244.244 0 01.239-.154h.139l.368.07zm-1.2 4.478c.025-.174.05-.348.08-.527l-.612-.09a2.557 2.557 0 01-.09.5l.622.1zm.3-1.716c.124-.627.259-1.189.388-1.642l-.383-.05a18.71 18.71 0 00-.547 1.622l.552.08zm.836-32.787a12.657 12.657 0 01-1.06-2.985V.5l.129-.1.448-.383c.194-.164.861.93 1.493 2.443s1 2.871.786 3.035l-.209.194a7.607 7.607 0 01-1.587-2.1zm-.333-2.4l-.244.2c.114.353.249.726.383 1.08l.219-.179a12.255 12.255 0 01-.361-1.105zm2.871 29.548a11.01 11.01 0 011.159 3.876 34.534 34.534 0 01.035 3.876.373.373 0 01-.363.363l-1.866.065c-.378 0-.726-1.851-.781-4.149s.209-4.174.587-4.184l.647-.03h.244a.4.4 0 01.363.209zm-.682 1.249a17.275 17.275 0 01.2 1.99h.96a16.458 16.458 0 00-.5-1.99h-.687zm1.308 3.976v-.612h-1.063v.627zm.03-26.971c-.5-.194-.632-2.179-.333-4.433S30.577.604 31.06.798l1.134.458.323.114c.035 0 .06.055.07.114a11.94 11.94 0 01-.239 4.418 7.6 7.6 0 01-1.836 3.279l-.542-.214zm27.97 5.473v2.667h.169v1.423h-8.953c-2.2 0-3.309 0-3.95-1.184a3.657 3.657 0 00-1.234-1.373.711.711 0 00-1.075.363 2.015 2.015 0 00.08 1.413 3.6 3.6 0 003.06 2.045H58.14v1.408H46.012a4.975 4.975 0 01-4.373-2.92.102.102 0 10-.194.06 3.671 3.671 0 00.254.881 4.518 4.518 0 004.314 2.712h12.1v.836h-12.1a5.343 5.343 0 01-5.085-3.224 4.87 4.87 0 01-.2-.572.254.254 0 00-.5.065 4.393 4.393 0 001.783 3.478 8.647 8.647 0 005.319 1.537h10.791v1.423h-6.264a12.015 12.015 0 01-10.125 5.552l-10.2 2.114c-.373.075-1.03-1.7-1.493-3.98s-.5-4.149-.119-4.224l10.2-2.244a5.7 5.7 0 01.05-7.348l-7.314-1.856c-.831-.194-1.09-2.179-.572-4.433s1.618-3.933 2.456-3.741l6.965 1.637a12.02 12.02 0 018.12 3.124 12.194 12.194 0 012.1 2.488h5.821l.368.249v1.716zM30.708 26.266a17.413 17.413 0 01.532 1.9l11.075-2.08h.343a.716.716 0 00.234-1.378 7.4 7.4 0 01-.846-.413 1.264 1.264 0 00-.612-.154zm.4-19.458c-.09.383-.189.726-.289 1.025l.174.065c.154-.3.313-.637.453-.965l-.338-.124zm.254-1.338c-.03.184-.06.368-.09.542l.448.169a2.408 2.408 0 00.07-.254 1.4 1.4 0 01.065-.269l-.5-.189zm.174-3.025a14.11 14.11 0 010 1.632l.542.209c.05-.527.085-1.08.09-1.6l-.607-.239zm14.958 23.249a5.2 5.2 0 01-4.179 1.816l-10.8 2.05c.035.214.07.418.095.617l10.357-2.054a6.906 6.906 0 005.508-2.289.2.2 0 00-.154-.333h-.373a.607.607 0 00-.453.189zm1.99.234a7.6 7.6 0 01-6.5 3.05l-10.276 2.035c0 .224.04.443.05.637l9.951-2.035a10.563 10.563 0 007.826-3.448.383.383 0 00-.285-.644 1 1 0 00-.8.408zm-13.5 11.378a.244.244 0 01.06.4l-.264.284a.5.5 0 01-.771 0l-.786-1.224c-.06-.09.06-.209.164-.164zm-.532-33.673a.169.169 0 01-.244-.219l1.254-2.413a.408.408 0 01.632-.119l.423.358a.706.706 0 01-.08 1.129L34.44 3.634zM47.3 15.445c.328-.249-.443-1.289-1.438-1.826a10.284 10.284 0 00-4.129-.8l-6.911-1.496a7.031 7.031 0 01-.5 1.025c2.488.5 7.6 1.572 7.6 1.572a5.1 5.1 0 01.677.045c2.408.294 4.125 1.915 4.707 1.493zm2.682 1.333a.5.5 0 00.5.328 7.518 7.518 0 00-2.945-4.095 10.364 10.364 0 00-5.9-1.6L35.27 9.992c-.05.184-.1.368-.154.547l6.637 1.443a11.05 11.05 0 014.259.781 7 7 0 013.98 4.015zm2.149.095a10.627 10.627 0 00-10.4-8.488l-6.184-1.418a7.961 7.961 0 01-.04 1.632l6.11 1.388c5.373 0 9.11 2.587 10.324 7.12a.194.194 0 00.189-.234zm4.975-2.866h-4.418c.075.164.144.333.214.5h4.2zm0 1.925H53.37c.025.08.045.159.065.244h3.672zm0 1.08h-3.482v.095h3.483z" fill="#303030"/></svg>