<svg id="Calque_2" data-name="Calque 2" xmlns="http://www.w3.org/2000/svg" width="45.648" height="49.105" viewBox="0 0 45.648 49.105">
  <path id="Tracé_345" data-name="Tracé 345" d="M28.838,45.592c.95-.309,2.028-.608,3.191-.864l.209.332c-1.2.261-2.3.565-3.286.883a35.861,35.861,0,0,0-7.3,3.267l-.233.147H21.34V49.3h0l9.5-7.46c.033.128.066.256.1.385l-6.757,5.114,7-4.364c.043.114.09.233.142.347l-5.931,3.7a37.587,37.587,0,0,1,3.514-1.334ZM66.96,66.537v.047h-.176a.128.128,0,0,1-.038-.033h0a.085.085,0,0,1-.028-.043h0c-4.245-9.578-9.768-16.1-16.459-19.469.095-.09.185-.185.275-.275,5.7,2.892,10.523,8.03,14.455,15.357L52.044,29.461l-.878.712v-.028a10.832,10.832,0,0,1,.7,2.465c.038.242.066.475.085.717a11.292,11.292,0,0,1-2.08,13.581,9.022,9.022,0,0,0-12.75,2.018,11.278,11.278,0,0,1-6.173-12.27c-.052-.233-.1-.475-.138-.708A10.651,10.651,0,0,1,47.8,25.8L61.594,17.48h.1v.033h0l-12.242,9.83h0a10.684,10.684,0,0,1,1.529,2.417v-.024l.992-.807a.166.166,0,0,1,.161-.033.185.185,0,0,1,.128.109L66.988,66.338h0v.19ZM51.437,32.732A10.257,10.257,0,0,0,47.7,26.317L37.39,32.538a.2.2,0,0,1-.095.028.185.185,0,0,1-.161-.09.19.19,0,0,1,.066-.256l10.186-6.145a10.281,10.281,0,1,0,4.051,6.648Zm1.558,20.134a8.68,8.68,0,1,1-9.929-7.218,8.828,8.828,0,0,1,1.382-.09,8.69,8.69,0,0,1,8.547,7.308ZM48.037,26.113A10.447,10.447,0,0,1,49.2,27.224h0l9.972-7.811Z" transform="translate(-21.34 -17.48)" fill="#303030"/>
</svg>
