<svg xmlns="http://www.w3.org/2000/svg" width="21.43" height="23.831" viewBox="0 0 21.43 23.831"><path d="M-273.039,5.978c-1.324-1.907-6.743.028-16.18,5.751a1.051,1.051,0,0,0-.352,1.408,1.051,1.051,0,0,0,1.408.352c5.98-3.6,11.976-6.378,13.315-6.366-.474.994-3.055,3.342-4.78,4.928-4.27,3.908-7.608,7-6.127,9.133,1.532,2.206,4.878.16,8.11-1.809a18.583,18.583,0,0,1,4-2.059c-.16.887-2.059,3.259-3.145,4.568-2.345,2.848-4.061,4.926-3.022,6.422,1.48,2.131,6.785-.445,11.031-2.951l.075-.052a1,1,0,0,0,.277-1.356,1.019,1.019,0,0,0-1.408-.352c-3.446,2.061-7.129,3.621-8.217,3.49a19.492,19.492,0,0,1,2.841-3.969c2.356-2.911,4.443-5.414,3.274-7.1-1.195-1.72-3.766-.156-6.737,1.631-1.36.834-4.956,3-5.372,2.4-.172-1.045,3.739-4.592,5.786-6.513C-274.414,9.982-271.87,7.66-273.039,5.978Z" transform="translate(289.707 -5.267)" fill="#303030"/></svg>