<svg xmlns="http://www.w3.org/2000/svg" width="165.399" height="163.277" viewBox="0 0 165.399 163.277">
  <path id="Tracé_307" data-name="Tracé 307" d="M729.969,845.728c0-50.891,20.78-75.7,67.855-75.7,35.412,0,56.4,13.146,56.4,36.473,0,30.111-37.32,35.836-66.8,47.074,2.332-.212,4.24-.424,6.149-.424,35.2,0,57.464,17.176,57.464,56.828V928h22.266v5.3h-165.4V928h22.055Zm27.142,21.2c3.816-7,12.935-11.663,26.93-17.387C811.395,838.518,848.5,833,848.5,806.5c0-22.266-22.052-30.747-50.254-30.747-33.718,0-41.138,17.387-41.138,69.976ZM823.9,928V906.8c0-38.806-6.573-48.348-33.928-48.348-22.9,0-32.867,8.906-32.867,36.685V928Z" transform="translate(-707.914 -770.026)"/>
</svg>
