<svg xmlns="http://www.w3.org/2000/svg" width="162.428" height="163.277" viewBox="0 0 162.428 163.277">
  <path id="Tracé_306" data-name="Tracé 306" d="M388.43,773.48h93.937c30.111,0,56.616,12.935,56.616,40.926,0,28.2-29.05,41.349-57.676,41.561,40.924,14.207,27.353,70.824,51.1,70.824,8.906,0,13.147-4.454,13.147-16.115v-22.69h5.3v22.69c0,17.811-9.966,26.081-27.778,26.081-58.1,0-20.569-80.79-65.736-80.79H437.625v71.248h35.836v5.3H388.43v-5.3h22.052V778.781H388.43Zm49.2,5.726v71.035h31.807c23.961,0,39.865-4.665,39.865-36.048,0-31.171-15.9-34.987-39.865-34.987Z" transform="translate(-388.43 -773.48)"/>
</svg>
