<svg id="Calque_1" data-name="Calque 1" xmlns="http://www.w3.org/2000/svg" viewBox="0 0 138.53 138.53"><defs><style>.cls-1{fill:#99ba22;}</style></defs><path class="cls-1" d="M123.8,30.4,123,40.34l-4.58,3.91.59-7.06L104.65,49.32,86.26,92.38a2.1,2.1,0,0,1-1.64,1.25,2.07,2.07,0,0,1-1.9-.76L68.21,74.76,51,69.05,36.71,89.88a2.26,2.26,0,0,1-.25.29L17.67,109,14.73,106,33.38,87.36l15-22a2.07,2.07,0,0,1,2.37-.8L70.11,71a2,2,0,0,1,1,.68L83.79,87.55,101,47.23a2,2,0,0,1,.57-.78l14.66-12.4-7-.58,4.58-3.91Z"/></svg>