<svg id="Calque_1" data-name="Calque 1" xmlns="http://www.w3.org/2000/svg" viewBox="0 0 138.53 138.53"><defs><style>.cls-1{fill:#d67083;}</style></defs><path class="cls-1" d="M38,29.3a6.24,6.24,0,0,0-.3,2.84c-.27,1.75-.44,1.13-.38,2.84a13,13,0,0,0-.63,2.79c-.29,2.57-.49,1.12-.55,2.9-.74,1.85-.06,1.35-.82,2.89-.21,1.91.17,1.36-.55,3,.13,1.74-.21.26-.6,3.08-.12,2-.65,1.26-.58,3.14-2.91,8.38-2.48,32.76-2.35,33.46-.66,6.48,1,7.78.65,12.19.26,3.83.6,2.7.55,4.44a2.1,2.1,0,0,1,.15,1.44,9.58,9.58,0,0,1,.38,2.78c.11,2.36.29.81.53,2.65.11.82.2.55-.37,1.19-.79.14-.52.22-1.2-.27-1.16-1.78-.35-.87-.79-2.71-.49-2,.43-.21-.45-3.1a3.43,3.43,0,0,1-.08-1.62c-.64-3.86,0-2.91-.71-4.64-.17-1.76.35-2.68-.3-4.41a2.44,2.44,0,0,0-.08-1.53c-.48-1.42,0,.19-.37-3.08.26-3.6,0-4.11.16-6.06-.48-1.61.11-1.14-.08-2.86s.11-.11-.07-2.85c-.21-3.09.3-2,.14-5.87.13-1.61,0,.14,0-2.94a4.4,4.4,0,0,0,.12-1.46,3,3,0,0,0,.18-1.46c.25-1.77,0,0,.29-2.92.72-6.29.87-4,.77-6A2.5,2.5,0,0,0,31,55.64a5.55,5.55,0,0,0,.19-1.54c.19-.85,2.28-9.79,2.32-11.36a3.28,3.28,0,0,0,.23-1.36c.38-.79.31-.49.29-1.33.76-1.5,0-1.06.82-2.61.1-1.87.16,0,.47-3A4.21,4.21,0,0,1,35.49,33a6,6,0,0,1,.16-1.49c.2-2.92,0-.44.49-3,.91-.22.58-.25,1.47.06ZM102.8,76.82c-.38-.88-.13-.69-1-.87-1.74.27-1.6.16-2.62.86-1.84.42-.18.31-2.69.78-2.31.45-1.1-.26-2.74.3-2.07,0-1.42.49-3,.19-1.85.36-.82.49-2.86.54-.94.47-.22.48-3-.14-1.84-.4-1-.73-2.83-1.34-2.56-2.38-6.19-3.82-6.94-8-.61-2,.5-2.51,1-4.06.94-1.24.53-1,1.07-2.72a12.6,12.6,0,0,0,.54-2.87c.64-3.59.09-6.76.25-8.66a2.54,2.54,0,0,0-.1-1.45A2,2,0,0,0,77.8,48a12.15,12.15,0,0,0,.09-2.89c-.41-.8-.17-.59-1-1-.94.28-.68,0-1,1A2.61,2.61,0,0,0,76,46.57c-.14,1.77.28,2.43,0,4.5,0,4.29.37,2.85.1,4.5A2.17,2.17,0,0,1,76,57.06a8.39,8.39,0,0,1-.27,2.9c-1,3.48.61-.21-1.87,5.31-.3.82-.11.6-.78,1-.44.68-.39.47-.26.94-.3.92-.09-.24-1.55,2.13a2.48,2.48,0,0,1-1.2.93c-2.23,1.8-2.24,1-3.72,2.29-1.5.72-2.61.68-4.08,1.69a2.75,2.75,0,0,0-1.46.28c-1.49.63.09,0-2.9.57-2.31,0-5.58.16-5.82.16-1.53.56-1.12,0-2.83.2a2.22,2.22,0,0,1-1.42-.09c-4.27.19-3.25-1.22-5.46-1.43-.82.56-.65.25-.72,1.24.4.6.27.78,2.42,1.51,2.76,1.23,6.12.73,8.93.59,1.92-.32,1.5.2,3-.24,1.2.31,3.44-.21,6-.73,5.81-2,3.92-1.77,5.72-2.32.3,2.55-.16,1.17.08,2.9a3.72,3.72,0,0,0,0,1.49,1.86,1.86,0,0,0,0,1.48c-.39,1.8.23,1.13-.19,3,.26,1.66-.08-.07.06,3a4.07,4.07,0,0,1,0,1.48,5.7,5.7,0,0,1,0,1.49c.12,3.3-.32,1.41.08,3.1-.3,1.76.24,3.34-.23,6.07a10.1,10.1,0,0,0-.34,2.93,25.33,25.33,0,0,0-.44,2.8,5.49,5.49,0,0,0-.39,1.46,3.57,3.57,0,0,0-.55,1.4,13.09,13.09,0,0,0-.78,2.91c-.34,1.71-.7,1.49-.17,2.85.83.31.52.28,1.35,0,.21-.85.13-.53.38-1.4a2.19,2.19,0,0,1,.39-1.38c.07-.91,0-.6.47-1.35.15-2.24-.44,2.06,1.53-5.63a3.23,3.23,0,0,0,.07-1.51c.54-2.56-.1-.2.52-4.43.28-2-.17-1.23.15-3a18.13,18.13,0,0,1-.12-3.1c.25-2-.38-.74.06-3.11-.26-1.58,0-1.13,0-3.1a35.4,35.4,0,0,1,.06-6,3.11,3.11,0,0,1-.13-1.49c-.2-1.83.25-1.23-.06-3,.15-.89.15-.69,0-1,.88-.37.59-.16,1.26-.89,4.06-2.64.5-3.68,4.71,2.43a3.6,3.6,0,0,1,1,1c.79.44.54.23,1,1a2.23,2.23,0,0,1,1.16.81c1.43,1,.79.93,2.36,1.59a5,5,0,0,0,2.55,1.31c1.66.65,3.31,1.18,5.39.21,1.76,0,2.77-.55,5.5-.55,1.58-.56.72.23,2.91-.31A4.29,4.29,0,0,1,99,79a3,3,0,0,1,1.38-.67c2.57-1.31,1.83-.23,2.46-1.51Zm5.38-34.75c-.29-1.88,0-1.47-.62-3a12.45,12.45,0,0,0-.57-3c-.78-2.48,0-1.34-.71-3-.07-2-.5-1.33-.43-3.07-.55-1.83-.73-1.41-.53-3.07A3.13,3.13,0,0,0,104.23,26c-.94.36-.7.09-1,1.06.51,1.73-.16,1.34.56,2.77C103.85,32,106,39.68,106,41c.83,1.57.27,1.09.74,2.84-.16,1.74.13,1.12.33,2.91.7,3.6.42,12.46.56,13.17a2,2,0,0,0,0,1.45,11.26,11.26,0,0,0-.16,2.9c.15,1.62-.31,2.82,0,4.35a5,5,0,0,0-.13,1.46c0,2.88-.64,3-.39,5.81a2.47,2.47,0,0,1-.1,1.44,2.22,2.22,0,0,1-.17,1.49,10.65,10.65,0,0,1-.38,3c-.6,2.85.16,1.32-.52,3-.38,1.77-.32,1.21-.63,2.93-.21,2.63-.37,1.11-.58,2.94s-.45.24-.66,2.93a3.27,3.27,0,0,1-.5,1.47c-.76,3.9-1,2.74-1.07,4.56-.54,1.44-1.35,2.08-1.66,3.83a2.59,2.59,0,0,0-.77,1.28,39.07,39.07,0,0,1-2.81,5.2c-.5.73-.39.41-.52,1.39.62.75.34.56,1.27.78.6-.7.38-.44,1-1.17a2.75,2.75,0,0,0,.82-1.22c.68-1.71.18,0,1.28-2.64,1.32-3.18,2.27-3,3.56-8.36,1-2.49,3.15-12.59,3.18-12.93,2.4-11.44,2.28-39.35.55-43.68Z"/></svg>