<svg id="Calque_1" data-name="Calque 1" xmlns="http://www.w3.org/2000/svg" viewBox="0 0 138.53 138.53"><defs><style>.cls-1{fill:#2caf38;}</style></defs><path class="cls-1" d="M111.22,32.91V110.1H32.9V109H31.79v-1.12H29.55v-1.11H28.43v-1.12H27.31V28.43h7.83v1.12h1.12v1.12h1.12v1.12H38.5V28.43h7.83v1.12h1.12v1.12h1.12v1.12h1.11V28.43h7.84v1.12h1.11v1.12h1.12v1.12H62V32.9h1.12v4.48H75.42v-9h7.83v1.12h1.12v1.12h1.11v1.11H86.6V28.43h7.83v1.12h1.12v1.11h1.12v1.12h1.12V28.43h7.83v1.11h1.12v1.12h1.12v1.12H109V32.9ZM36.27,31.79H34V30.67H31.8v1.12h1.11V32.9h3.36ZM109,35.14h-3.35V43H97.8V35.14H94.44V43H86.61V35.14H83.25V43H60.88V35.14H57.52V43H49.69V35.14H46.33V43H38.5V35.14H34v72.72H59.76V92.2h1.12V85.49H62V82.13h1.12V78.77h1.11V77.65h1.12V76.54h1.12V75.42h1.12V74.3h2.24V73.18H74.3V74.3h2.24v1.12h1.12v1.12h1.11v1.11h1.12v2.24H81v2.24h1.12v4.48h1.12v7.83h1.12v13.42H109ZM46.34,31.79V30.67H43v1.12H44.1V32.9h3.36V31.79ZM50.8,60.87h1.12v5.59H44.09V60.87H45.2V56.39h1.12V54.16h1.12V53h1.12v1.12h1.12v2.23H50.8Zm6.73-29.08V30.67H54.17v1.12h1.12V32.9h3.35V31.79Zm24.61,0V30.67H79.9v1.12H81V32.9h2.23V31.79Zm13.42,0H93.32V30.67H91.09v1.12H92.2V32.9h3.36ZM98.9,62H100v4.47H92.19V59.75h1.12V55.27h1.12V54.16h1.12V53h1.11v1.12h1.12v2.23H98.9Zm7.85-30.2h-2.24V30.67h-2.24v1.12h1.12V32.9h3.36Z"/></svg>