<svg id="Calque_1" data-name="Calque 1" xmlns="http://www.w3.org/2000/svg" viewBox="0 0 138.53 138.53"><defs><style>.cls-1{fill:#db5931;}</style></defs><path class="cls-1" d="M69.26,26.89a47,47,0,0,1,46.93,46.93,37.86,37.86,0,0,1-37.81,37.82A13.52,13.52,0,0,1,64.87,98.13V87.33H54.07A13.52,13.52,0,0,1,40.56,73.82a28.7,28.7,0,1,1,57.4,0A19.61,19.61,0,0,1,78.38,93.41H73.65v4.72a4.73,4.73,0,0,0,4.73,4.73,29.08,29.08,0,0,0,29-29,38.16,38.16,0,0,0-76.31,0,23,23,0,0,0,23,23,1.35,1.35,0,1,1,0,2.7A25.69,25.69,0,0,1,28.41,73.82a40.86,40.86,0,0,1,81.71,0,31.78,31.78,0,0,1-31.74,31.74A7.43,7.43,0,0,1,71,98.13V90.7h7.43A16.9,16.9,0,0,0,95.26,73.82a26,26,0,1,0-52,0,10.81,10.81,0,0,0,10.8,10.81H64.88V73.82a4.39,4.39,0,0,1,8.78,0v4.73h4.72a4.73,4.73,0,0,0,4.73-4.73,13.85,13.85,0,0,0-27.69,0,1.35,1.35,0,0,1-2.7,0,16.55,16.55,0,0,1,33.09,0,7.43,7.43,0,0,1-7.43,7.43H71V73.82a1.69,1.69,0,0,0-3.37,0V84.63h10.8A10.82,10.82,0,0,0,89.19,73.82a19.93,19.93,0,0,0-39.85,0,4.74,4.74,0,0,0,4.73,4.73H58.8V73.82a10.47,10.47,0,0,1,20.93,0,1.35,1.35,0,0,1-2.7,0,7.77,7.77,0,0,0-15.53,0v7.43H54.07a7.43,7.43,0,0,1-7.43-7.43,22.62,22.62,0,0,1,45.24,0,13.52,13.52,0,0,1-13.5,13.51H67.57v10.8a10.82,10.82,0,0,0,10.81,10.81,35.16,35.16,0,0,0,35.11-35.12,44.23,44.23,0,0,0-88.46,0,29.08,29.08,0,0,0,29,29,4.73,4.73,0,0,0,4.73-4.73V93.4H54.07A19.6,19.6,0,0,1,34.49,73.82a34.78,34.78,0,1,1,69.55,0A25.69,25.69,0,0,1,78.38,99.48a1.35,1.35,0,1,1,0-2.7,23,23,0,0,0,23-23,32.08,32.08,0,1,0-64.15,0A16.9,16.9,0,0,0,54.07,90.7H61.5v7.43a7.43,7.43,0,0,1-7.43,7.43A31.78,31.78,0,0,1,22.33,73.82,47,47,0,0,1,69.27,26.89Z"/></svg>