<svg id="Calque_1" data-name="Calque 1" xmlns="http://www.w3.org/2000/svg" viewBox="0 0 138.53 138.53"><defs><style>.cls-1{fill:#c12b2b;}</style></defs><path class="cls-1" d="M21.87,57.25a7.28,7.28,0,0,1-3.72-3.56c-.26-.84.88-.53,1.18-.25C21.89,55.76,20.4,55,23.15,56a1.11,1.11,0,0,0,1,0c.51-.29.2.38,2.12,0a2.07,2.07,0,0,1,1.13,0c.4.14,2.1-.26,2.95-.08s1.48,0,2.2.12A18.35,18.35,0,0,1,36,57.12c.5.71,1,.67,3.44,1.43.74.23.9-.27,1.16-1.14S41,56.12,40.45,56c-1.7-.51-3.23-2.88-4.16-3-.49-.07,0-.49-1.39-.89-.9-.26-.75-.58-1-.67a5.26,5.26,0,0,0-2.6-.68,2.32,2.32,0,0,1-1.7-.52,11.35,11.35,0,0,1-4.88-5c-.21-.4,1-1,1.41-.12.29.53.32,1.16,1,1.45s-.08.45,1.48.95c3,1,3,1,3.19.94.67-.22.77-.2,5.65,1.56.9.32.22.58,1.32.91.43.13.89.18,1.13.67,0,.12.27.15.4.23.7.43.59.65,1.27.85a1.31,1.31,0,0,1,.58.44c.44.56,1.11.56,1.71.7.35.09.86-1.29.46-2.09-.22-.45.34-.76-.29-1.28a23.16,23.16,0,0,1-1.69-1.83c-.46-.54.39-.19-2-1.91-.11-.08-.29-.12-.34-.22-.28-.6-.63-.54-2.59-1.19-1.09-.36-.72-.65-1.21-.81-.72-.24-.42-.43-.93-.74-2.08-1.28-2.37-2.49-2.93-4.8-.11-.43.4-1,.83-1a.55.55,0,0,1,.58.55c-.1.78.39,1.33.66,2,.38.9,1.57,1.41,1.61,1.49.5,1.07,6.13,1.88,7.2,3,.67.67.34-.51,5.54,4.46.57.53,1.78.74,2,.51,1-1,1.3-2,.35-3-.75-.8-.48-.7-1-1.58-1.17-2-.39-2.19-1.79-3.42-4.78-4.17-4.37-3.48-5.54-6.37a3.35,3.35,0,0,1,.27-2.87c.14-.26.45-.43.72-.68.26.41.48.77.28,1.18-.51,1,.36,2,.72,2.92.43,1.19,1.12.63,1.75,1.47.32.42,1.31.32,1.77,1,0,0,.06.09.09.09.88.16,1.37,1,2.26,1.19.71.13.41.48,1,.81,1.71.9,4.19,6.11,5.19,5.66,1.75-.79.71-1.39,1.57-2.18.68-.63-.27-2.74-.15-3.07a11.57,11.57,0,0,0,.22-2c.14-.82,0-.78-1.59-2.75s-1.73-1.92-2.44-3.85c-.22-.61,1.35-4.46,2.26-3.7a.41.41,0,0,1,0,.4,6.55,6.55,0,0,0-1,2.23,1.1,1.1,0,0,0,.28,1.25c.08.09,1.84,2,1.95,2a7.88,7.88,0,0,1,1.48.94c3.13,2,2.4,4.87,4.17,8.21.62,1.17,2,.09,2.43-.94.3-.73.35,0,1-1.82.31-.85-.13-1,.15-2.2.36-1.49,1-2.19.18-2.92a3,3,0,0,1-.85-1.36c-.62-.44-.57-1.19-.83-1.8,0,0-.05-.09,0-.13.08-.8-.23-1.65.17-2.39,1.29-2.39,1.37-2.11,2.32-2.66a.49.49,0,0,1,.47.09c.26.35-.16.73-.9,1.73a4.65,4.65,0,0,0-.21,2c.17.93.78,1.22,1.68,2.33,2.63,3.23,2.08,1.24,2.54,5.66.05.44-.35,0,0,2.67,0,.37-.09.74.25,1.07s.42.37.88.23c1.53-.47,1.28-1.37,2-1.3.52,0,.64-.44.8-1,.53-1.74,1.41-2,1.67-2.81.94-2.84.9-2.64.5-4.14a4.66,4.66,0,0,1-.24-2.19c0-.07-.09-1.2.19-1.58a10.09,10.09,0,0,1,1.6-2.09c.77-.65,2.08-.17,1.45.42-1.24,1.14-.93,1.41-1.18,1.56-1.45.86.16,3.36,1.42,6.13.45,1,0,1,.07,1.38a6.94,6.94,0,0,1-.62,2.9c-.16.64-1.28.81-.81,3.21.07.36,1.08.36,2.08.33,2.42-.09,1.73-1.77,3.43-3,1.47-1.06,1-1.8,1.42-2.09.88-.61.81-1.53.87-2.3,1.38-2.66.71-3.15,3.08-4.88.39-.29,1.94-1,2.07-.58.08.31-.81.82-1.2,1.16-.69.6-.75,1.18-1.19,2.55-.52,1.62.57,2.37.23,3.29-.58,1.56,0,2.3-.84,2.83-.22.13-.32.7-.41.76a4.07,4.07,0,0,0-1,1.2,3.83,3.83,0,0,0-.59.89c-.06.14-.6.58-.74.85-.59,1.16.78.82,1,.91.62.34,1.25.08,1.88.09a.65.65,0,0,0,.37-.14c2.25-2,4.21-2.15,4.51-3.44.23-1,.49-.15,1-1.58.59-1.83.41-1.71,1.51-2.92a11,11,0,0,1,3.31-2.1,2.5,2.5,0,0,1,1.85-.21c.73.21.29.65-.07.68a4.93,4.93,0,0,0-3.7,2.75c-.49.9.11,1.26-.13,1.92-1.07,2.92-1,2.3-1.22,2.61-.58.72-.43,1.18-1.23,1.45a.32.32,0,0,0-.18.1c-.56,1-.9.31-2.79,2.53a1.92,1.92,0,0,0-.32.43.44.44,0,0,0,.29.65c2.56.56,2.34.52,3.72-.13a21.61,21.61,0,0,1,2.58-1.2,3.45,3.45,0,0,0,1.28-.86c.81-.78,1.37-.78,1.53-1.19a4.32,4.32,0,0,1,.91-1.25c.43-.51.82-1.06,1.23-1.59a7.68,7.68,0,0,1,3.11-1.73c2.81-.55,3-.68,3.35.38-1.7.63-1.69-.41-3.8.84-.45.27-.26,1.06-.85,1.48-.09.07-.21.16-.22.26-.15,1-1.19,1.49-1.21,2.51a16.69,16.69,0,0,1-6.31,5.11c-.75.31-1.18,1.62-.37,1.56,1.38-.11,2.3.62,2.81.4A36.61,36.61,0,0,1,104.46,52c.88-.61,1.26-.23,1.48-.3,3-1,2.53-.65,5.08-2.87.1-.08.16-.22.27-.29a7.44,7.44,0,0,1,3.38-1.48,4.19,4.19,0,0,1,2.27.19c.22.11.5.22.39.54-.21.64-1.33-.35-3.65.89a6,6,0,0,0-.9.71c-2.42,2-1.52,2.72-4.13,4.12a9.07,9.07,0,0,0-2.09,1.1.2.2,0,0,1-.12.06,9.6,9.6,0,0,0-2.1.7,4.92,4.92,0,0,0-1.43.57c-.35.25-.78.38-1.14.62a.59.59,0,0,0,0,1.1c3.19,1.74,1.39,1,6.06.59a6.08,6.08,0,0,0,1.25.09c.14,0,.29-.09.39,0,.5.23.86,0,1.27-.24s2-.47,3-1.5c.48-.51.49-.36,2.12-1a7.57,7.57,0,0,1,2.28-.61s.09,0,.13,0c1.2.18,2.45,0,3.58.62.77.4-.21,1.25-.82.94-.9-.47-1.87-.42-4.37.18-1.66.4-2.58,3.17-5.65,3.72-.3.06-.58.26-.88.33a2.18,2.18,0,0,0-1.18.47.66.66,0,0,1-.57,0c-1-.4-.59.47-1.94.34-1.2-.12-2.79.53-2.33,1.21s.86-.53,1.41.6c.14.28.31.54.45.82a.93.93,0,0,0,1.06.37c.77-.41,1.51.62,2.34.13.25-.15,1.79.8,4.19.45.44-.07.85-.31,1.29-.37,1-.16,1.88-.88,2.93-1a3.33,3.33,0,0,0,1.78-.28.56.56,0,0,1,.32-.09c.7.13,4.29.18,4.09,1.2-.13.67-1-.15-2.44-.14-.07,0-.14.07-.2.06a3.38,3.38,0,0,0-1.63.26c-1.6.39-2.12,1.13-2.51,1.13-.89,0-1.18.54-1.89.71-4.46,1.06-3.93.92-4.38.91-3.45-.06-3,.14-3.7,0-.83-.17-1.43.26-2.22.51.12.32.16.67.35.83.9.72.53,1.71,1.63,2,2.33.72,2.69,1,3,.86,1.3-.35,2.13.84,3.37.31.16-.07.07,0,1.13,0,0,0,.1-.05.13,0,.7.21,1.32-.19,2-.24s1,.28,1.6.06c.9-.33,1,1,.2,1.17-2.94.48-3,.44-3.06.54-.43.41-.63.29-2.67.73a3.32,3.32,0,0,1-1.47,0,10.29,10.29,0,0,0-1.76,0c-1.5,0-1.88-.51-3.2-.44a2.84,2.84,0,0,1-.91-.26c-.62-.2-1.14.2-1,.83.31,1.39-.67,2,.39,2.1,1.25.17.81.63,2,1.06a6.85,6.85,0,0,1,2.06.89c.15.12,4.12,1.37,4.14,1.37.89,0,1.76.19,2.66.17a5,5,0,0,1,2.59.2c.68.37,1,0,2,1.31-.42.61-1.61.14-2-.3-.64-.63-.8.13-1.45.14a16.65,16.65,0,0,0-2.1,0c-1.17.39-2.38.1-3.57.22-.65.07-8-2.81-8.45-2.39s-.11.65,0,1a2.88,2.88,0,0,1,.11,1.54c-.08,1.41.4.21,2.25,2.17a3.19,3.19,0,0,0,.82.58c.73.87,1.72.57,2.85,1.48.67.54.56,0,1.45.31a8.16,8.16,0,0,1,2.7,1.08c.63.51,1.6.26,2.35,1.28.54.76.5-.13,1,1.94,0,0,.06.67-.29.66a.52.52,0,0,1-.35-.33c-.26-.86-1.55-1.39-1.59-1.48-.32-.57-.9-.64-1.43-.82-2.18-.72-2.42-.83-3-.68s-1.34-.48-2.3-.35-2.28-.87-2.94-.52a.83.83,0,0,1-1-.33c-.46-.82-1.17-.37-1.53-1-.06-.09-.14-.23-.23-.24-.74-.09-1.16-.74-1.78-1-.44-.2-.87.61-2.18,1.5a.42.42,0,0,0,0,.73,9,9,0,0,1,2,2.23,4.72,4.72,0,0,0,1.77,1.54c1.12,1.18,3.51,1.18,4.5,2.23s1.58.49,2.7,2.35c.2.35.34.74.52,1.11.56,1.13-.62,2.22-1,1.24-.17-.48-.27-1.25-.36-1.3-.57-.32-.88-1-1.59-1.12a1.75,1.75,0,0,1-1-.59c-.81-.91-1.41-.16-2.56-.56-4-1.38-3.9-1.29-3.92-1.35-.14-.69-1-.6-1.23-1.24a.29.29,0,0,0-.16-.12c-1.14-.35-2.46-3.3-3.46-1.91-.45.61-2.14,1.68-.67,2.79,1.18.88.08,1.92.68,2.52.25.25-.27,0,.93,1.78,1.59,2.43,3.82,2.06,5.07,4.84a7.62,7.62,0,0,1,.36,2c.1.66-1,1.06-1,.36a4.87,4.87,0,0,0-.44-1.64c-.46-1.17-1-1-1.06-1.17-.7-1.13-2.6-.81-3.21-1.74-.2-.32-1.14-.23-1.45-1a3.91,3.91,0,0,1-1.55-1.36,19.67,19.67,0,0,0-2-3.24c-.44-.7-2-1.55-2.47-.88a9.18,9.18,0,0,1-1.25,1.67c-1,.84.19,1.56-.24,3.14-.24.87.41,2.07,1,3.4.18.4,1.88.91,2.69,3.13a2.6,2.6,0,0,1,.46,1.1,1.05,1.05,0,0,0,.09.72c.18.26-.37.73,0,1.36.06.08-.06.39-.18.45-.66.33-.51,1.07-1.34.84.43-1.45.6-1.65.32-2a.19.19,0,0,1,0-.07c.21-1.11-.63-1.68-1.23-2.36-1.17-1.33-1.11-.53-1.79-1.26-2.37-2.57-2.38-2.36-3.3-4.56-.21-.49-.19-1.38-.35-1.58-.52-.63,0-.87-.41-1.52-.74-1.23-1.19.11-1.88.85-.54.57-.94.15-1.2,1-.48,1.53-.06,2.73-.8,4.3-.36.76-.07,1.16.6,2.53.58,1.18.79,0,1.62,3.44,0,.12.06.07-.76,2.68a1.12,1.12,0,0,1-1.1.84c-.29-.52-.3-.7.08-1,1.35-1.07.1-1.81,0-2.84-.06-.59-.53-.93-1.21-1.64,0,0-.08-.13-.13-.15-.74-.26-1-1-1.49-1.48-.18-.21-.35-1.11-.56-1.55C73.24,99,74.94,99,74.11,96c-.11-.4-.35-.5-.73-.31-.72.35-2.53-.55-2.85.63a14,14,0,0,1-.83,2.49c-.44.13-.43.53-.58.85a8.31,8.31,0,0,0-1.26,2.73,20.25,20.25,0,0,1-.26,2.33.24.24,0,0,0,0,.14,4.44,4.44,0,0,1-1.05,4.2c-.47.45-.87,1-1.31,1.45s-1,.39-1.44.52c-.06,0-.19-.1-.24-.18s.08-.31.18-.33c.69-.11.93-.76,1.38-1.16a7.77,7.77,0,0,0,.8-1.94c.36-1.48-.45-2.51-1.11-3.94-.4-.86.26-2.59.07-4a26.05,26.05,0,0,1,1-3.15c.42-1.44-1.07-1.15-3.2-1.57-.35-.07-.69-.07-.81.27-.34.93-2.44,2.64-2.7,3.47-.47,1.49-.87.42-1.19,2.6-.52,3.48-.37,1.91-.54,2.78a5.93,5.93,0,0,1-3,3.45.39.39,0,0,0-.19.19c-.48.88-1.39.93-2.21,1.15A.36.36,0,1,1,52,108c1.09,0,1.52-.88,2.19-1.44.1-.07.12-.24.16-.37a9.17,9.17,0,0,0,.64-5.48c-.21-1.67,0-1.34.38-2.78.26-1.07.78-.43,1-1.49.09-.52.24-.17,1.51-2.3.33-.56,0-1-.7-1a.9.9,0,0,1-.47,0,3.66,3.66,0,0,0-1.72-.34,1.62,1.62,0,0,0-1.27.51c-1.54,1.29-2.91,1.79-3.35,3.14-.25.79-.78.39-1.14,2-.21.91-.28.35-1,1.71-.07.14-.06.35-.17.44-.6.54-.85,1.33-1.39,1.9A15,15,0,0,1,44,103.9c-.56.32.1.46-2.36,1.1a2.48,2.48,0,0,0-.47.22c-.18-.52,0-1,.34-1a5.77,5.77,0,0,0,3.19-2c.24-.3.5-1.46,2-5.66a5.3,5.3,0,0,1,.79-1.16c1.18-2,2.82-2,2.59-3.34s-2.16-1.47-2.76-1a7.55,7.55,0,0,1-1.77.84,2.05,2.05,0,0,1-.62.26,6.13,6.13,0,0,0-2.62,1.22c-.34.2-1.06,1.33-1.66,1.78-.92.69-.35,1.47-1.43,1.89a11.18,11.18,0,0,1-4.75,2.61c-1.83.55-2,.28-2.85-.28a.44.44,0,0,1,.57-.37,2.44,2.44,0,0,0,1.14-.08c.87-.15,1.27.07,2.23-1,1.55-1.77,1.53-1.46,1.76-2.12.56-1.65.6-2.3,1.29-2.87s.28-.75,1.66-1.83c.12-.1.33-.14.38-.26a11.44,11.44,0,0,1,2-2.61c.69-.88.82-2.46-.23-2a6,6,0,0,1-1.21.61c-1.56.41-3.75.72-5.47,1.9-.78.53-1.71,2.08-4.14,3.34-1.89,1-2.3,1.3-2.73,1.34a10.19,10.19,0,0,1-2.35.25c-.79-.11-1.27.55-1.59-.15-.5-1.07,2-.73,2.77-1.16,1.83-1,2.2-1.11,2.74-2A11,11,0,0,1,32,88.65c.35-.4.67-.84,1-1.23.76-.82.6-.41,1.88-1.51a4.93,4.93,0,0,1,2.69-1.38c1.07-.7,3.56-1,3.19-1.91-.28-.69-3.53-.17-4-.6a.91.91,0,0,0-.93-.2c-1.43.27-2.87.46-4.29.75a14.63,14.63,0,0,0-5.11,2.36c-1.12.61-2.72.32-3.33.89s-.82-.25-2,0c-.35.08-1.29-.32-1.71-.2-.93.26-1.21-.3-1.67-.88.7-.94,1.52.3,2.61-.16a3.41,3.41,0,0,0,2.36,0c.16-.06,1.1.06,1.38-.66,0,0,2.22-1.7,2.23-1.7s.23-.08.29-.16c.59-.81.9-.69,4.28-2.63,0,0,0,0,.06,0,1-.14,1.9-.83,3-.74a1.78,1.78,0,0,0,1-.19c1.18-.66,3-.44,3.08-1s-.62-.46-.75-.69c-.52-.92-1.6-1-2.35-1.55-.47-.37-3.23,0-3.93-.23a1,1,0,0,0-.86,0,.34.34,0,0,1-.26,0c-.79-.29-1.76.25-2.19.2a6.63,6.63,0,0,0-3.6.76,6.83,6.83,0,0,1-1.52.31c-.84.18-1.15.29-1.19.29-.71-.17-1.43.15-2.14-.1a1,1,0,0,0-.6,0c-.46.17-.69.14-3.66-.89-1.09-.37-.06-2,1.15-.62.6.69,1.08,0,1.57.23.89.47,2.9,0,3.66-.46a14.18,14.18,0,0,1,1.34-.49c.75-.35,1.49-.76,2.23-1.14s1.14-.14,1.82-.68c.19-.16.56-.09.85-.14s2.35-.64,2.9-.37a.36.36,0,0,0,.32,0c.43-.47.92,0,1,0,.5-.24,1,0,1.5-.05.67,0,1.33-.15,2-.22,1-.11,1.3-.24.75-1.06-.67-1-.2-1.88-1.31-2-.34,0-2.3-.83-3.52-1-5.25-.88-7,.51-8.47-.1-.75-.31-.91.2-1.84-.11-1.22-.42-2.49-.79-2.53-.83-.75-.78-4.32-2.29-3.33-3.36.69-.75,1.39,1.21,3.67,1.81.9.24.66-.39,2,.16a3.21,3.21,0,0,0,2.86-.18,6.27,6.27,0,0,1,1.33-.26c.47-.11,1.13-.43,1.26-.45,1.46-.23,4.08-.75,5.66-.33,1.14.31.49-.17,1.71.17a2.33,2.33,0,0,0,1.78.16c.11-.06,2.76,1,2.46-1.11-.2-1.41-.25-1.64-.77-1.83-5-1.76-.9-.86-5.8-2.27-.18,0-1.45,0-1.93-.14a4.23,4.23,0,0,0-2.06-.29c-1.7.36-2.65-.5-5.37-1.17Zm97.86,15.11c.74-.49.87-.46,1.48.18.36.39,1.21.32,1.78,1a2.92,2.92,0,0,0,.84.52,3.06,3.06,0,0,1-2.07-.62c-.32-.26-.23-.18-1.94-.15,0-.32-.06-.64-.08-1Zm.91,9.85c.07,0,.23-.14.37-.11a.81.81,0,0,1,.38.91c-.23.54-1-.11-.75-.8Z"/></svg>