<svg id="Calque_1" data-name="Calque 1" xmlns="http://www.w3.org/2000/svg" viewBox="0 0 138.53 138.53"><defs><style>.cls-1{fill:#4ca58e;}</style></defs><path class="cls-1" d="M120.53,90.17a9.23,9.23,0,0,1-.27,1.79c0,.12-.18.26-.15.33.29.57-.07,1.11-.15,1.62a13.56,13.56,0,0,1-.81,2.26c-.11.32-.18.65-.3,1a4.73,4.73,0,0,1-.58,1.17,27.16,27.16,0,0,1-2.77,3.2c-.9.79-1.73,1.65-2.65,2.41-.65.54-1.42.93-2.1,1.43a17.43,17.43,0,0,1-3.68,2,5.07,5.07,0,0,0-1.19.64,3.17,3.17,0,0,1-1.19.45,1,1,0,0,0-.81.86,2.41,2.41,0,0,1-.38,0,3.51,3.51,0,0,0-2.35.6,1.42,1.42,0,0,1-1.13.29,3.41,3.41,0,0,0-1.86.37,5.29,5.29,0,0,1-1.57.32c-.67,0-1.33.14-2,.21s-1,.07-1.55.14c-.24,0-.5.21-.69.15a4.15,4.15,0,0,0-2.13.14.87.87,0,0,1-.35-.07c-.1,0-.21-.11-.28-.09-.61.21-1.29,0-1.89.28a.82.82,0,0,1-.28.06c-1.1,0-2.21.15-3.31.09s-2.25,0-3.37-.1c-.14,0-.35,0-.4-.11-.18-.3-.44-.25-.71-.26-.52,0-1.06.17-1.57-.18-.11-.09-.37,0-.59,0l-.19-.49c-.71-.09-1.55.27-2.09-.56l-.48.3a1.72,1.72,0,0,0-1.7-.52l-.22-.56a2.35,2.35,0,0,0-.38,0,1.08,1.08,0,0,1-1.12-.54,1.26,1.26,0,0,0-1.1-.73c-.17,0-.35-.17-.49-.3a1.06,1.06,0,0,0-.85-.36c-.13,0-.28-.13-.42-.22a5.55,5.55,0,0,1-1-.84c-.18,0-.42.36-.83,0a1.67,1.67,0,0,0,0-.39c0-.16,0-.41-.15-.46-.61-.31-.84-1-1.37-1.39a.91.91,0,0,1-.23-.28,5.92,5.92,0,0,0-1.09-1.71,1.07,1.07,0,0,1-.15-.37c-.25-.2-.71.09-.77-.39a.79.79,0,0,0-.32.08c-.48.32-.72.27-1-.22A.52.52,0,0,0,61,101c0,.17.09.33.14.53H58.88l-.43-.48c-.28.63-.83.41-1.27.51a.9.9,0,0,1-1.15-.48c-.68.43-.81.43-1.35.07-.27.27-.48.47-.8-.05-.2-.32-.74-.42-1.1-.65s-.45-.37-.76-.62a3.13,3.13,0,0,1-.3.28,4.1,4.1,0,0,1-.52.26c.08-.27.13-.4.17-.52a.5.5,0,0,0-.11-.1l-.66-.24c-.13,0-.28-.13-.4-.1a.52.52,0,0,1-.63-.22c-.06-.1-.29-.14-.44-.12-.64.07-.64.08-.87-.59l-.29.23-1-.2a2.55,2.55,0,0,1-.56-.14,1.52,1.52,0,0,0-1.12-.17c-.11,0-.32,0-.35,0-.18-.39-.55-.21-.82-.3a12,12,0,0,0-2.85-.35.67.67,0,0,1-.29,0,2.45,2.45,0,0,0-1.7-.22,2,2,0,0,1-1.28-.2c-.08,0-.21-.11-.28-.08-1.07.4-2.13-.22-3.21,0a1.26,1.26,0,0,1-1-.25c-.32-.23-.88-.14-1.34-.19l-.69-.11a3.9,3.9,0,0,0-.57-.13c-.32,0-.69.16-.87-.29-.65.2-1.06-.71-1.76-.36-.09,0-.31-.16-.48-.26s-.64,0-.86-.31a7.37,7.37,0,0,0-.61-.69l-.54.24-2-1.28-.3.08a.46.46,0,0,1-.68-.34,1.25,1.25,0,0,0-.62-.76c-.06-.07-.13-.19-.19-.19-.81,0-1.14-.62-1.54-1.17a5.8,5.8,0,0,0-.59-.63,2.62,2.62,0,0,1-.78-1.14c-.06-.27-.41-.47-.53-.75a2.25,2.25,0,0,1-.28-1.25c.16-.66-.24-1.16-.25-1.74,0-.15-.07-.3,0-.43.24-.81.48-1.63.76-2.43a8.27,8.27,0,0,1,1.51-2.78,7.52,7.52,0,0,1,2.11-1.9c.68-.38,1.3-.88,2-1.23a6.14,6.14,0,0,1,2.27-.9,8.69,8.69,0,0,0,1.27-.37c.85-.21,1.7-.42,2.56-.56a11.6,11.6,0,0,1,1.45,0c.63,0,1.27,0,1.9-.08a7.22,7.22,0,0,0,1.73-.14,1.93,1.93,0,0,1,1.21.13,2.6,2.6,0,0,0,1.3,0,3.23,3.23,0,0,1,1.16,0,3.1,3.1,0,0,0,1.21-.07,1.52,1.52,0,0,1,1.07,0,1.08,1.08,0,0,0,1.06,0,.87.87,0,0,1,.43-.07c.76,0,1.51,0,2.27,0,.19,0,.38-.06.58-.08L47,74.46l.58-.08c.51-.06,1-.11,1.53-.19s1.05-.2,1.58-.28a7,7,0,0,1,.79,0,2,2,0,0,0,1.14-.2,1.65,1.65,0,0,1,.7-.18c.65-.07,1.31-.07,2-.16.45-.07.89-.24,1.34-.35a3.56,3.56,0,0,1,.57,0,5.74,5.74,0,0,0,.93,0c.4-.09.72-.37,1.22-.19.32.12.78-.14,1.21-.24a1.53,1.53,0,0,0-.37-1,8.54,8.54,0,0,1-1.25-2.3c-.39-.81-.28-1.77-.83-2.51.11-.77-.13-1.53-.09-2.31,0-.56,0-1.13,0-1.69a2.49,2.49,0,0,1,.33-1.32,5.7,5.7,0,0,0,.45-1.54,16,16,0,0,1,1.27-3.36,1.47,1.47,0,0,0,.18-.41,5.93,5.93,0,0,1,1.14-2.42c.1-.18.19-.38.28-.57s0-.14,0-.14c.64-.08.54-.81.93-1.1l1.25-.9c.23-.17.45-.36.7-.52s.68-.36,1-.57.69-.51,1-.77a4.84,4.84,0,0,1,2.24-.74,3.62,3.62,0,0,0,.56-.17A3,3,0,0,1,70,48a30.28,30.28,0,0,1,3.13-.27,20.08,20.08,0,0,1,2.55.28l.93.07a1.37,1.37,0,0,1,.29,0,5.13,5.13,0,0,0,2.1.25,1.56,1.56,0,0,1,1,.39,7.8,7.8,0,0,0,2.88,1.57c.76.24,1.48.62,2.23.92a3.7,3.7,0,0,0,4.21-1c.4-.37.3-1,.32-1.45a1.88,1.88,0,0,0-.33-1,19.68,19.68,0,0,1-1-2.4A7.08,7.08,0,0,1,88,42.24a2.27,2.27,0,0,1,.16-.62c0-.12.13-.24.11-.34A5,5,0,0,1,88.55,39c.19-.91.33-1.83.49-2.74a1.84,1.84,0,0,1,.1-.42c.3-.67.59-1.34.91-2a1.61,1.61,0,0,1,.51-.59c.29-.22.61-.35.8-.72.08-.17.41-.22.63-.32a.93.93,0,0,0,.59-.9,9.7,9.7,0,0,0-.46-3.55c0-.12-.08-.23-.1-.35s-.06-.43.2-.48.32.12.37.35a4.76,4.76,0,0,0,.3.9.49.49,0,0,0,.57.36c.29-.05.38-.27.42-.53a1.45,1.45,0,0,0,0-.36c-.06-.64.08-.8.84-.9a5.86,5.86,0,0,1-.81,2.77c-.06.07-.15.18-.13.25.18.6-.09,1.19,0,1.79,0,.38.24.61.54.56.83-.13,1.26.46,1.74.91s.57.87.93,1.23.37,1,.69,1.46a4.88,4.88,0,0,1,.67,1.53,16.87,16.87,0,0,0,.88,2,9.71,9.71,0,0,1,.41,1,9.1,9.1,0,0,1,.45,1.76,11.25,11.25,0,0,1-.22,3.42c-.19.84-.4,1.67-.61,2.51a2,2,0,0,1-.11.35,22.14,22.14,0,0,0-1.06,3.06,8.06,8.06,0,0,0-.38.86c0,.22,0,.42-.13.66-.32.45-.54,1-.82,1.45a4,4,0,0,1-.34.38c-.22.23-.42.48-.65.69-.54.49-1.1,1-1.65,1.43a3,3,0,0,1-1.17.7c-.2.06-.35.26-.54.37s-.51.25-.77.38a3.48,3.48,0,0,0-.52.24,4.06,4.06,0,0,1-1.73,1c-.47.62-1.16.36-1.77.5a10.79,10.79,0,0,1-2.77.17c-.49,0-1.07.1-1.5-.38l-.62.29c-.11-.21-.2-.39-.33-.62-.6.59-.9.05-1.26-.28l0,0a4.25,4.25,0,0,0-.54-.32c-.24-.09-.49-.14-.78-.22l-.31.25a2,2,0,0,0-1.74-.67,14.82,14.82,0,0,1-2.4,0,2.88,2.88,0,0,1-.75-.34l-.47.32-.2,0a1.32,1.32,0,0,0-1.51.24,6.92,6.92,0,0,0-1.79,2.54,2.27,2.27,0,0,0-.25,1.27c.05.4.06.7-.22.91.44.88.84,1.69,1.26,2.49a2.36,2.36,0,0,0,.53.69,18.9,18.9,0,0,0,2.59,2.16,7.67,7.67,0,0,0,2.36,1.26c.13,0,.25.15.38.21a6.23,6.23,0,0,0,2.53.78.79.79,0,0,1,.42.1,1.91,1.91,0,0,0,1.55.19.56.56,0,0,1,.36,0,6.7,6.7,0,0,0,3,0c1-.09,1.9,0,2.86,0h1.67a.51.51,0,0,0,.22,0,10.32,10.32,0,0,1,3.41-.39c.85,0,1.7-.12,2.56-.15a6.48,6.48,0,0,1,.86.1c.12,0,.26.09.35,0,.39-.21.77,0,1.15,0,.53.06,1.07.11,1.61.14a7.34,7.34,0,0,1,2.69.58.75.75,0,0,0,.36.07,6.25,6.25,0,0,1,2.41.52c.47.14,1,.22,1.42.34a25.85,25.85,0,0,1,2.81,1c1.06.41,2,1,3.09,1.42a3,3,0,0,1,.91.6c1,.92,1.9,1.9,2.8,2.91A14.9,14.9,0,0,1,118,80.3a9.65,9.65,0,0,1,.43.92c.06.14.08.31.18.4a3.58,3.58,0,0,1,.72,1.82c.11.47.26.94.39,1.4a15.58,15.58,0,0,1,.38,3,8.27,8.27,0,0,0,.1.87,8.17,8.17,0,0,1,.36,1.5ZM22.2,92.31h0ZM73,82.46a3.44,3.44,0,0,0,1.57-1.18,2.15,2.15,0,0,1-1.44,0,20,20,0,0,0-2.68-.12c-.29,0-.58.1-.87.1-1.48,0-3,0-4.42,0-.27,0-.54,0-.81,0a9.46,9.46,0,0,1-1.07.11c-.31,0-.65.43-.95,0,0,0-.1,0-.14,0-.4.36-.87.19-1.33.2a3.47,3.47,0,0,0-1.8.21c-.09.06-.23,0-.35,0a3.84,3.84,0,0,0-2,.09c-.08,0-.19,0-.29,0l-5.36-.08c-.36,0-.72.06-1.08.06-.7,0-1.4,0-2.1,0a4.05,4.05,0,0,1-.75-.17c-.15,0-.38-.19-.44-.13-.36.33-.82.06-1.17.21a3.44,3.44,0,0,1-1.23.1,4.31,4.31,0,0,0-1.37.13c-.41.16-.94-.19-1.34.22a.2.2,0,0,1-.21,0c-.45-.54-1.09.21-1.54-.23-.38.3-.68,0-1-.18l-.39.41c-.56-.29-1.23.35-1.59-.2a4.78,4.78,0,0,1-.89.19c-.67,0-1.33.07-2,0s-1,.07-1.56.08a1.84,1.84,0,0,0-.92.12c-.11.06-.35-.1-.58-.17a.63.63,0,0,1-.8.2,1,1,0,0,0-1.22.34,1.52,1.52,0,0,0-1.62.19,3.75,3.75,0,0,0-1.33,1.23A6.11,6.11,0,0,0,25.53,86l-1-.42c0,.32,0,.55,0,.79s0,.52,0,.81c.5.13.69.43.45.91.47.17.87-.44,1.22-.07a6.21,6.21,0,0,1,.73,1.21.41.41,0,0,0,.13,0,.93.93,0,0,1,1,.35,2.36,2.36,0,0,0,1.09.52,21.23,21.23,0,0,0,2.07.59,9.06,9.06,0,0,0,2,.48,6,6,0,0,1,1.87.36,12.84,12.84,0,0,0,2.35.46c.39,0,.77,0,1.1.3.1.1.36.08.55.07s.33-.16.41-.1c.66.43,1.49.16,2.12.43s1.58.27,2.3.65a2.06,2.06,0,0,0,.87.3c.82,0,1.42.57,2.18.75a15,15,0,0,1,2.78,1.5,6.72,6.72,0,0,1,2,1.1,2.7,2.7,0,0,0,.88.49c.72.3,1.44.58,2.17.87a7.84,7.84,0,0,1,1.08.43,3.78,3.78,0,0,0,1.29.47,6.18,6.18,0,0,1,1.35.32,1.23,1.23,0,0,0,.84.09c.73-.18,1.46-.33,2.18-.53a5.1,5.1,0,0,0,1.06-.49c.11-.07.24-.35.19-.42-.25-.38-.13-.77-.14-1.18a7.81,7.81,0,0,1,0-1.87,3.57,3.57,0,0,0,.13-1.07c0-.44.25-.83.18-1.19A2.77,2.77,0,0,1,63,91.85c.07-.45.1-.91.18-1.36s.06-1.09.5-1.49c.07-.06.09-.18.13-.26a6.54,6.54,0,0,1,2.6-2.81c.36-.24.74-.45,1.11-.68a17.05,17.05,0,0,1,1.64-1.07c1.24-.6,2.51-1.14,3.77-1.71ZM61.34,100.55c.29.11.54.49.9.12-.3-.06-.54-.43-.9-.13Zm1.74-.07a1.76,1.76,0,0,0-.15-.44,1.48,1.48,0,0,0-.48.2,1,1,0,0,0-.18.41l.44-.18c0,.35.08.62.11.89C63.2,101.16,63.08,100.79,63.08,100.48ZM104.66,90s0-.1,0-.14c0-.49,0-1,0-1.46a.57.57,0,0,0-.08-.35,1.47,1.47,0,0,1-.36-.92c0-.49-.44-.93-.73-.85-.49.12-.74-.06-.85-.55l-.51.27-.39-.57a9.37,9.37,0,0,1-.95.09.64.64,0,0,1-.46-.15A1.27,1.27,0,0,0,99,85.09a2.25,2.25,0,0,1-.58,0A3.82,3.82,0,0,0,96.56,85c-.17.06-.38,0-.58-.06s-.51,0-.77,0-.34.06-.5,0c-.41,0-.87-.22-1.21-.09-.85.34-1.72-.27-2.55.13-.07,0-.26-.16-.39-.24a3.73,3.73,0,0,1-.63.27,1.13,1.13,0,0,1-.63,0c-.13,0-.18-.3-.27-.48l-2.3,2.1a1.31,1.31,0,0,1-.39.32,2.18,2.18,0,0,0-1.25,1.24,2,2,0,0,0-1.52.7,12.07,12.07,0,0,1-2.16,1.2,3.24,3.24,0,0,0-1.16.83.9.9,0,0,1-.74.42,1.8,1.8,0,0,0-1.78.83l-.33.44c-.33-.21-.51-.8-1-.4l.23.57-.41,0H76a1.58,1.58,0,0,0-.68,2.09s0,0,0,.07a1.6,1.6,0,0,0,.28.57,10.11,10.11,0,0,0,1.18.85,4.34,4.34,0,0,1,.63.37,1.69,1.69,0,0,0,1.16.36l.71,0c.46,0,.93,0,1.39.06a1.12,1.12,0,0,1,.56.11,1.22,1.22,0,0,0,1,.2,8.53,8.53,0,0,1,2.52-.13,2.63,2.63,0,0,0,.85-.2,4.69,4.69,0,0,1,.64-.09c.64,0,1.27,0,1.9-.06a3.06,3.06,0,0,1,1.59,0,.56.56,0,0,0,.36,0,17,17,0,0,1,3.26-.43c.83,0,1.63-.38,2.48-.43.07,0,.13-.08.2-.1a15.33,15.33,0,0,1,1.74-.45,9.46,9.46,0,0,0,2.62-.85,17.12,17.12,0,0,0,2.49-1.66A4.83,4.83,0,0,0,104.67,90Z"/></svg>