<svg xmlns="http://www.w3.org/2000/svg" width="174.447" height="133.258"><path data-name="Tracé 316" d="M11.692 47.487c-2.234-.555-5.407-4.014-5.921-5.68-.411-1.336 1.408-.833 1.884-.4 4.077 3.707 1.7 2.547 6.086 4.013a1.791 1.791 0 001.57-.036c.817-.468.33.6 3.379-.043a3.3 3.3 0 011.805.028c.635.211 3.346-.426 4.708-.138 1.175.249 2.359.042 3.5.2a28.954 28.954 0 015.538 1.842c.8 1.135 1.65 1.077 5.485 2.281 1.186.372 1.432-.437 1.843-1.814.437-1.464.623-2.057-.273-2.327-2.709-.822-5.149-4.592-6.622-4.786-.774-.1.006-.77-2.21-1.411-1.434-.414-1.206-.925-1.577-1.073-1.336-.535-2.64-1.249-4.143-1.087a3.708 3.708 0 01-2.715-.818 18.139 18.139 0 01-7.784-7.959c-.329-.629 1.531-1.507 2.261-.19.463.839.51 1.855 1.647 2.309 1.306.519-.13.715 2.366 1.525 4.786 1.553 4.8 1.577 5.085 1.485 1.055-.345 1.229-.311 8.995 2.488 1.438.518.349.931 2.107 1.456.685.205 1.426.289 1.8 1.068.086.18.432.23.646.36 1.11.682.928 1.034 2.022 1.365a2.037 2.037 0 01.918.686c.71.894 1.774.894 2.733 1.128.559.138 1.368-2.057.733-3.335-.356-.716.539-1.211-.467-2.038a34.876 34.876 0 01-2.689-2.922c-.737-.849.616-.293-3.184-3.035-.174-.125-.452-.19-.527-.354-.448-.957-1.013-.861-4.133-1.9-1.73-.576-1.148-1.042-1.929-1.3-1.148-.373-.677-.683-1.485-1.178-3.313-2.029-3.781-3.96-4.671-7.646-.166-.679.65-1.555 1.333-1.591a.879.879 0 01.923.876c-.161 1.24.613 2.127 1.039 3.134.613 1.449 2.506 2.252 2.568 2.382.8 1.712 9.767 3 11.487 4.735 1.066 1.073.537-.814 8.825 7.1.9.855 2.824 1.187 3.168.823 1.528-1.614 2.064-3.25.558-4.858-1.2-1.279-.769-1.119-1.611-2.528-1.859-3.124-.618-3.482-2.86-5.442-7.608-6.646-6.961-5.549-8.824-10.156a5.38 5.38 0 01.438-4.578c.222-.413.709-.683 1.136-1.076.425.659.779 1.222.447 1.882-.8 1.6.587 3.118 1.149 4.648.694 1.89 1.788 1.006 2.8 2.337.511.673 2.084.523 2.812 1.679.037.059.095.139.152.15 1.4.248 2.182 1.654 3.588 1.9 1.144.2.656.765 1.642 1.286 2.725 1.439 6.677 9.744 8.27 9.024 2.8-1.266 1.137-2.218 2.507-3.484 1.082-1-.427-4.355-.242-4.893a19.343 19.343 0 00.36-3.223c.224-1.308.017-1.256-2.531-4.381-2.613-3.207-2.758-3.069-3.894-6.145-.357-.97 2.143-7.1 3.6-5.894a.644.644 0 01.053.638c-.939 1.009-1.076 2.356-1.566 3.552a1.77 1.77 0 00.446 2c.124.133 2.941 3.117 3.112 3.174a11.308 11.308 0 012.349 1.494c4.99 3.159 3.827 7.767 6.649 13.079.987 1.86 3.226.147 3.88-1.491.467-1.168.561-.045 1.6-2.9.492-1.361-.2-1.639.249-3.506.57-2.375 1.658-3.491.285-4.649a4.805 4.805 0 01-1.359-2.175c-.992-.7-.912-1.9-1.319-2.864-.028-.068-.08-.14-.072-.2.133-1.276-.365-2.634.274-3.819C83.948.486 84.076.939 85.6.052a.775.775 0 01.74.154c.411.555-.245 1.149-1.437 2.758a7.3 7.3 0 00-.323 3.23c.264 1.49 1.237 1.952 2.668 3.711 4.2 5.155 3.322 1.982 4.055 9.015.072.706-.562-.068-.076 4.263.064.583-.156 1.178.384 1.7s.682.6 1.4.379c2.453-.759 2.042-2.186 3.282-2.079.825.072 1.018-.7 1.265-1.514.844-2.776 2.253-3.215 2.668-4.472 1.491-4.521 1.431-4.211.8-6.594a7.362 7.362 0 01-.392-3.493c.023-.117-.142-1.908.3-2.517a16.6 16.6 0 012.556-3.34c1.223-1.024 3.312-.258 2.306.672-1.97 1.817-1.477 2.254-1.871 2.485-2.322 1.368.257 5.351 2.251 9.766.731 1.617.016 1.561.117 2.2.266 1.671-.593 3.1-.986 4.63-.26 1.018-2.044 1.292-1.289 5.111.115.582 1.72.576 3.317.521 3.861-.138 2.754-2.814 5.454-4.768 2.348-1.7 1.607-2.873 2.272-3.334 1.4-.974 1.293-2.444 1.381-3.67 2.2-4.231 1.128-5.011 4.915-7.778.62-.453 3.092-1.648 3.291-.912.131.486-1.287 1.292-1.912 1.833-1.1.955-1.194 1.893-1.893 4.067-.834 2.591.917 3.776.37 5.248-.925 2.48.075 3.66-1.343 4.509-.346.205-.512 1.116-.648 1.21a6.532 6.532 0 00-1.519 1.911 6.911 6.911 0 00-.944 1.418c-.088.23-.943.921-1.169 1.363-.942 1.841 1.24 1.294 1.515 1.444.981.535 2 .13 2.991.141a.948.948 0 00.585-.222c3.587-3.184 6.709-3.428 7.2-5.484.362-1.521.769-.23 1.51-2.521.939-2.91.646-2.714 2.4-4.646 1.451-1.6 3.438-2.382 5.284-3.345a4 4 0 012.952-.34c1.157.337.452 1.033-.123 1.088a7.86 7.86 0 00-5.9 4.387c-.771 1.427.176 2-.209 3.05-1.7 4.66-1.521 3.674-1.928 4.17-.933 1.137-.7 1.871-1.971 2.3a.51.51 0 00-.28.163c-.9 1.512-1.444.492-4.449 4.024a3.063 3.063 0 00-.5.694.7.7 0 00.454 1.04c4.085.885 3.733.819 5.932-.209a32.847 32.847 0 014.115-1.918 5.521 5.521 0 002.037-1.376c1.291-1.239 2.185-1.239 2.43-1.886a6.817 6.817 0 011.446-1.992c.7-.813 1.315-1.692 1.966-2.543a12.274 12.274 0 014.958-2.746c4.479-.884 4.8-1.085 5.341.6-2.72 1-2.694-.653-6.054 1.341-.727.431-.415 1.69-1.364 2.363-.145.1-.33.252-.351.4-.233 1.537-1.886 2.387-1.929 4.014a26.544 26.544 0 01-10.044 8.139c-1.2.5-1.884 2.574-.591 2.475 2.194-.164 3.654 1 4.468.648a51.347 51.347 0 015.841-1.843c1.4-.977 2.006-.371 2.355-.485 4.806-1.579 4.025-1.031 8.086-4.569.161-.14.265-.362.442-.467 1.709-.995 3.327-2.3 5.389-2.366a6.746 6.746 0 013.611.312c.356.18.8.354.626.861-.339 1.013-2.127-.562-5.825 1.412a9.737 9.737 0 00-1.426 1.128c-3.858 3.147-2.432 4.333-6.585 6.576-1.1.6-2.388.853-3.334 1.744a.342.342 0 01-.19.1 15.378 15.378 0 00-3.349 1.119 7.97 7.97 0 00-2.284.915c-.557.392-1.245.6-1.814.977a.941.941 0 00.085 1.76c5.075 2.773 2.208 1.634 9.65.931a9.766 9.766 0 002 .156c.211-.01.464-.15.623-.074.785.377 1.367-.009 2.014-.375.806-.456 3.237-.759 4.743-2.388.755-.815.774-.586 3.376-1.555a11.92 11.92 0 013.636-.964c.07-.013.142-.063.206-.054 1.906.29 3.9.052 5.693.985 1.233.641-.333 1.994-1.3 1.5-1.444-.748-2.988-.672-6.975.29-2.638.634-4.109 5.054-9 5.936-.48.086-.916.41-1.4.523a3.514 3.514 0 00-1.878.738 1.033 1.033 0 01-.91.061c-1.534-.647-.95.744-3.088.53-1.913-.193-4.444.858-3.718 1.932.6.89 1.37-.835 2.245.959.217.446.5.858.724 1.3a1.449 1.449 0 001.679.593c1.23-.652 2.41.985 3.733.2.4-.233 2.848 1.283 6.682.717.7-.1 1.357-.488 2.056-.591 1.66-.247 3-1.394 4.661-1.6 1-.123 1.316.264 2.838-.453a.946.946 0 01.513-.142c1.117.209 6.832.289 6.518 1.916-.205 1.062-1.644-.234-3.892-.219-.1 0-.217.1-.308.081a5.68 5.68 0 00-2.607.415c-2.548.628-3.373 1.81-4 1.806-1.411 0-1.881.858-3.011 1.127-7.111 1.688-6.264 1.467-6.972 1.456-5.5-.09-4.831.217-5.9.007-1.326-.26-2.288.425-3.547.824.205.511.257 1.07.562 1.316 1.43 1.155.845 2.732 2.6 3.275 3.713 1.147 4.286 1.5 4.777 1.367 2.067-.559 3.394 1.331 5.378.489.244-.106.1.06 1.8 0 .069 0 .149-.081.2-.065 1.111.343 2.1-.3 3.153-.384.963-.08 1.564.453 2.544.1 1.449-.524 1.616 1.658.331 1.866-4.694.767-4.718.7-4.89.861-.683.645-1 .465-4.25 1.16a5.25 5.25 0 01-2.342.006 14.9 14.9 0 00-2.8-.05c-2.391-.068-3.008-.819-5.114-.71a4.316 4.316 0 01-1.443-.4c-.982-.325-1.814.311-1.591 1.318.488 2.214-1.067 3.108.618 3.338 1.988.27 1.289 1.014 3.147 1.7a10.617 10.617 0 013.271 1.41c.243.2 6.579 2.2 6.6 2.2 1.422-.011 2.817.3 4.25.268 1.373-.032 2.8-.392 4.123.321 1.078.58 1.637-.08 3.125 2.09-.667.97-2.571.213-3.272-.48-1.024-1.008-1.266.208-2.3.221a29.174 29.174 0 00-3.35-.036c-1.865.62-3.8.153-5.69.352-1.031.107-12.768-4.472-13.463-3.807-.5.48-.182 1.025.049 1.505a4.709 4.709 0 01.167 2.458c-.129 2.254.635.343 3.6 3.457a4.943 4.943 0 001.307.925c1.157 1.386 2.727.917 4.536 2.369 1.068.853.889.074 2.315.485 2.293.663 3.506 1.083 4.3 1.725 1 .81 2.552.4 3.733 2.036.874 1.207.8-.2 1.686 3.094.017.065.093 1.067-.467 1.046a.85.85 0 01-.565-.528c-.408-1.367-2.463-2.216-2.534-2.348-.5-.916-1.434-1.029-2.279-1.309-3.468-1.146-3.845-1.32-4.784-1.081-1.069.271-2.146-.772-3.664-.568-1.556.209-3.637-1.385-4.689-.831a1.327 1.327 0 01-1.68-.512c-.724-1.319-1.86-.6-2.44-1.6-.087-.149-.221-.363-.357-.381-1.183-.151-1.846-1.179-2.835-1.63-.711-.323-1.385.968-3.484 2.395a.668.668 0 00-.022 1.16 14.157 14.157 0 013.183 3.551 7.71 7.71 0 002.814 2.457c1.8 1.875 5.6 1.88 7.181 3.547 1.458 1.537 2.509.779 4.293 3.754.332.554.544 1.177.833 1.758.891 1.8-.993 3.549-1.53 1.986-.263-.765-.429-2-.567-2.078-.9-.507-1.408-1.573-2.531-1.781a2.826 2.826 0 01-1.663-.941c-1.284-1.451-2.251-.26-4.079-.89-6.41-2.2-6.224-2.065-6.242-2.156-.224-1.1-1.67-.963-1.968-1.974-.023-.083-.156-.163-.254-.193-1.817-.555-3.918-5.253-5.521-3.047-.707.971-3.4 2.681-1.06 4.44 1.876 1.412.128 3.072 1.082 4.026.394.394-.422-.086 1.491 2.839 2.53 3.864 6.086 3.285 8.078 7.709a12.119 12.119 0 01.569 3.177c.156 1.047-1.546 1.675-1.56.562a7.419 7.419 0 00-.71-2.6c-.731-1.879-1.529-1.63-1.677-1.868-1.116-1.8-4.15-1.287-5.116-2.776-.327-.506-1.819-.375-2.326-1.607a6.233 6.233 0 01-2.463-2.171c-1.158-2.509-.759-1.4-3.126-5.166-.7-1.105-3.2-2.467-3.932-1.4a14.549 14.549 0 01-2 2.657c-1.547 1.335.311 2.483-.379 5.007-.379 1.388.652 3.3 1.606 5.415.287.637 3 1.448 4.3 4.993.068.189.763 1.084.726 1.758a1.639 1.639 0 00.14 1.138c.289.415-.589 1.16.071 2.17.087.131-.1.625-.285.716-1.051.524-.81 1.7-2.139 1.335.679-2.31.96-2.63.512-3.271a.153.153 0 01-.027-.1c.319-1.763-1.011-2.674-1.97-3.761-1.87-2.123-1.765-.839-2.852-2.015-3.777-4.089-3.791-3.75-5.264-7.263-.325-.776-.289-2.193-.551-2.51-.834-1-.022-1.385-.652-2.423-1.187-1.962-1.89.162-3 1.349-.848.906-1.494.237-1.9 1.534-.771 2.437-.092 4.35-1.277 6.843-.578 1.218-.115 1.849.958 4.04.922 1.881 1.254.085 2.576 5.477.05.2.1.12-1.209 4.268a1.8 1.8 0 01-1.751 1.342c-.456-.822-.48-1.117.131-1.6 2.151-1.706.156-2.894-.006-4.536-.092-.93-.842-1.477-1.93-2.606-.076-.079-.124-.214-.211-.244-1.164-.408-1.644-1.507-2.367-2.353-.284-.332-.556-1.767-.893-2.468-2.057-4.292.661-4.36-.667-9.078-.179-.632-.565-.787-1.167-.491-1.148.565-4.035-.875-4.535 1-.006.022-1.033 3.874-1.327 3.964-.694.215-.69.852-.922 1.365a13.288 13.288 0 00-2.008 4.353 30.5 30.5 0 01-.421 3.711.383.383 0 00.032.215c.857 2.234-.3 5.405-1.663 6.7-.753.713-1.4 1.54-2.1 2.31-.611.672-1.5.619-2.288.835-.1.028-.308-.16-.381-.293-.044-.082.126-.5.282-.523 1.093-.183 1.482-1.216 2.2-1.843a12.53 12.53 0 001.264-3.091c.58-2.367-.713-4-1.766-6.294-.626-1.359.417-4.121.117-6.418-.085-.648.916-2.66 1.609-5.018.675-2.3-1.7-1.832-5.092-2.5-.569-.113-1.105-.108-1.3.428-.541 1.485-3.885 4.209-4.3 5.54-.747 2.375-1.386.669-1.9 4.131-.828 5.559-.575 3.054-.858 4.435-.53 2.584-3.54 5.021-4.81 5.5a.671.671 0 00-.3.294c-.758 1.412-2.215 1.5-3.523 1.843a.578.578 0 11-.142-1.112c1.731.076 2.418-1.4 3.5-2.293.146-.12.182-.387.248-.592.829-2.546 1.653-3.765 1.019-8.732-.338-2.663.066-2.143.614-4.444.406-1.7 1.232-.678 1.526-2.364.146-.839.379-.266 2.4-3.663.533-.9-.07-1.6-1.116-1.59a1.457 1.457 0 01-.739-.074 5.748 5.748 0 00-2.737-.535 2.548 2.548 0 00-2.036.807c-2.442 2.062-4.638 2.852-5.326 5.011-.4 1.251-1.249.613-1.82 3.094-.335 1.459-.452.566-1.555 2.738-.113.222-.1.553-.262.7-.964.853-1.356 2.117-2.223 3.028-.233.247-.2.2-4.1 2.405-.9.51.145.724-3.762 1.744a4.6 4.6 0 00-.759.355c-.275-.83-.049-1.6.548-1.583a9.258 9.258 0 005.086-3.191c.384-.486.788-2.332 3.115-9.022a9.3 9.3 0 011.257-1.855c1.879-3.148 4.505-3.187 4.132-5.316-.389-2.235-3.435-2.343-4.4-1.621a12 12 0 01-2.823 1.328 3.279 3.279 0 01-.992.416c-1.649.109-2.841 1.186-4.168 1.951-.543.314-1.684 2.113-2.649 2.838-1.461 1.1-.549 2.343-2.27 3a17.656 17.656 0 01-7.581 4.171c-2.915.867-3.245.443-4.532-.457a.683.683 0 01.905-.577 4.04 4.04 0 001.816-.131c1.39-.24 2.021.113 3.557-1.655 2.463-2.834 2.434-2.328 2.8-3.389.9-2.62.959-3.667 2.053-4.576s.456-1.191 2.646-2.913c.194-.154.528-.224.608-.413.707-1.68 2.14-2.791 3.234-4.163 1.112-1.4 1.309-3.915-.367-3.211a9.92 9.92 0 01-1.923.978c-2.483.653-5.973 1.135-8.715 3.012-1.246.856-2.722 3.322-6.59 5.329-3.027 1.572-3.669 2.068-4.36 2.133a16.03 16.03 0 01-3.746.4c-1.255-.168-2.022.879-2.536-.237-.786-1.7 3.142-1.165 4.419-1.852 2.909-1.564 3.509-1.757 4.359-3.174a18.9 18.9 0 012.375-2.627c.571-.636 1.078-1.33 1.655-1.961 1.2-1.309.947-.642 3-2.394a7.821 7.821 0 014.277-2.2c1.708-1.122 5.679-1.548 5.081-3.038-.442-1.1-5.618-.281-6.3-.966a1.451 1.451 0 00-1.491-.311c-2.27.42-4.564.729-6.826 1.19-4.225.862-6.359 2.795-8.155 3.769-1.776.963-4.323.5-5.3 1.41-.763.707-1.3-.4-3.145-.027-.568.117-2.065-.516-2.732-.328-1.478.416-1.935-.474-2.661-1.394 1.11-1.5 2.425.48 4.15-.26.411-.178.97.853 3.772-.068.258-.085 1.754.1 2.2-1.041 0-.02 3.527-2.714 3.545-2.714.141-.108.377-.128.471-.258.939-1.3 1.431-1.094 6.821-4.185a.266.266 0 01.095-.052c1.625-.222 3.026-1.318 4.758-1.176a2.924 2.924 0 001.579-.3c1.886-1.054 4.8-.7 4.9-1.6.087-.726-.985-.726-1.2-1.1-.829-1.459-2.55-1.558-3.733-2.476-.753-.581-5.149.039-6.265-.361a1.593 1.593 0 00-1.368-.027.583.583 0 01-.425.042c-1.257-.459-2.794.4-3.49.328a10.6 10.6 0 00-5.737 1.2 10.89 10.89 0 01-2.419.5c-1.342.276-1.835.465-1.892.452-1.13-.258-2.288.245-3.419-.145a1.5 1.5 0 00-.946-.009c-.74.273-1.1.22-5.829-1.411-1.751-.6-.108-3.215 1.827-.993.961 1.1 1.722-.032 2.493.37 1.427.743 4.621-.044 5.836-.744.645-.37 1.45-.449 2.132-.767 1.21-.564 2.377-1.211 3.563-1.82s1.806-.225 2.889-1.084c.313-.25.9-.141 1.356-.232.615-.124 3.75-1.014 4.63-.591a.551.551 0 00.511-.063c.68-.744 1.47-.025 1.582-.077.788-.379 1.6-.047 2.388-.082 1.062-.045 2.119-.227 3.179-.347 1.547-.176 2.071-.387 1.19-1.692-1.055-1.557-.307-2.992-2.078-3.169-.538-.053-3.674-1.325-5.6-1.65-8.373-1.412-11.185.81-13.508-.156-1.191-.5-1.449.319-2.93-.187-1.946-.664-3.961-1.245-4.028-1.314-1.2-1.25-6.894-3.659-5.316-5.36 1.111-1.2 2.226 1.923 5.862 2.888 1.427.381 1.045-.621 3.156.26a5.129 5.129 0 004.553-.289 9.223 9.223 0 012.118-.421c.749-.171 1.79-.679 2.008-.712 2.328-.365 6.506-1.2 9.013-.522 1.815.489.793-.284 2.731.271.929.265 1.8.721 2.835.243.181-.083 4.395 1.621 3.917-1.757-.319-2.262-.388-2.617-1.228-2.916-7.907-2.819-1.432-1.379-9.23-3.625-.29-.082-2.324-.029-3.088-.22a6.9 6.9 0 00-3.276-.473c-2.716.583-4.227-.788-8.557-1.862zM167.65 71.566c1.168-.778 1.386-.732 2.348.29.583.62 1.94.5 2.84 1.648a4.622 4.622 0 001.34.825 4.89 4.89 0 01-3.3-.986c-.51-.415-.354-.29-3.085-.242l-.136-1.531zm1.437 15.692c.127-.04.382-.215.6-.174.416.079.807 1 .61 1.455-.37.857-1.612-.182-1.2-1.278z" fill="#2caf38"/></svg>