<svg data-name="Calque 1" xmlns="http://www.w3.org/2000/svg" viewBox="0 0 138.53 138.53"><path d="M107.87 42.11c1.7.43-1.57 3.24-2 4.16-1.21.34-.54 1.8-1.44 2.28-1.19.49-.1 2.23-.72 3.14s-.76 2-1.41 2.78c-.52.54-2 1.19-1.24 2.14.08.24.49 1.07.55.47.34-1.22 2.11-1.24 2.67-2.31 3.9-4.92 2-.78.29 1.66-1.09.67-.83 2.24-2.16 2.53-.2.37 1 .53-.08 1.41a4 4 0 00.57 2.19c8 1.83 1.88 11.79 1.38 20.7-.61 2.27 2 6.93-.87 7.86-17.1 4.42-8.41 18.39-13.19 18.76a54 54 0 00-14-.09c-4.44.59-9 3.61-13.23.54-11.48-7.33-25.24-2.51-15.31-13.83-8-3.21-16.07-1.78-17.51-12.45A46.8 46.8 0 0035.87 73c3.42-9.12-.31-10.33 10.21-13.59 3.08-.85 3.45 1.54 4.61-2.55 4.15-10.12.68-5 6.8-4.87 2.58.1 5.39-2 6.7-4.14 2-1.26-.28 3.39-1.28 3.7 2.36-.09 5.18-.23 6.68-2.41 0-1-.81-2-.31-3 .69-1 1.91-.86 2.91-1.42 1.74.58.83-2.83 2.55-2.95 1.87-1 4.5-1.07 6-2.28.32-1.24 1.83-2 2.55-3 .13-.3 1.44-2.1 1.65-1.66.56.7-.91 1.82-1.23 2.5-1 1.62-1 3.63-2.27 5.07-.42.77.69 0 1 .23 3.07-.26.86-4.05 2.17-5.72 1.86-1.12 4.15-1.92 5.4-3.79.33-.85 1.34-1.38 1.7-2.11 0-.39.84-1.28 1.29-1a30.12 30.12 0 01-3 5.77c-1.54 1-3.82 3.41-3 5.37.37 2.75-1.85 5-4.19 6.09-1.74 1.3-1.93 3.73-4.15 4 7.34.93 3.69-1.64 8.65-4.51 3.48-1.32-.13-4.5 3.92-5.57 1.79-1.16 3.89-1.52 4.14-4 1.8-1.24 3.66-2.33 4.89-4.19 1.78-.58 4.75-7.43 6.1-5.94-1.84 4.6-5.37 8.36-8.08 11.86.07 1-1.31 1.24-1.4 2.13.2.92-.42 1.18-1.06 1.63-5.61 4.09-.86 1.9-3.73 5.88 1.26.87 2.32-1.2 2-2.39.92-2.37 3.54-3.76 5.23-5.47-.75 3.86-3.17 3.27-3.82 8.94-.74 2.06-3.14 2-3 4.71 1.42.67 4.24.72 3-1.43.71-3.51 4.24-5.4 6-8.56 1.7 1.31-4 6.19-3.65 10.66-.55.57.94.82.72.07a7.42 7.42 0 011.88-3.71c1.79.54 1.51-1.7 1.51-2.93 1.55-2.29 4.34-3.85 6-6.34zM47 95.28c2.45.92 5.17 2.31 8 2.25 2-1.67-1.79-2-2.79-2.53-4.37-2.93-9.77-4.32-14.35-6.65-1.16-.4-4.83-5-1.71-2.3 4.45 4.57 11.81 3.7 17.25 6.27.9.59.31-1-.29-1.1-.54-.51-2.38-.16-2.12-1.13s.7-.2 1.16-.66c.79-1.71 3 .8 4.09-.35.83-4.73-13.93 0-9-18.71.63-2.74.64-5.62 1.12-8.4 0-.55.75-1.81-.16-1.9-1.9.07-10.11 2.09-9.32 4.51a66.73 66.73 0 01-6.77 17.82c-1.61 1.48-1.94 1.7-.62 3.61 1.13 1.61-.27 3.06 1.89 3.9 1.51 3.15 9.89 4 13.64 5.36zm44.17 5.08c2.24-6.16-8.12 6.22-10.4 6.19-6 1.07-1.08-1.68-8.37-3.9-3.22-1.21.18-5.2-2.47-6.27-6.22-2.49-4.53-.23-9.58 2.06.7.73-1.93 4.16-1.39 2.12.87-1.56-1.56-.29-1.86-1.31-.5-.24-.91.65-1.34.15a33.53 33.53 0 01-6.16-1.94c-1.72-1.2-2.42 1.37-3.2 2.43-5.46 5.45 6.55 4.19 9.38 6.3-.16-.72 1-.18.74.32.56.33 1.05-.78 1.43-.15 1.06 1.62.68-.59 1.44-.44.7-.27 1.57.5 2-.12 1.52-.73-.83 1.71.9 1.76 1 .65-1.55 1.15.63 1.71.48.1.33-.49.09-.69-.12-1.23 2 1.34 2.32 1.59 0 .9 1.32 0 1.82 0 .07-.3-.89-.43-.31-.69.68 0 .69 1 1.27 1 .51-1.21-.72-.39.24-2.79-.58-1-.89 1.7-2.3 1-.6-.17-1.24.72-1.67.09.7-1.47 2 .42 3.09-1.79.55-.48 2.43-.86 1.56.37-.67.8 1 .78.62 1.46-.25.52.48.44.79.43.53 0 .09-.52 0-.76-.34-.75 1 0 .73-.82 0-3 5 .79 7.39.44 8.39.13 9.91-6.16 12.08-2.83.49-1.59-1.31-1.17-1.07-2.37-.15-.68.77-.84.62-.11 0 .42 0 .57.45.7-.13-.7.41-1.18.23-1.87-.37.2-.58.54-.79-.05.37-.4 1.14-.62 1.13-1.26zm-42-34.59c-.21 5.56-3.93 17.54 4.38 19.17.5.15.58 0-.5-.76.38-.12 1.29-.74.61-1.12-.23-1.61-.34-3.29-1.49-4.62-2.65-3.72 1.19-8-1.31-11.44-.09-2.09 0-1.43 1.41-2.11 6.44-4.84-1.72-5.91 4-9.35 6.53-4.48 0-1.07-2.53-4-.38-.4-.66 0-.58.45.11.59-.69.72-.57 1.3-1.19 4.22-3.57 8-3.38 12.5zm11.1-13.63c-1.5.63-.21 1-1 2s-2.18 1.38-3 2.49c-3.27 1.58.56 4.07-1.06 6.37-.67 1-1.78 1.41-2.44 2.45-1.23.78-1.79 1.26-1 2.63 1.8.81 1.82-4.18 4.38-2.7.62-1.77 2.51-2.91 3.64-4.37.91 1.08-2.88 4.76-.47 4.31.75-.22.39-.57.76-1a5.31 5.31 0 011.54-2c.42-1.64 2.36-2.71 3.12-4.34.67-.23-.46 2.09-.66 2.31-.7.64.28 2.14-.53 2.61-1.16 1.26-1.63 3.27-2.31 4.75-.18.56-1.3.91-.79 1.55.62.16 1.19-1.16 1.42-1.62.51-1.65 2.38-1.48 3.23-3 .35-.3-.11-.61-.14-1 0-.67.12-1.77.61-2.14.71-1 4.5-3.85 1.7-.71a2.67 2.67 0 00.21 3c.82.58 0 1.61 1.14-.87-.21-.81 4.87-4.5 2.77-2.21-1.08.82-.46 2.54-1.62 3.36-2.17 1-1.4 2.84.54.89 1.13-2 .74-1.26 2.43-2 .88.59 1.8-.41 2.16-1.29a2.29 2.29 0 002.28-1.78c4.78.74 1.73 10.39 5.09 9a1.58 1.58 0 001.59-1.45c.45-1 .83.76.4 1.12-.19 1.09-4.17 5.74-1.9 6.08 1-2.12 1.31-.84 2.76-2.7.59 1.21-1.09 2.3-1.55 3.14.24.92-1.29 1.69-1 2.38 2.65-.82-1.56 2.74-1.4 3.69.65 1.53 1.25-1.05 2-1.05 1.12.24.57-1.09 1.14-1.64 3.47-1.89 3-2.85 1.87-6.44.29-2.66-1.81-1.15 1-3.66a2.51 2.51 0 011.46-2.61c.8-.89 1.45-2 2.83-2.49A36 36 0 0189 67.46c1.36 3.73-2 1.63-1.36 3.23 1.46 3.8 2.84 4.4 4.14.3a7.9 7.9 0 001.36-7.62c-.22-.95-4-7.8-4.59-5.57.35 2.4-3.12 2.88-1.82 5.29 0 .81-.16 2.27.86 1.2 2 1.6-4.28 4-3.86 0 .07-2.13 2-3.07 3.13-4.48 2-1.86-.9-2 3.22-4 .59-1 1.82-1.39 1.7-2.78 0-1.74 3.06-2.08 3.38-4.77.24-3.94-.11-2.88-.65.16-.87 1.31-2.47 1.18-3.37 1.77-.5 1-.86 2.18-2 2.75-2.36-1.57 2.52-4.32 3.08-5.88.49-.57-.7-.91-.4-1.63a11.3 11.3 0 013.81-3.21c.44-.43.35-1.1.67-1.6.14-.61 1.32-1 1-1.56a6.53 6.53 0 011.63-1.86c.93-2.41 4.44-4.08 4.92-6.91-2.33 2.41-4.33 5.84-7.51 7.19-1 2.91-3.71 3.68-6.22 5.29-.28 2.27-.37 3.65-2.51 5-2.81.77-2.22 3-4 4.3-4.27-.25-2.62 2.74-4.38 5.28.08.44-.55.25-.56.63s-.57.2-.57.6c-.23.31-.55.4-.77.79-.84.28-3.28 1.69-3.44.53-1.23-3.28 4.47-3.25 4.66-6.07-1.37.26-1.64 1.19-2.33-.75 1-3.32 1.72-2.4 4.1-3.93 1-2.36 3.4-3.14 4.77-5.06 2.35-2.09.18-4.07 2.32-6.9 2.82-2.08 1.28-1.8-.89-.42-3.49 1.06.54 6.61-4.23 6.72-1.16-.3-2 1-3.22.7-.9.2.24.57-1.67 1.08-1.69.68-1.66-1.92-.49-2.47 1.94-1.19 5.78-.11 5-3.49C80.81 42.26 74 41.08 74 44c-.25 2.57-3.34 1.18-4.19 3 .08 1.15.85 2.42-.28 3.29-1.42 1.91-4.48 1.35-5.67 3.75-.75.77-.36 2.21-1.47 2.6-.56 1.63-4.34 4.2-4.45 1.14-.16-.94 1-.92 1.17-1.59a5.87 5.87 0 011.34-1.77c.42-.47-.21-.9.08-1.34.36-.28.05-.89.51-1 4.21-3.09 2-2.09-.74 0zm-3.73 25.91c-.63 1 1.17 1.92 1.42.74.25-2.88 1.21-5.2-.86-7.61-.35-1.54 1.72-1 .56-2.52-.57-.65 0-1.61.21-2.29-.88-.2-.62 1.33-1.11 1.78-1.7 4.88-.51-8.64-4.63 2.79.45.56-.37 1.23-.05 1.94.51.7.48 2.3 1.38 2.52 1 2.29 1.77-.86 2.56-1a1.58 1.58 0 001.11-1.24c.52-.89.72.34.36.77-1.56 2.33.23 1.85-1 4.08zm-.17 11.57c.45 0 .47 0 .42-.48l-.42.48zm2.14-8.7c-3-2.18-.52 5.74.38 6.63 5.16-1.41 10.45-1.31 15.52-3.32 1.52-.78 5.75-5.32 1.67-3.81-5 4-12.72 5.13-17.57.5zm-.27 8.49c-.49-.23-.78.32-.49.74 3.59-2.23 8.89 1.11 12-1.5.12-.51-.56-.3-.55-.74-.11-.65.52-2-.65-1.14-3.24 1.8-7.31.48-10.34 2.64zm.73-20c.56.67-1.4 1.17-.55 1.95.71 1.32 1.13.66 1.6 1.53.23 0 .34-.62.67-.76.64-.26 4.82-6.92 2.29-4.71-1 1.44-2.17 5.13-3.58 1.81.47-1.28 1.87-2.13 1.28-3.7-.9.13-.6.88-1.5.75-.84.38-.51 2.36-.22 3.13zm-.56-3.83c-.19.1-.16.16 0 .34.16-.14.14-.19 0-.34zm8.4 25.48c-2.77.2-5.46-.77-8.15 0 1.44 1.89 1.73 2 4.11 1.93 3.8 1.08 7.6 1.79 11.29 3 1.78.76 9.49-5.1 6.6-4.64-.84.48-1.91.19-2.68.86 3.59-.07.42 1.39-.42.5.27-.94-1.08-1-1.18-1.84-2.1 2.72-2.71-1-4.69 1-.56-.12-.68.61-1.19.57s-1-.13-1.34.18c-1.75.24-1.74-1.51-2.34-1.6zm11.57-12.85c-3.48-.87-5.27 5.5-15.93 1.42-1.92-.76-4.13-4.31-3.47.1A16.11 16.11 0 0069 82.5c3.29-.84 6.42-3 9.35-4.29zm-17.67 30c.25-.32.77-1.35.09-1.48-.44.13-.76-.64-1.11-.17-.39.75.28 1.48 1 1.65zm2-54c2-2.1-.54-2.23-1.2-1.19-.45.42.39.85 0 1.31-.12.58-1.36 1.4-.32 1.7 1-.22 1.2-1 1.48-1.82zm7 18.1c-1.71-.7-3.18-10.43-4.18-6.62-.19 4.34-8.78 11.66-1.76 13.64 1.8.43 4.77 1.47 6.25.38 1.7-4.35 3.21-3.27-.31-7.4zm-7.91-8.18c-.51-.23-1 .41-.65.89.25-.25.4-.59.65-.89zm-.44 44c0 .32.23.21.43 0-.21-.17-.32-.27-.43 0zm2.31 1.73h.43c0-.21-.28-.16-.43 0zm1-49.39c2.1-2.14 1.25-6 4.78-6.92a3.29 3.29 0 001.36-1.15c-.07-1.27.21-.76.75-1.61 1.85-.88 2.84-2.65 4.9-3.29.92-.05 1-1.68 1.9-1.12-1.36 2.1-3.21 3.25-4.36 5.41-.8.2-.6.83-.6 1.4-.91.64-1.15 1.64-1.92 2.36-.6.85-1.66.94-2.68 1.18-1.31 1.08-2.13 3.94-4 3.76zM67.61 48c-1.08 1.45-2.63 1.51-1.16-.47 1.09-1.2-.12-2.78 1.54-3.87 2.08-1.13 3.31-3.58 5.32-5.25.49 1.37-1.24 2.27-1.57 3.41-.84 2.43-2.84 3.88-4.13 6.18zm2-4.46c-.31 1-3 1.35-1.69 2.66.86-2 2.34-1.19 1.69-2.66zm-1.68 22.78c.29 1.93 1.41 5 4.07 4.06 2.55-.46-.42-1.17-1.25-2.1-1.23-.11-1.82-1.14-2.82-1.96zm28.75 0c-1.52.94-.2 3.82-4.1 4.8a8.51 8.51 0 01-2.15 3.69c-2.76.4-2.52.51-3.26 3.25-3 1.43-1.2 1.64-2.24 3.39-1 1.44-1.71.74-1.23 3.08.13 5.29-5.31.26-6.56 3.53-.33-.42-1.32-.74-.87-1.36-1-.32-1.51-2.14-2.82-1.08-2.28.53-2.14 3 0 1.38.92-1.54 1.1.76.33 1.37-1 .94-2.27 1.28-3.33 2.13-1.56-.53-3.21 1.19-.77 1.08 1.26.33 2.7-2.2 3.73-1.41 1.17 2.57 3-1.71 4.39-1.08.62-.21.16-1.14.88-1.08.5-.08.76-.65 1.32-.7.58.49-2.16 1.94-.42 2.56.63 1.42-.94.15-1.37.6-2 1.55 3.91-.37 3.65-1.2.14-.65.3.46 1.21-.71 1-.33 1.93-1.57 2.9-1.5 2.44-.58 2.55-3.11 4.08-4.67.5-.79 1.37-.26 2.21-1.28 2.17-1.91.42-1.3 1.64-3.14-2.21-.41-.28 3.09-3.38 2.42-1.39.21-2.58 5.68-4.4 2.1-.62-3.34 3.38-3.86 4.82-6 1.2-2.69 1.5-1.29 2.49-2.37-.22-1.24.65-2.06 1.35-2.78.68-.36.36-1.87 1.21-2.28.6-.48.27-1.54.83-2.23 1.24-1 1.71-1.71-.14-.56zm-25.44 43.8c-.95.06-3.91-1.9-2.27.08.81.2 1.55.58 2.27-.08zm-1.07-43.73a.68.68 0 00.88 0 .91.91 0 00-.88 0zm.5-12.15c-.64 1.2 2-1.08 1.92-1.69s1.33-1.77-.12-1.18c-.69.26-.53 1.46-1 1.66-.74.11-.34.86-.79 1.21zm.1 18.05c2.3 3 5.78-1.39 6.52-3.7-.33-.14-1 .63-1.13 1-1.77.98-3.38 2.23-5.39 2.7zm5.2.06c-1.6 2.3-3 4.68-4.69 6.92-.08 2.72 6.25-7.16 6.89-7.78-1-.82-.83-1.52-1.63-.16-.5.1-.12.79-.57 1zm28.33-7.22c-3.71-2.18-4.15-1.65-6.37 1.68-1 .41-.5 1.87-1.2 2.5a2.75 2.75 0 00-.1 3.89c4.6-4 .29 1.31-.34 3-4.69 5.87-1.3 8.54-5.71 12.2-1.09 1-3 .58-4.34.93-.66-.13-.33.71-.79.68-1.23.49-1.06 2.47.47 1.25-.85-.76.36-.54.86-.57s1.41-1.3 2.11-.79a26.37 26.37 0 007.91-7.1c.2-.96 1.2-1.8 1.69-2.5.24-.94.71-2.35 1.7-2.48-.64 4.41-4.35 9.89-8.23 12.68-.66.75-2.08.56-2.41 1.63 0 .34-.37.36-.42 0-.78-.83-1.23 1-1.71 1.12s-.28-.81-.73-.39-1.69.24-1.64 1c.31.58.45-1 1.26-.35.13.24-.55.81.22.67.79.07-.16 1-.46.65-.47-.45-.84 0-1.09.37-.69-.09-.34-1.23-1-1-2.61 2.45-6.51 2.56-9.33 3.32-.42-.58-.73.12-1.19-.19-4.49 5.45 1.63 3.48 3.85 6.62.47 2 1.87 2.59 3.27 1 1.57-1.34 3.6-2.41 5-3.92 5.86-3.43 10.42-9.41 16.94-10.74 2.47.84-.65-5.87 1-9-.48-3.58 5.23-15.41.74-16.2zm-27.78-2.6a.24.24 0 00-.4-.15c-.18 2.29-3.17 2-3.7 4.06 1.39.25 2.06-1.88 3.72-2.1.28.65-.67 1.22-1.09 1.6-2.08 2.49 2.47.25 2.88 1.46.17.77-.24 1.81.22 2.43-.06-.61.6-1.77 1-.88 1.57-2.51-1.36-4.58-2.67-6.42zm-2.66-12c-.35-.1-.43 0-.56.37.36.11.53 0 .55-.37zM74.14 69c.29 0 .75.14.71-.28s-.58-.23-.71.28zm5.3 8c2.7.2 1.37-4.81.34-5.87-1.11 2.67-4.91 5-5.61 7.66A14.72 14.72 0 0179.44 77zm.91 4.86c-.65-1.73 1.43-3.21-3.95 1.77-1.38.42-.7 1.26 0 2a39.68 39.68 0 013.91-3.73zm-1.47-27.08C78.36 56.52 74.44 57.2 77 58c2.83-.28 4.08-10.42 1.9-3.22zm-.36 8.68c.09.26.11.28.47.17-.54-1.3-1.4-3.19-2.73-1.76.8.56 1.87.63 2.26 1.59zM81 42.75c-1.2-.3-4.54 0-4.11 1.69 1.63-.18.95-.59 1.61-1.32 1.23.45 1.29.28 2.5-.37zm-3.92 10.14c.15.94 1.67-.19 1.22-.78-.41-.28-1.18.26-1.21.78zm5.45 30.91c1.5-3-5.7.52-1.87 1.88 1.14.75 1.94-.84 1.87-1.88zM80.91 61c-.6 1.35-1.55 1-.74 0 1.16-1.27.84-3.65 1.8-5.05.78-1.18 1.86 0 2.6-1.93.85.35 1.78-1.09 2.58-.82-.3 1.57-1.37 1.35-1.59 2.3-.56 2.17-2.87 3.99-4.65 5.5zm2.18-4.48c-.42 1.37 2.56-.72 1.73-1.45-.3.78-1.23.86-1.73 1.45zm6.12 22.74a.71.71 0 00-.59 1.22c.45.36 1.62-1.48.59-1.26zm1.22 28.93c-.84-.29.94-.93-.12-1.21-.6-.26-.69 1.14-1.17.63-.87-.86-.21.45-.31.9.38 0 2.3.44 1.6-.32zm-1.62-21.7c1.12 1.3 3.16-2.6 2.94-3.57-1.31-.92-2.75 2.33-2.94 3.57zm.19-51c.33.15.64-.08.4-.36-.24.02-.31.12-.4.36zm.61 15.77c.46.25.57-.37.31-.69a1.59 1.59 0 00-.31.69zm0-16.53c-.13.42.61.34.31-.25a1.76 1.76 0 00-.31.25zm3.68 41.66c1.16-1.6-.5-2-1.1.29-1 1.34-3.85 2.16-.56 2.73a6.22 6.22 0 011.66-3zm-1.6-19.26c1.12-1.24 1.92-1.28-.12-1.8-1.34 1-2 2 .12 1.8zm12.31-9.2c.5-1.69-2.18 1.39-1.56 2.69-.56 3-2 1-2.54 2.47-1 1.75-.87 4-2.27 5.59-.06.38-.55.21-.81.25-.59 1.23-3.32 2.25-2.28-.07-.13-.69.48-.77.73-1.28A4.31 4.31 0 0096.8 56c-.54-1.43 2.44-8.3.29-5.47-.29 1.53-1.31 2.56-.9 4-1.06 2.19-2.87 1.81-3.61 2.85-2.35 1.84 1 3.86 1.68 6 .79 1.15 1.55-1.5 2.47-.92 4-4.21 1.89-4.72 4.37-8.1.8 0 1.06-1.31 1.34-1.9.79-1.48.19-3.34 1.57-4.59zm-8.87 29.36c0-.88-1.43.38-.81.51a2.53 2.53 0 00.81-.51zm2-13.54c-2.4-.11-2.5 2.44-2.23 4.36.45-2.64 1.73-2.73 3.58-4.38-.23-.73-.9.08-1.34.02zm-1.25-5.28c-.63-.25-.55.37-.34.7.13-.26.22-.47.34-.7zm-.45-13c.09.21.15.13.31-.07-.13-.14-.26-.13-.3.03zm.73-.45c-.21-.09-.21-.09-.36 0 .12.15.23.15.36 0zm1.72 11.84c-.61-.61-1.91 1-1.8 1.45.88-.17 1.7-.43 1.8-1.45zm6.23-19.22c.62-1.55 1.7-.78.87.54-.17 1.44-2.23 2-2 3.55 0 1.27-1.29 1.81-2.28 2.22-1.48 1-1.88 3.23-3.58 3.75-.92-.19.61-1.44.68-2 .39-2 1-2.95 2.76-3.69.85-.35.08-1.56.71-2.13.08-.45.41-.32.78-.34a6.53 6.53 0 002-1.9zm-5.05 24.65c.72 0 0-.4-.23-.63 1.69-3.07-.32-.24-1.16.84.62.34.86-.21 1.39-.21zm.46-18.07a.39.39 0 00.26-.43c-1.11-.42-1.46 1.57-.26.43zm.54 15.1c-.18.13-.18.24 0 .36.15-.1.15-.21 0-.36zm.54-1.42c-.16.1-.13.38.06.32s.09-.21-.06-.33zm1.4-15.52c.35-.65-.07-1.31.4-2-1.66 0 .11 2.18-1.68 2.52-.79.72 1.27.08 1.28-.53zm-.59 19.41c-.4-.14-.49.46-.26.7.32 0 .64-.57.26-.7zm2.59-31.7c.22-.2.22-.21 0-.32a.22.22 0 000 .32z" fill="#6755aa"/></svg>