<svg xmlns="http://www.w3.org/2000/svg" width="165.399" height="163.277"><path data-name="Tracé 307" d="M22.055 75.702c0-50.891 20.78-75.7 67.855-75.7 35.412 0 56.4 13.146 56.4 36.473 0 30.111-37.32 35.836-66.8 47.074 2.332-.212 4.24-.424 6.149-.424 35.2 0 57.464 17.176 57.464 56.828v18.021h22.266v5.3H-.011v-5.3h22.055zm27.142 21.2c3.816-7 12.935-11.663 26.93-17.387 27.354-11.023 64.459-16.541 64.459-43.041 0-22.266-22.052-30.747-50.254-30.747-33.718 0-41.138 17.387-41.138 69.976zm66.789 61.072v-21.2c0-38.806-6.573-48.348-33.928-48.348-22.9 0-32.867 8.906-32.867 36.685v32.863z"/></svg>