<svg id="Calque_1" data-name="Calque 1" xmlns="http://www.w3.org/2000/svg" viewBox="0 0 138.53 138.53"><defs><style>.cls-1{fill:#f79d65}</style></defs><path class="cls-1" d="M61 52.24l-2.33-.36c-2.24-.34-9.36-.74-11.41-.85a13.1 13.1 0 01-3.98-.03c-.35-.11-.94-1.72.14-1.65a18.7 18.7 0 012.58.4c1.11.25 6.45.3 7.35.46.56.1 2.69.22 3.25.29s1.16.06 1.73.15c.89.13 1.78.29 2.67.47s.73-.12.94-.4a12 12 0 011.23-1.43c1-1 2.33-1.82 3.12-3.14a12.91 12.91 0 011.36-1.71c1-1.18 2-2.38 3.08-3.53a22.74 22.74 0 012.59-2.51 17.58 17.58 0 012.94-1.86 4.88 4.88 0 013.07-.28 1.79 1.79 0 00.51 0c.31 0 .39.1.33.37a.88.88 0 01-.67.8 1.91 1.91 0 01-1.06 0 2.21 2.21 0 00-1.92.12A14.5 14.5 0 0073 40.22c-1.22 1.34-2.4 2.72-3.57 4.11-.85 1-1.62 2.06-2.49 3.05-.58.65-1.27 1.2-1.9 1.8s-1 1-1.49 1.47a3.8 3.8 0 00-.43.73c.42.09.77.19 1.13.24.52.08.69.29.57.81-.22.94-.48 1.87-.65 2.82-.09.52 0 1.08-.06 1.62-.13 1-.64 5.43-.63 6.17a13.82 13.82 0 00.19 2.88 23 23 0 001.17 3.25 4.2 4.2 0 00.7 1c.87 1.08 1.82 2.1 2.64 3.21a16.79 16.79 0 012.35 3.81c.11.27.13.58.25.83a6 6 0 01.55 1.98c.22 2.14.53 4.27.6 6.42a16.72 16.72 0 01-.55 3.68 46.49 46.49 0 01-2.14 5.85 18.16 18.16 0 01-2.42 4.46 5.5 5.5 0 01-1.56 1.82 9.61 9.61 0 00-2.16 2 3.49 3.49 0 00-1 3c.25 1.66.48 3.31.72 5a2.8 2.8 0 00.09.31c.15.41 0 .61-.29.94a7 7 0 01-.53.56 4.37 4.37 0 01-3.78.96c-1-.15-2-.49-3.08-.62-1.35-.17-2.72-.23-4.08-.3-.91 0-1.83-.06-2.75 0a7 7 0 00-1.42.23c-.27.07-.91 0-1.08-.2a.87.87 0 01-.13-.53 15.09 15.09 0 00.17-1.88c-.14-1.92-.27-3.84-.55-5.74a10 10 0 00-.93-2.65 10.75 10.75 0 00-1.91-3.14c-.59-.61-1.19-1.21-1.76-1.84a14.71 14.71 0 01-3.2-4.93 40.91 40.91 0 01-1.28-4.17c-.39-1.61-.6-3.26-.93-4.88a16.16 16.16 0 010-4.11 12.21 12.21 0 011.2-4.63c.42-.91.81-1.84 1.29-2.73S39 71 39.52 70.1c.45-.73.94-1.45 1.36-2.19.25-.45.38-1 .59-1.43a13.78 13.78 0 001.18-4.35c.13-1.32.13-2.49.2-3.81a5.12 5.12 0 010-.56 15.36 15.36 0 00.15-4.54.58.58 0 01.45-.72.55.55 0 01.77.35c.13.4.22.82.31 1.23.29 1.32-.32 3.91-.35 4.72s0 1.85-.09 2.78a16.53 16.53 0 01-1.38 5.55 42.09 42.09 0 01-2.57 4.71 32.73 32.73 0 00-1.83 3.65 23.32 23.32 0 00-1.09 2.81 11 11 0 00-.39 2.22 16 16 0 00-.06 2.59c.1 1.22.29 2.44.51 3.66a29.26 29.26 0 00.8 3.6 19.14 19.14 0 002.08 5.09 22.69 22.69 0 001.47 1.92 25.38 25.38 0 002 2.18 7.44 7.44 0 011.53 2A13.28 13.28 0 0147 106.5c.07.74.14 1.49.22 2.24s.2 1.6.26 2.4v1.69h1.42c1.23 0 2.46 0 3.69.07s2.36.28 3.54.45a29.92 29.92 0 003.09.46 4.06 4.06 0 001.5-.56 1.45 1.45 0 00.26-.17.87.87 0 00.4-1c-.28-1.4-.53-2.81-.7-4.23-.15-1.19-.39-2.46.36-3.53a10.75 10.75 0 012-2.25 13.46 13.46 0 003-3.29 21.51 21.51 0 002.06-4.3q.48-1.26 1-2.52a19.07 19.07 0 001.15-4.53 14.78 14.78 0 00-.1-4.2c-.13-1-.17-2-.39-3A10.77 10.77 0 0068 75.9c-.7-.94-1.46-1.84-2.18-2.76-.33-.43-.61-.91-1-1.33a15.87 15.87 0 01-1.39-1.58 15.4 15.4 0 01-1-2.15c-.18-.44-.28-.91-.46-1.35a6.27 6.27 0 01-.4-2.77 24 24 0 01.55-5.41 12.51 12.51 0 00.22-2.55 12.48 12.48 0 01.38-1.69c.1-.45.34-1.1.39-1.55 0-.13-.64-.31-.7-.19-.72 1.11-2.58 4.1-2.75 4.42-.33.64-.66 1.29-1 1.94a4.87 4.87 0 00-.47 1.16c-.15.69-.19 1.41-.29 2.11-.07.46-.16.91-.26 1.37-.19.86-.4 1.73-.59 2.59s-.34 1.49-.49 2.24c-.21 1-.39 2-.6 3.06s-.44 2.12-.69 3.16c-.19.8-.43 1.58-.64 2.36l-1.33 4.89c-.21.78-.43 1.56-.63 2.35-.07.3-.08.63-.13.94-.14.82-.29 1.64-.42 2.46a5.89 5.89 0 00-.09 1 22.17 22.17 0 01-.66 3.62c-.12.75-.2 1.5-.32 2.24a24.13 24.13 0 01-.46 2.54 14.13 14.13 0 00-.24 4.15c0 .92 0 1.84.07 2.75.12 1.11.33 2.22.56 3.31.16.74.44 1.29.65 2s.31 1.17.46 1.76 0 .8-.5 1a.73.73 0 01-.91-.59c-.5-1.66-1-3.16-1.46-4.83a19.94 19.94 0 01-.47-4.42c0-.89-.12-1.77-.15-2.66a5.83 5.83 0 01.09-1.1c.27-1.72.55-3.43.84-5.14.15-.86.37-1.7.5-2.56s.22-1.79.35-2.69c.17-1.2.33-2.41.56-3.6s.56-2.64.9-4c.22-.84.55-1.65.79-2.48s.53-1.92.78-2.88c.3-1.12.61-2.24.87-3.37.17-.75.28-1.51.42-2.27.2-1.13.41-2.26.62-3.39.16-.85.7-3 .74-3.26.12-.7.24-1.41.29-2.12a13.12 13.12 0 011.71-3.89c.25-.57 1.87-2.86 2.32-3.56.07-.12.43-.74.57-1zm21.3 62.15a1.33 1.33 0 00.93.78l.49.15a14 14 0 002.08.59 11.52 11.52 0 004.48-.44 4.26 4.26 0 00.93-.32q2.47-1.2 4.93-2.44a5.35 5.35 0 002.06-1.44 7.85 7.85 0 001.23-2.64 2.46 2.46 0 000-1.29 9 9 0 00-1.84-3.53 11.07 11.07 0 00-2.17-2.1A17.55 17.55 0 0092 100a12 12 0 00-1.89-.71 1.86 1.86 0 01-1.63-2.2 3 3 0 012-2.6c.42-.14.83-.29 1.25-.42a1.92 1.92 0 001.1-.85c.09-.15.17-.49.11-.54-.78-.77-2.64.61-3.57 1.16A6.36 6.36 0 0087 95.67c-.27.43-.11 2-.16 2s-.45-.22-.62-.33a3.28 3.28 0 00-1.47-.41c-.88-.1-1.74-.35-2.61-.4a9.78 9.78 0 00-5.65 1 19 19 0 00-2.82 1.84 25.67 25.67 0 00-2.29 2.48 3 3 0 00-.81 1.39c-.08.35-.14.7-.25 1a4.19 4.19 0 00-.26 2.31c.37 1.33.85 2.64 1.29 4a2.2 2.2 0 00.3.51 9.37 9.37 0 002.57 2.21c.38.24.84.35 1.23.57a7.27 7.27 0 003.47.88 1.33 1.33 0 00.67-.19c.67-.43 2-1.43 2.06-1.39s.45.81.62 1.24zm1.87-16.21a9.66 9.66 0 011.23.63c.47.35-.11 1.3.24 1.35 1.19.24 1 .11 1.48-.59 0-.06.16.08.22.14a3.45 3.45 0 001.83.85 10.5 10.5 0 011.91.78c1 .51 2 1 3 1.61a5.35 5.35 0 011.45 1.27 24.91 24.91 0 011.85 2.71 2.9 2.9 0 01.14 2.85c-.25.54-.33 1.17-.87 1.53a8 8 0 01-1.08.58c-.75.37-1.5.73-2.24 1.11a12.79 12.79 0 01-5.94 1.7 6.72 6.72 0 01-3.17-.93c-.28-.15-.4-.6-.6-.91a7.48 7.48 0 00-.83-1.29 1.46 1.46 0 00-2.06.09.72.72 0 00-.13.28 1.73 1.73 0 01-2.51 1.31 12.44 12.44 0 01-4-2.32 3.84 3.84 0 01-1.15-1.68 18.6 18.6 0 00-.68-2 4 4 0 01-.13-3.09 4.5 4.5 0 00.15-.73 3 3 0 01.84-1.64c.74-.69 1.36-1.53 2.15-2.16a7.76 7.76 0 014.69-1.78 32.79 32.79 0 013.28.19 3.8 3.8 0 011 .16zm-1.7 5.93a12 12 0 00-1.34.19 2.36 2.36 0 00-1.82 1.8.78.78 0 00.16.64c.09.1.39 0 .58 0a1.52 1.52 0 00.52-.17c.3-.2.82-.51.85-.66s-.28-.43-.24-.51 2-.77 1.92-1.21c0-.07-.43-.12-.63-.1zm17.68-80.9A3.52 3.52 0 0097 21.83a11.74 11.74 0 00-2.77.56 39 39 0 01-5 1.23c-1 .21-2.12.34-3.16.6A8.3 8.3 0 0081.29 28 17 17 0 0080 30.56a4.93 4.93 0 00-.07 3.88 1.12 1.12 0 00.64.66 3.93 3.93 0 002 .18c.39 0 .58-.13 1 .4a.77.77 0 00.23.21 11.92 11.92 0 001.16.5c.84.31 1.71.56 2.55.89a6.93 6.93 0 004.79.09c1.66-.53 3.29-1.17 4.9-1.84 1-.41 1.9-1 2.86-1.47a4.87 4.87 0 002.8-3.13 11 11 0 00.52-2.07A4.3 4.3 0 00102 26a1 1 0 00-1.41-.23 7.62 7.62 0 00-.48-2.51zm-18.42 7.88a18 18 0 011.71-3.36A6.21 6.21 0 0187.62 25c1.92-.27 3.8-.72 5.7-1.12.36-.07.7-.25 1.06-.34a19.37 19.37 0 012.35-.54 3 3 0 011.27.2c.3.1.38.36.41.69.06.71.24 1.41.34 2.12a3.59 3.59 0 01-1 3.56 7.67 7.67 0 01-3.35 1.63c-1.65.39-3.28.88-4.91 1.33A34.35 34.35 0 0183.66 34a13.81 13.81 0 00-1.57.23c-.3.05-.43-.07-.47-.33a9.43 9.43 0 01.11-2.8zm6.15 69.71a3.93 3.93 0 00-2.51 1.46 5.34 5.34 0 00-1.31 2.74c-.09.38-.23.73-.35 1.1-.21.69-.45 1.38-.64 2.08a11.2 11.2 0 00-.23 1.31 3.75 3.75 0 000 .67.37.37 0 00.52.37 4 4 0 001-.62.94.94 0 00.19-.5c.16-.89.25-1.8.48-2.68s.62-1.77.9-2.66a3.51 3.51 0 011.69-2.3c.33-.17.79-.67.6-.93-.08-.09-.28 0-.34 0zm13.53-71.53a19.43 19.43 0 01-.69 2.12 2.92 2.92 0 01-1.15 1.32 26.88 26.88 0 01-5.44 2.66 25.18 25.18 0 01-2.7.91 4.64 4.64 0 01-2.71-.08l-3.3-1c-.1 0-.31-.11-.31-.23s.72-.09 1.06-.17c.69-.18 1.38-.38 2.07-.59.89-.27 1.78-.58 2.69-.83s2.09-.57 3.14-.81A12.73 12.73 0 0098.31 31a5.43 5.43 0 002.07-2.05 8.65 8.65 0 00.46-1.77c.26.68.79 1.32.58 2.15zm-14.72 77.41a3.44 3.44 0 00-.94 1.45 1.22 1.22 0 00.39.92 2 2 0 002.85-.3 1 1 0 00.16-.51 2.06 2.06 0 00-1.87-1.8 1.32 1.32 0 00-.59.24z"/><path class="cls-1" d="M82.8 117.24l-1-2.65c-.09-.21-.2-.49-.29-.71l-.57.41c-.37.26-.75.54-1 .72a1.54 1.54 0 01-1 .26 7.78 7.78 0 01-3.72-.94c-.17-.09-.34-.16-.51-.23a5 5 0 01-.74-.35 10.06 10.06 0 01-2.72-2.34 2.39 2.39 0 01-.37-.67l-.31-.89c-.35-1-.71-2-1-3.1a4.71 4.71 0 01.27-2.61c.08-.25.13-.52.19-.78v-.22a3.57 3.57 0 01.94-1.63l.63-.73A16.08 16.08 0 0173.31 99a19 19 0 012.78-1.83l.12-.07a10.39 10.39 0 016-1.09 11.41 11.41 0 011.57.23c.35.07.71.14 1.07.18a4 4 0 011.49.37 2.72 2.72 0 01.25-1.39 5.9 5.9 0 012.26-1.84l.34-.2c.13-.08.29-.17.45-.28 1.18-.73 2.79-1.75 3.77-.8.44.38 0 1.19 0 1.2a2.39 2.39 0 01-1.4 1.09l-.82.27-.49.16a2.5 2.5 0 00-1.7 2.13 1.33 1.33 0 001.21 1.6 8 8 0 011.47.52l.51.22a19 19 0 013.53 1.79 11.17 11.17 0 012.28 2.2 9.56 9.56 0 012 3.75 3 3 0 010 1.57 8.51 8.51 0 01-1.32 2.81 5.34 5.34 0 01-2.07 1.51l-.18.09c-1.64.83-3.28 1.64-4.93 2.45a6 6 0 01-1 .36 12.5 12.5 0 01-4.68.45 9.4 9.4 0 01-1.54-.41l-.62-.2-.51-.16-.22-.08zm-1-5.52l1 2.47c.09.23.24.35.6.47l.47.15q.33.09.66.21a8 8 0 001.35.36 11.31 11.31 0 004.27-.43 3.81 3.81 0 00.83-.28l.4-.19a11.54 11.54 0 01-4 .76 7.42 7.42 0 01-3.41-1 1.67 1.67 0 01-.66-.82c0-.1-.09-.19-.14-.28l-.26-.43a4.21 4.21 0 00-.51-.78.7.7 0 00-.57-.21zM75 99.05a9.56 9.56 0 00-1 .75 15 15 0 00-1.59 1.68l-.65.75a2.53 2.53 0 00-.69 1.14v.21a6.66 6.66 0 01-.22.88 3.73 3.73 0 00-.25 2c.28 1 .64 2 1 3l.3.89a1.76 1.76 0 00.22.37 9.07 9.07 0 002.43 2.08 4.17 4.17 0 00.57.26 6 6 0 01.63.29 6.8 6.8 0 003.22.81.82.82 0 00.37-.1c.12-.08.26-.17.4-.28a2.37 2.37 0 01-1.84-.07 12.84 12.84 0 01-4.21-2.43 4.34 4.34 0 01-1.29-1.91v-.13a19.12 19.12 0 00-.62-1.85 4.43 4.43 0 01-.14-3.49 1.53 1.53 0 00.07-.36l.06-.3a3.5 3.5 0 011-1.91c.29-.27.57-.57.84-.87a13 13 0 011.35-1.32zm8 12l.14.13a5.11 5.11 0 01.66 1c.08.13.15.27.23.39l.2.37a1.65 1.65 0 00.2.36 6.28 6.28 0 002.91.86 12.42 12.42 0 005.66-1.63c.46-.25.94-.48 1.41-.71l1.09-.53a7.15 7.15 0 00.77-.42 1.53 1.53 0 00.49-.82 4.34 4.34 0 01.2-.5 2.36 2.36 0 00-.12-2.34 23.63 23.63 0 00-1.81-2.66 4.85 4.85 0 00-1.31-1.14c-1-.59-2-1.1-3-1.58a9 9 0 00-1.8-.74l-.2-.06a.8.8 0 010 .15 1.85 1.85 0 01-.91 1 3 3 0 00-1.41 2c-.12.37-.26.74-.39 1.11s-.37 1-.51 1.53c-.06.23-.11.47-.15.71a3.9 3.9 0 011-1.32 1.77 1.77 0 011-.33 2.55 2.55 0 012.34 2.3 1.35 1.35 0 01-.25.84 2.38 2.38 0 01-1.8 1 2.24 2.24 0 01-1.88-.64 2 2 0 01-.51-.91l-.15.94a1.31 1.31 0 01-.39.82 4.65 4.65 0 01-1.15.7 1 1 0 01-.56.14zm-1.29.66a.92.92 0 00-.62.28 3 3 0 01-.6 1.24c.73-.53 1-.68 1.22-.63zm-1.55-13.36h-.27a7.2 7.2 0 00-4.36 1.65 11.66 11.66 0 00-1.23 1.21c-.29.32-.58.63-.89.93a2.4 2.4 0 00-.68 1.35 1.85 1.85 0 000 .23 3.73 3.73 0 01-.13.59 3.32 3.32 0 00.12 2.68 18.06 18.06 0 01.66 2v.13a3.29 3.29 0 001 1.44 11.8 11.8 0 003.88 2.21 1.34 1.34 0 001.12 0 1.43 1.43 0 00.66-1 1.19 1.19 0 01.25-.51 2 2 0 011.48-.66 2.54 2.54 0 01.74.12 1 1 0 01-.23-.61 3.94 3.94 0 010-.77v-.16a11.75 11.75 0 01.22-1.21c.14-.51.3-1 .46-1.52l.32-1c.08-.22.15-.44.21-.67a5.82 5.82 0 011.45-3 9.36 9.36 0 011.26-1.07 5.54 5.54 0 01-.76-.11h-.2l-.21-.21a1.08 1.08 0 01-.1-.84 1.48 1.48 0 000-.4 7.93 7.93 0 00-.83-.4l-.31-.15a4.76 4.76 0 00-.75-.11l-.94-.07c-.59-.01-1.27-.07-1.94-.07zm7 .67a.81.81 0 01.58.32 2.93 2.93 0 001.51.68 10.64 10.64 0 012.08.84c1 .48 2 1 3 1.63a5.87 5.87 0 011.6 1.4 26.09 26.09 0 011.89 2.77A3.42 3.42 0 0198 110c-.06.13-.11.27-.16.41a3.44 3.44 0 01-.47.94 2.5 2.5 0 00.39-.41 7.67 7.67 0 001.15-2.47 1.87 1.87 0 000-1 8.36 8.36 0 00-1.73-3.33 9.89 9.89 0 00-2.06-2 17.15 17.15 0 00-3.33-1.69l-.54-.23a6 6 0 00-1.25-.43A2.4 2.4 0 0188 97a3.63 3.63 0 011.49-2.58h-.1a5.21 5.21 0 00-1.88 1.47 5.26 5.26 0 00-.08 1.33c0 .43 0 .65-.22.83-.27.34-.78 0-1.14-.24a2.79 2.79 0 00-1.34-.39c-.38 0-.76-.12-1.14-.19a9.5 9.5 0 00-1.43-.21 9.39 9.39 0 00-5.3.91 8.09 8.09 0 013.07-.7 24 24 0 012.4.12l.93.07a4.27 4.27 0 011.12.2l.34.17a6.46 6.46 0 011 .52 1.31 1.31 0 01.4 1.34 1.41 1.41 0 00.31 0s0-.08.06-.14.12-.2.2-.32l.14-.2.17.01zm-.77 3.07c-.2.16-.38.35-.57.53a4.85 4.85 0 00-1.19 2.49 7.75 7.75 0 01-.24.78l-.3.94c-.16.49-.32 1-.45 1.47a9.36 9.36 0 00-.19 1.08v.17a2.23 2.23 0 000 .37 5.16 5.16 0 00.67-.45c-.06 0 0-.1 0-.17.06-.31.11-.61.16-.92a17.37 17.37 0 01.34-1.81c.15-.55.34-1.08.54-1.62.13-.36.26-.71.37-1.06a4.89 4.89 0 01.81-1.8zm.66 5a3.3 3.3 0 00-.73 1.13 1 1 0 00.26.43 1.29 1.29 0 001 .31 1.3 1.3 0 001-.53.44.44 0 00.08-.2 1.53 1.53 0 00-1.34-1.23 1.07 1.07 0 00-.29.14zm1.09-5.81zm-.88-1zm-1.54-.73zM92.36 93a6.19 6.19 0 00-2.2 1l-.23.14a4.08 4.08 0 01.42-.17l.41-.14.84-.29a1.36 1.36 0 00.77-.55zm-33.24 22.63a5.51 5.51 0 01-.89-.07c-.5-.07-1-.19-1.5-.3a12.1 12.1 0 00-1.57-.31c-1.23-.16-2.51-.22-3.74-.29h-.3c-.89-.05-1.8-.06-2.7 0a6.67 6.67 0 00-1.31.23c-.3.07-1.26.11-1.64-.41a1.38 1.38 0 01-.23-.88c0-.25 0-.5.08-.75a5.65 5.65 0 00.08-1.06c-.15-2.12-.28-3.89-.55-5.7a9.76 9.76 0 00-.87-2.51 10.67 10.67 0 00-1.82-3l-.38-.39c-.47-.48-.94-1-1.39-1.46a15.36 15.36 0 01-3.3-5.11c-.47-1.34-1-2.78-1.31-4.23-.23-1-.41-2-.58-2.95-.11-.65-.22-1.3-.35-1.94a12.6 12.6 0 01-.09-3.5v-.79a12.68 12.68 0 011.25-4.83l.33-.72c.31-.69.62-1.37 1-2s.81-1.4 1.24-2.08l.46-.74c.16-.25.32-.51.49-.76.3-.46.59-.93.86-1.41a5.25 5.25 0 00.33-.77c.08-.2.15-.41.24-.61a13.21 13.21 0 001.13-4.18c.09-.91.12-1.75.15-2.62l.05-1.17a3.17 3.17 0 010-.63 15.63 15.63 0 00.12-4.31 1.11 1.11 0 01.88-1.38 1.06 1.06 0 011.43.69 8.63 8.63 0 01.28 1.1v.17a12 12 0 01-.19 3.79 9.55 9.55 0 00-.14 1.07v1c0 .6 0 1.2-.07 1.8a17 17 0 01-1.42 5.73 44.94 44.94 0 01-2.6 4.77 31.67 31.67 0 00-1.69 3.34l-.11.25a21.35 21.35 0 00-1.06 2.75 10.53 10.53 0 00-.37 2.11 14.78 14.78 0 00-.06 2.49c.09 1 .24 2.16.5 3.61v.18a29.16 29.16 0 00.75 3.36l.11.34a17.34 17.34 0 001.91 4.62A21.49 21.49 0 0042 97l.17.21A22.92 22.92 0 0044 99.16a8.28 8.28 0 011.64 2.16l.13.25a13.29 13.29 0 011.77 4.88v.29c.06.65.12 1.3.19 2 0 .29.07.59.11.89.06.51.12 1 .16 1.52s0 .77 0 1.18h2.64a1.47 1.47 0 01-.48-.74c-.18-.63-.38-1.23-.56-1.82-.32-1-.63-2-.91-3a21.21 21.21 0 01-.48-4.53c0-.46 0-.92-.08-1.37s-.06-.86-.07-1.29a5.89 5.89 0 01.1-1.2c.27-1.72.55-3.44.84-5.15.07-.41.15-.81.24-1.21s.19-.9.26-1.35.15-1 .2-1.54l.15-1.13.09-.65c.14-1 .28-2 .47-3 .23-1.22.53-2.52.91-4 .13-.5.29-1 .46-1.46s.23-.69.33-1c.24-.79.45-1.6.66-2.4l.3-1.12c.24-.9.48-1.79.69-2.69.11-.49.19-1 .27-1.48l.27-1.48c.16-.9.32-1.79.49-2.68.1-.52.34-1.54.53-2.31.11-.47.2-.85.21-.94v-.24c.1-.6.2-1.22.24-1.82a10.2 10.2 0 011.4-3.44 5.62 5.62 0 00.36-.63A27 27 0 0159.24 54c.29-.42.54-.79.68-1 0 0 .09-.15.17-.29l-1.54-.24c-2.17-.32-9.1-.73-11.36-.84a12.77 12.77 0 01-4.07-.09 1.84 1.84 0 01-.83-1.85 1 1 0 011.17-.85 17 17 0 012.66.41c.57.12 2.59.2 4.21.27 1.44.06 2.68.11 3.12.18.29 0 1.17.12 1.87.17s1.11.08 1.35.11l.76.07c.33 0 .65 0 1 .09q1.35.2 2.7.48a1 1 0 00.3 0 .43.43 0 01.1-.24 13.3 13.3 0 011.28-1.5c.34-.33.7-.63 1.06-.94a8.65 8.65 0 002-2.09 10.07 10.07 0 011.09-1.4l1-1.11c.81-1 1.62-1.9 2.47-2.82A24.59 24.59 0 0173 37.94 18.24 18.24 0 0176 36a5.48 5.48 0 013.41-.33h.36a.81.81 0 01.75.23.86.86 0 01.17.78A1.36 1.36 0 0179.6 38a2.27 2.27 0 01-1.34 0 1.67 1.67 0 00-1.47.07 14.13 14.13 0 00-3.41 2.58c-1.22 1.34-2.43 2.76-3.56 4.09-.36.43-.71.87-1.06 1.31-.47.59-.94 1.18-1.44 1.75A13.61 13.61 0 0166 49c-.22.2-.44.39-.65.6-.5.47-1 1-1.47 1.45l.38.07a1.27 1.27 0 01.9.47 1.29 1.29 0 01.13 1l-.24 1c-.15.61-.3 1.21-.41 1.83a5 5 0 000 .78 5.44 5.44 0 010 .81C64.45 58.36 64 62.38 64 63v.48a10.79 10.79 0 00.18 2.29 17.66 17.66 0 00.94 2.67l.2.49a3.54 3.54 0 00.54.78c.38.47.7.84 1 1.22.58.67 1.17 1.37 1.71 2.11l.34.47A14.18 14.18 0 0171 77a3.45 3.45 0 01.12.43 1.4 1.4 0 00.11.36 6.46 6.46 0 01.61 2.1l.16 1.63c.19 1.58.38 3.21.43 4.83a13.69 13.69 0 01-.43 3.19l-.13.62a20.9 20.9 0 01-1.36 3.9c-.28.67-.56 1.34-.81 2a18.67 18.67 0 01-2.48 4.6c-.1.13-.19.27-.28.41a4.5 4.5 0 01-1.46 1.56 6.58 6.58 0 00-1.6 1.44c-.14.16-.28.32-.43.47a2.94 2.94 0 00-.86 2.53l.48 3.33.23 1.64a1.21 1.21 0 000 .14 1.35 1.35 0 01-.37 1.53 5.48 5.48 0 01-.58.6 4.72 4.72 0 01-3.23 1.32zm-9.73-2.11h2.09c1.25.06 2.55.13 3.82.29a15 15 0 011.67.33c.47.11.94.22 1.42.29a3.79 3.79 0 003.32-1 6 6 0 00.5-.51c.24-.27.24-.27.18-.42a3 3 0 01-.11-.39l-.23-1.64c-.16-1.11-.32-2.22-.49-3.33a4 4 0 011.15-3.43l.41-.45a7.57 7.57 0 011.88-1.55 3.66 3.66 0 001.08-1.21l.3-.45a17.26 17.26 0 002.35-4.33c.25-.7.54-1.39.83-2.08a19.37 19.37 0 001.29-3.7l.14-.63a12.51 12.51 0 00.4-2.93c0-1.57-.24-3.18-.42-4.73L70.79 80a5.08 5.08 0 00-.51-1.75 3 3 0 01-.19-.58 1.67 1.67 0 00-.08-.3 13.42 13.42 0 00-1.94-3.2l-.35-.48c-.51-.7-1.1-1.38-1.66-2-.32-.38-.65-.76-1-1.15a4.41 4.41 0 01-.77-1.14l-.21-.49a19 19 0 01-1-2.84 10.76 10.76 0 01-.2-2.53v-.46c0-.83.55-5.56.64-6.25a5 5 0 000-.67 5.5 5.5 0 010-1c.12-.64.27-1.27.43-1.9.08-.31.15-.62.22-.94a.5.5 0 000-.14h-.15c-.26 0-.52-.1-.81-.16l-1.07-.24.36-.64c0-.08.09-.16.13-.24a2.51 2.51 0 01.37-.59c.49-.51 1-1 1.52-1.49l.68-.62a14.49 14.49 0 001.32-1.2c.48-.55.94-1.13 1.4-1.71s.71-.87 1.08-1.29c1.14-1.35 2.36-2.77 3.6-4.13a13.79 13.79 0 012.7-2.2 15.64 15.64 0 00-1.64 1.13 23.39 23.39 0 00-2.53 2.46c-.84.9-1.64 1.84-2.44 2.78l-1 1.12a7.81 7.81 0 00-1 1.25 9.72 9.72 0 01-2.2 2.35c-.34.29-.69.58-1 .89A11.07 11.07 0 0062.38 51a1.09 1.09 0 01-1.2.66l.67.81.11-.16c.06-.14.31-.42 1-.21s.7.55.68.75a6.53 6.53 0 01-.26 1.06c-.06.2-.11.39-.15.55s-.09.37-.14.56a6.16 6.16 0 00-.22 1 8.62 8.62 0 000 .88 5.88 5.88 0 01-.15 1.75 17.91 17.91 0 00-.5 4.37v.91a5.66 5.66 0 00.35 2.54 7.67 7.67 0 01.27.76c.06.2.12.4.2.6l.21.52a9.58 9.58 0 00.7 1.55 5.54 5.54 0 00.76.89c.2.2.4.41.58.63s.38.5.56.76.27.39.42.58c.29.37.58.74.88 1.1.44.55.89 1.1 1.31 1.66a11.49 11.49 0 011.84 4.53 18.74 18.74 0 01.29 2.09c0 .33.06.66.1 1a15.37 15.37 0 01.1 4.35 19.26 19.26 0 01-1.18 4.66c-.34.81-.65 1.63-1 2.45a21.76 21.76 0 01-2.15 4.46 14 14 0 01-3.12 3.42 9.41 9.41 0 00-1.88 2.13 3.88 3.88 0 00-.31 2.87v.28c.16 1.25.38 2.59.7 4.2a1.42 1.42 0 01-.6 1.51 1.7 1.7 0 01-.39.24l-.41.2a2.87 2.87 0 01-1.31.4 14.35 14.35 0 01-2.1-.29l-1-.18-.69-.1c-.92-.14-1.87-.28-2.81-.35s-1.73-.06-2.58-.06h-3.1v-2.19c0-.35-.1-1-.16-1.47 0-.3-.07-.61-.11-.91-.07-.65-.13-1.31-.19-2v-.29a12 12 0 00-1.66-4.48l-.13-.25a6.71 6.71 0 00-1.39-1.74 21.67 21.67 0 01-1.83-2l-.17-.2a21.09 21.09 0 01-1.51-2 19 19 0 01-2.05-4.89l-.1-.34a30.26 30.26 0 01-.78-3.57v-.18c-.26-1.49-.42-2.63-.51-3.71a14.9 14.9 0 01.06-2.68 11.11 11.11 0 01.41-2.33 22.46 22.46 0 011.11-2.88l.11-.24a29.61 29.61 0 011.76-3.46 41.25 41.25 0 002.52-4.65 15.66 15.66 0 001.34-5.37c0-.58.05-1.16.06-1.74v-1c0-.26.07-.69.15-1.2A11.38 11.38 0 0044 54.2V54a8.44 8.44 0 00-.25-1h-.19a16.07 16.07 0 01-.11 4.81 1.67 1.67 0 000 .32v1.31c0 .89-.07 1.75-.16 2.68A14.21 14.21 0 0142 66.7c-.08.18-.14.36-.21.54a7 7 0 01-.4.93c-.28.5-.59 1-.9 1.46l-.47.75-.47.75c-.42.66-.83 1.32-1.21 2s-.64 1.3-.94 2l-.34.74a11.68 11.68 0 00-1.14 4.42l-.05.81a11.63 11.63 0 00.08 3.18c.13.65.24 1.31.35 2 .17 1 .34 1.94.57 2.89.34 1.4.81 2.81 1.27 4.12A14.53 14.53 0 0041.19 98c.44.49.9 1 1.36 1.43l.38.39a11.2 11.2 0 012 3.29 10.43 10.43 0 011 2.81c.29 2 .44 4.09.55 5.77a6 6 0 01-.08 1.29c0 .22-.07.45-.08.67a.26.26 0 000 .17 2.14 2.14 0 00.51 0 7 7 0 011.54-.25zm2.77-1.19h.44c1 .07 1.95.21 2.89.35l.69.11 1.08.18a12.5 12.5 0 002 .27A4.21 4.21 0 0060 113c.16-.09.33-.17.49-.24l.12-.08c.25-.19.26-.26.22-.46-.32-1.64-.55-3-.7-4.28v-.27a4.85 4.85 0 01.49-3.62 10.61 10.61 0 012.11-2.37 12.89 12.89 0 002.89-3.17 21.16 21.16 0 002-4.19c.34-.89.65-1.72 1-2.53a19 19 0 001.11-4.41 14.41 14.41 0 00-.11-4.05c0-.34-.07-.68-.1-1-.07-.68-.14-1.33-.27-2a10.51 10.51 0 00-1.66-4.1c-.41-.56-.84-1.09-1.28-1.63-.3-.37-.6-.74-.89-1.12-.16-.2-.31-.42-.46-.63s-.32-.47-.5-.69-.34-.38-.52-.56a6.29 6.29 0 01-.9-1.08 10.69 10.69 0 01-.8-1.72l-.2-.51c-.08-.22-.16-.45-.23-.67s-.14-.45-.23-.67a6.92 6.92 0 01-.44-3v-.9a18.75 18.75 0 01.54-4.62 5.2 5.2 0 00.11-1.43 8.18 8.18 0 010-1 6.34 6.34 0 01.25-1.24c0-.17.09-.35.13-.52s.08-.31.13-.49c-.87 1.39-2.07 3.32-2.18 3.53l-.14.29c-.28.54-.56 1.09-.83 1.64l-.09.19a3.22 3.22 0 00-.34.84c-.09.43-.14.86-.19 1.29 0 .27-.06.53-.1.8-.07.47-.17.94-.27 1.4s-.25 1.12-.38 1.68l-.34 1.5c-.12.55-.25 1.09-.36 1.65L56.83 70c-.11.55-.21 1.1-.32 1.64-.22 1.06-.44 2.13-.7 3.18-.13.56-.29 1.1-.44 1.66l-1.65 6c-.18.65-.36 1.29-.53 1.94a3.93 3.93 0 00-.06.48c0 .14 0 .29-.06.43l-.18 1c-.08.47-.17.94-.24 1.42a6.11 6.11 0 00-.09 1 10.7 10.7 0 01-.39 2.49c-.1.4-.2.81-.27 1.22s-.11.77-.16 1.15-.1.73-.16 1.09l-.08.55c-.1.67-.21 1.36-.38 2a12.84 12.84 0 00-.24 3.78v1.22a15.54 15.54 0 00.06 1.69 32.6 32.6 0 00.55 3.26 8.19 8.19 0 00.34 1.09c.1.28.21.57.3.88s.24.92.36 1.38l.1.4a1.14 1.14 0 01-.43 1.38zm9.08-59.51c-.16.29-.35.61-.41.69-.14.23-.4.61-.7 1.05A29.05 29.05 0 0058.56 57c-.1.21-.25.46-.42.76a8.87 8.87 0 00-1.27 3 16.08 16.08 0 01-.24 1.86v.23c0 .11-.12.51-.24 1-.18.75-.42 1.75-.51 2.26-.17.88-.33 1.78-.49 2.67l-.29 1.52c-.09.51-.18 1-.3 1.54-.21.91-.45 1.82-.69 2.73l-.3 1.12q-.31 1.22-.66 2.43c-.11.36-.23.72-.36 1.09s-.31.91-.43 1.38c-.36 1.41-.66 2.71-.9 3.91-.18 1-.32 2-.45 2.92l-.1.66c0 .37-.09.74-.13 1.11-.07.53-.13 1.06-.22 1.58s-.17.94-.27 1.41-.16.77-.23 1.16q-.44 2.56-.84 5.13a4.88 4.88 0 00-.08 1c0 .42 0 .84.07 1.25s.06.94.08 1.41a19.26 19.26 0 00.45 4.3c.27 1 .57 2 .88 3 .19.6.39 1.21.57 1.84.09.27.2.23.25.22l.18-.07a1.82 1.82 0 010-.24l-.11-.4c-.11-.45-.22-.9-.35-1.34s-.18-.55-.27-.81a8.67 8.67 0 01-.38-1.24 33.91 33.91 0 01-.57-3.37 15.56 15.56 0 01-.07-1.8V101a13.93 13.93 0 01.26-4.1 18.66 18.66 0 00.3-1.9l.09-.57c.06-.35.1-.7.15-1s.11-.79.17-1.19.18-.87.28-1.3a9.28 9.28 0 00.37-2.23 6.46 6.46 0 01.1-1.12c.07-.48.16-1 .24-1.44l.18-1c0-.12 0-.24.05-.36a4.21 4.21 0 01.09-.62c.16-.67.35-1.32.53-2l1.65-6c.15-.53.31-1.07.44-1.61.25-1 .47-2.09.68-3.14.12-.54.22-1.09.32-1.63s.18-1 .28-1.44.24-1.11.36-1.67l.34-1.5c.13-.56.26-1.11.38-1.67s.19-.88.25-1.33c0-.25.07-.51.1-.76.05-.47.11-.93.2-1.38a4.75 4.75 0 01.43-1.11l.09-.18c.27-.56.56-1.11.84-1.66l.14-.29c.16-.3 1.58-2.58 2.41-3.9zm-14.05-2.33c2.33.12 9.31.53 11.52.86l1.95.3v-.08c-.8-.16-1.62-.31-2.45-.43-.29 0-.59-.06-.89-.08l-.79-.06c-.23 0-.74-.07-1.29-.11-.8-.05-1.63-.12-2-.18s-1.69-.11-3-.16c-1.84-.08-3.74-.16-4.41-.3a16.11 16.11 0 00-2.49-.39c-.1.09 0 .54.16.66a18.59 18.59 0 003.69-.03zm30.37-13.77a3.13 3.13 0 011.06.19 1.23 1.23 0 00.76 0 .23.23 0 00.17-.11h-.26a5.24 5.24 0 00-2.23 0 2.74 2.74 0 01.5-.08zm2.07 70.62a.76.76 0 01-.6-.24 1.33 1.33 0 01-.28-1.15 2.88 2.88 0 012.25-2.17 10.63 10.63 0 011.41-.21c.25 0 1 0 1.19.5.15.73-.71 1.12-1.62 1.52h-.11a.66.66 0 01.06.36c0 .37-.38.59-1 1l-.12.08a1.9 1.9 0 01-.74.25 3.59 3.59 0 01-.44.06zm1.23-2.4a1.87 1.87 0 00-1.08 1.31h.09a1.34 1.34 0 00.37-.09l.13-.09a3.43 3.43 0 00.35-.23.62.62 0 010-.65c-.04-.11.02-.19.14-.25zm0 1.12zm9-67.77a7.19 7.19 0 01-2.66-.51c-.49-.19-1-.36-1.48-.53l-1-.35c-.39-.15-.78-.32-1.15-.5a1.11 1.11 0 01-.49-.41.75.75 0 00-.19-.2h-.16a4.49 4.49 0 01-2.34-.21 1.64 1.64 0 01-.93-1 5.42 5.42 0 01.08-4.29 15.86 15.86 0 011.32-2.64 8.68 8.68 0 015.1-4c.67-.17 1.36-.29 2-.41l1.15-.2h.15a38.47 38.47 0 004.79-1.18A12.1 12.1 0 0197 21.3a4.06 4.06 0 013.56 1.57v.05a4.41 4.41 0 01.48 2V25a1.49 1.49 0 011.37.6 4.87 4.87 0 011.42 3.29 7.09 7.09 0 01-.35 1.53c-.07.21-.13.42-.19.64a5.46 5.46 0 01-3.08 3.47c-.32.16-.63.33-1 .51a19.72 19.72 0 01-2 1c-1.9.8-3.47 1.39-4.93 1.86a8.2 8.2 0 01-2.39.39zm-7-3.57a1.25 1.25 0 011.09.64 7.83 7.83 0 001.13.52c.34.13.69.24 1 .35.51.18 1 .35 1.54.55a6.46 6.46 0 004.43.08c1.43-.46 3-1 4.85-1.82.62-.27 1.22-.59 1.84-.93l1-.53a4.29 4.29 0 002.53-2.78c.06-.23.13-.46.2-.7a5.18 5.18 0 00.3-1.27 3.79 3.79 0 00-1.18-2.55.42.42 0 00-.56-.17l.32.83a5 5 0 00.22.47 2.77 2.77 0 01.38 2l-.24.91c-.15.47-.31.91-.45 1.28a3.49 3.49 0 01-1.34 1.56 20.21 20.21 0 01-4.44 2.26l-1.11.46a23.73 23.73 0 01-2.76.94 5.26 5.26 0 01-3-.08L86 35.92l-.75-.23c-.57-.18-.69-.5-.69-.74 0-.55.54-.6 1-.63a3.2 3.2 0 00.49-.07c.68-.17 1.36-.37 2-.57l1.07-.34 1.63-.5c.94-.26 2-.57 3.17-.81A12.53 12.53 0 0098 30.49a4.87 4.87 0 001.88-1.83 4.84 4.84 0 00.29-1.05c0-.2.08-.4.13-.6l.15-.62-.29.15-.12-.73c0-.23-.07-.51-.09-.8a4 4 0 00-.3-1.49 3 3 0 00-2.62-1.15 10.63 10.63 0 00-2.63.53c-.59.2-1.18.37-1.77.52l.56-.11a4.66 4.66 0 00.49-.16q.32-.15.56-.15l.41-.1a16.29 16.29 0 012-.44 3.23 3.23 0 011.34.22 1.28 1.28 0 01.91 1.2 9.33 9.33 0 00.19 1.12c0 .3.11.6.15.9a4.06 4.06 0 01-1.16 4 8 8 0 01-3.58 1.75c-1.22.29-2.43.64-3.64 1l-1.25.35-1.61.52a20.45 20.45 0 01-4.32 1c-.51 0-1 .13-1.52.23a.89.89 0 01-.73-.13 1 1 0 01-.37-.64 10.71 10.71 0 01.08-2.89l.38-.87A14.64 14.64 0 0183 27.41a7.32 7.32 0 013.41-2.72h-.21a7.64 7.64 0 00-4.47 3.56 15 15 0 00-1.19 2.37 4.5 4.5 0 00-.11 3.57.59.59 0 00.35.36 3.37 3.37 0 001.69.15 2.28 2.28 0 01.37.02zm4.17.39l1.87.58a4.13 4.13 0 002.4.08 27.52 27.52 0 002.64-.9L95 34.4a19.2 19.2 0 004.22-2.13 2.52 2.52 0 001-1.07 20.05 20.05 0 00.67-2.06V29a1.17 1.17 0 010 .11 5.89 5.89 0 01-2.29 2.29 13.56 13.56 0 01-4.41 1.68c-1.1.24-2.19.54-3.12.8-.53.15-1.06.32-1.59.49l-1.09.34zm-4.7-4l-.09.2a10.17 10.17 0 00-.09 2.35c.51-.09 1-.17 1.48-.21a19.52 19.52 0 004.1-1c.54-.16 1.07-.33 1.62-.48l1.23-.35c1.23-.34 2.45-.69 3.7-1a7.19 7.19 0 003.12-1.52c.91-.78 1-1.76.79-3.08 0-.29-.09-.57-.14-.85s-.16-.86-.2-1.29a.7.7 0 000-.24h-.12a2.18 2.18 0 00-.87-.17 15.15 15.15 0 00-1.88.41l-.41.1a3.81 3.81 0 00-.44.15 4.47 4.47 0 01-.65.2l-1.48.32c-1.38.29-2.81.6-4.24.81a5.57 5.57 0 00-3.83 2.56 13.15 13.15 0 00-1.35 2.58z"/></svg>