<svg data-name="Calque 1" xmlns="http://www.w3.org/2000/svg" viewBox="0 0 138.53 138.53"><path d="M69.26 26.89a47 47 0 0146.93 46.93 37.86 37.86 0 01-37.81 37.82 13.52 13.52 0 01-13.51-13.51v-10.8h-10.8a13.52 13.52 0 01-13.51-13.51 28.7 28.7 0 1157.4 0 19.61 19.61 0 01-19.58 19.59h-4.73v4.72a4.73 4.73 0 004.73 4.73 29.08 29.08 0 0029-29 38.16 38.16 0 00-76.31 0 23 23 0 0023 23 1.35 1.35 0 110 2.7 25.69 25.69 0 01-25.66-25.74 40.86 40.86 0 0181.71 0 31.78 31.78 0 01-31.74 31.74A7.43 7.43 0 0171 98.13V90.7h7.43a16.9 16.9 0 0016.83-16.88 26 26 0 10-52 0 10.81 10.81 0 0010.8 10.81h10.82V73.82a4.39 4.39 0 018.78 0v4.73h4.72a4.73 4.73 0 004.73-4.73 13.85 13.85 0 00-27.69 0 1.35 1.35 0 01-2.7 0 16.55 16.55 0 0133.09 0 7.43 7.43 0 01-7.43 7.43H71v-7.43a1.69 1.69 0 00-3.37 0v10.81h10.8a10.82 10.82 0 0010.76-10.81 19.93 19.93 0 00-39.85 0 4.74 4.74 0 004.73 4.73h4.73v-4.73a10.47 10.47 0 0120.93 0 1.35 1.35 0 01-2.7 0 7.77 7.77 0 00-15.53 0v7.43h-7.43a7.43 7.43 0 01-7.43-7.43 22.62 22.62 0 0145.24 0 13.52 13.52 0 01-13.5 13.51H67.57v10.8a10.82 10.82 0 0010.81 10.81 35.16 35.16 0 0035.11-35.12 44.23 44.23 0 00-88.46 0 29.08 29.08 0 0029 29 4.73 4.73 0 004.73-4.73V93.4h-4.69a19.6 19.6 0 01-19.58-19.58 34.78 34.78 0 1169.55 0 25.69 25.69 0 01-25.66 25.66 1.35 1.35 0 110-2.7 23 23 0 0023-23 32.08 32.08 0 10-64.15 0A16.9 16.9 0 0054.07 90.7h7.43v7.43a7.43 7.43 0 01-7.43 7.43 31.78 31.78 0 01-31.74-31.74 47 47 0 0146.94-46.93z" fill="#db5931"/></svg>