<svg id="Calque_2" data-name="Calque 2" xmlns="http://www.w3.org/2000/svg" width="58.136" height="40.586" viewBox="0 0 58.136 40.586">
  <path id="Tracé_344" data-name="Tracé 344" d="M36.945,56.206c-.179,2.294-1,4.1-1.841,4.035l-7.866-.726a12.031,12.031,0,0,1-10.121-5.524H10.86V52.569H21.651a8.593,8.593,0,0,0,5.319-1.537,4.393,4.393,0,0,0,1.781-3.483h0a.254.254,0,0,0-.5-.065,5.207,5.207,0,0,1-.2.572A5.348,5.348,0,0,1,22.97,51.28H10.86V50.4h12.1a4.523,4.523,0,0,0,4.314-2.712,4.234,4.234,0,0,0,.254-.886.1.1,0,0,0-.2-.055h0a4.975,4.975,0,0,1-4.368,2.925H10.86V48.26h12.1a3.587,3.587,0,0,0,3.055-2.05A2.015,2.015,0,0,0,26.1,44.8a.706.706,0,0,0-1.07-.363A3.657,3.657,0,0,0,23.8,45.808h0c-.642,1.184-1.746,1.184-3.95,1.184H10.89V45.579h.169V42.917l-.169.114V41.31l.368-.249h5.8a12.065,12.065,0,0,1,10.189-5.622l7.667-1.229c.333,0,.756,1.826.94,4.134s.07,4.2-.264,4.229l-6.776,1.254a5.7,5.7,0,0,1,.03,7.353l6.916.751c.841.065,1.373,1.99,1.194,4.274ZM15.6,44.409H11.865v.249h3.672C15.557,44.569,15.577,44.489,15.6,44.409Zm-.249,1.169v-.09H11.87v.095h3.483Zm.93-3.095H11.865v.5h4.2C16.139,42.817,16.208,42.668,16.283,42.484Zm.557,2.866a.194.194,0,0,0,.189.229c1.209-4.532,4.975-7.12,10.324-7.12L34.577,37.3c-.025-.612-.025-1.169,0-1.637-1.9.244-7.329,1.194-7.329,1.194A10.612,10.612,0,0,0,16.84,45.35Zm2.149-.1a7.015,7.015,0,0,1,3.98-4.015,11.05,11.05,0,0,1,4.259-.781l7.493-1.164c-.025-.184-.04-.373-.06-.567l-7.314,1.159a10.379,10.379,0,0,0-5.9,1.607,7.488,7.488,0,0,0-2.945,4.09.5.5,0,0,0,.5-.328Zm2.93,11.413a10.587,10.587,0,0,0,5.319,1.428l6.826.627c-.045-.2-.085-.423-.114-.652l-6.965-.617A7.631,7.631,0,0,1,20.5,54.4a1,1,0,0,0-.8-.408.383.383,0,0,0-.284.647,10.622,10.622,0,0,0,2.513,2.025Zm-.264-2.672a.2.2,0,0,0-.154.328A6.88,6.88,0,0,0,27.01,56.6l6.876.607v-.627l-7.224-.592a5.239,5.239,0,0,1-4.184-1.816.607.607,0,0,0-.453-.189h-.373Zm5.4-11.587s6-.97,7.96-1.214c-.07-.318-.134-.677-.189-1.07l-7.587,1.174a10.234,10.234,0,0,0-4.125.8c-1,.537-1.771,1.582-1.443,1.831.582.443,2.3-1.184,4.707-1.493a5.094,5.094,0,0,1,.677-.045Zm-.97,10.771a.716.716,0,0,0,.229,1.378h.348L34,55.171a8.652,8.652,0,0,1,.5-1.935l-6.965-.647a1.269,1.269,0,0,0-.612.164,8.791,8.791,0,0,1-.841.413Zm6.538,10.11c.109-.139.279-.08.234.075l-.716,2.433a.5.5,0,0,1-.5.358l-.4-.114c-.343-.095-.388-.562-.095-.93l1.493-1.821Zm.6-31.066a.244.244,0,0,1-.06-.4l.259-.284a.5.5,0,0,1,.771,0l.791,1.179c.06.09-.06.209-.164.164ZM37.7,62.072c.219.035.109,1.627-.239,3.557s-.806,3.483-1.025,3.433l-1.065-.179c-.114,0-.184-.164-.164-.333.114-.836.378-2.488.557-3.254a12.96,12.96,0,0,1,1.189-3.164.244.244,0,0,1,.239-.154h.139l.368.07Zm-1.2,4.478c.025-.174.05-.348.08-.527l-.612-.09a2.557,2.557,0,0,1-.09.5l.622.1Zm.3-1.716c.124-.627.259-1.189.388-1.642l-.383-.05c-.219.557-.413,1.154-.547,1.622l.552.08Zm.836-32.787a12.657,12.657,0,0,1-1.06-2.985v-.085l.129-.1h0l.448-.383h0c.194-.164.861.93,1.493,2.443s1,2.871.786,3.035h0l-.209.194h0a7.607,7.607,0,0,1-1.587-2.1Zm-.333-2.4-.244.2c.114.353.249.726.383,1.08l.219-.179C37.508,30.344,37.388,29.966,37.3,29.643Zm2.871,29.548a11.01,11.01,0,0,1,1.159,3.876,34.534,34.534,0,0,1,.035,3.876.373.373,0,0,1-.363.363l-1.866.065c-.378,0-.726-1.851-.781-4.149s.209-4.174.587-4.184l.647-.03h.244a.4.4,0,0,1,.363.209Zm-.682,1.249a17.275,17.275,0,0,1,.2,1.99h.96a16.458,16.458,0,0,0-.5-1.99h-.687ZM40.8,64.42v-.612H39.737v.627Zm.03-26.971c-.5-.194-.632-2.179-.333-4.433s.94-3.935,1.423-3.741h0l1.134.458h0l.323.114c.035,0,.06.055.07.114a11.94,11.94,0,0,1-.239,4.418,7.6,7.6,0,0,1-1.836,3.279h0l-.542-.214h0ZM68.8,42.922v2.667h.169v1.423H60.016c-2.2,0-3.309,0-3.95-1.184h0a3.657,3.657,0,0,0-1.234-1.373.711.711,0,0,0-1.075.363,2.015,2.015,0,0,0,.08,1.413,3.6,3.6,0,0,0,3.06,2.045H69v1.408H56.872a4.975,4.975,0,0,1-4.373-2.92h0a.1.1,0,1,0-.194.06,3.671,3.671,0,0,0,.254.881,4.518,4.518,0,0,0,4.314,2.712h12.1v.836h-12.1a5.343,5.343,0,0,1-5.085-3.224,4.87,4.87,0,0,1-.2-.572.254.254,0,0,0-.5.065h0A4.393,4.393,0,0,0,52.871,51a8.647,8.647,0,0,0,5.319,1.537H68.981v1.423H62.717a12.015,12.015,0,0,1-10.125,5.552l-10.2,2.114c-.373.075-1.03-1.7-1.493-3.98s-.5-4.149-.119-4.224l10.2-2.244a5.7,5.7,0,0,1,.05-7.348l-7.314-1.856h0c-.831-.194-1.09-2.179-.572-4.433S44.762,33.608,45.6,33.8h0l6.965,1.637a12.02,12.02,0,0,1,8.12,3.124,12.194,12.194,0,0,1,2.1,2.488h5.821l.368.249v1.716ZM41.568,54.743a17.413,17.413,0,0,1,.532,1.9l11.075-2.08h.343a.716.716,0,0,0,.234-1.378,7.4,7.4,0,0,1-.846-.413,1.264,1.264,0,0,0-.612-.154Zm.4-19.458c-.09.383-.189.726-.289,1.025l.174.065c.154-.3.313-.637.453-.965l-.338-.124Zm.254-1.338c-.03.184-.06.368-.09.542l.448.169a2.408,2.408,0,0,0,.07-.254,1.4,1.4,0,0,1,.065-.269l-.5-.189Zm.174-3.025a14.11,14.11,0,0,1,0,1.632l.542.209c.05-.527.085-1.08.09-1.6l-.607-.239ZM57.354,54.171a5.2,5.2,0,0,1-4.179,1.816l-10.8,2.05c.035.214.07.418.095.617L52.827,56.6a6.906,6.906,0,0,0,5.508-2.289.2.2,0,0,0-.154-.333h-.373a.607.607,0,0,0-.453.189Zm1.99.234a7.6,7.6,0,0,1-6.5,3.05L42.568,59.49c0,.224.04.443.05.637l9.951-2.035a10.563,10.563,0,0,0,7.826-3.448A.383.383,0,0,0,60.11,54h0a1,1,0,0,0-.8.408Zm-13.5,11.378a.244.244,0,0,1,.06.4l-.264.284a.5.5,0,0,1-.771,0l-.786-1.224c-.06-.09.06-.209.164-.164Zm-.532-33.673a.169.169,0,0,1-.244-.219l1.254-2.413a.408.408,0,0,1,.632-.119l.423.358a.706.706,0,0,1-.08,1.129L45.3,32.111ZM58.16,43.922c.328-.249-.443-1.289-1.438-1.826a10.284,10.284,0,0,0-4.129-.8L45.682,39.8a7.031,7.031,0,0,1-.5,1.025c2.488.5,7.6,1.572,7.6,1.572a5.1,5.1,0,0,1,.677.045c2.408.294,4.125,1.915,4.707,1.493Zm2.682,1.333a.5.5,0,0,0,.5.328,7.518,7.518,0,0,0-2.945-4.095,10.364,10.364,0,0,0-5.9-1.6L46.13,38.469c-.05.184-.1.368-.154.547l6.637,1.443a11.05,11.05,0,0,1,4.259.781,7,7,0,0,1,3.98,4.015Zm2.149.095a10.627,10.627,0,0,0-10.4-8.488l-6.184-1.418a7.961,7.961,0,0,1-.04,1.632l6.11,1.388c5.373,0,9.11,2.587,10.324,7.12a.194.194,0,0,0,.189-.234Zm4.975-2.866H63.548c.075.164.144.333.214.5h4.2Zm0,1.925H64.23c.025.08.045.159.065.244h3.672Zm0,1.08H64.484v.095h3.483Z" transform="translate(-10.86 -28.477)" fill="#303030"/>
</svg>
