<svg id="Calque_2" data-name="Calque 2" xmlns="http://www.w3.org/2000/svg" width="40.129" height="53.156" viewBox="0 0 40.129 53.156">
  <path id="Tracé_343" data-name="Tracé 343" d="M70.29,62.863c.377.645.294,1.842-.516,2.064-.258.077-.516.227-.753.32-.372.134-1,.268-1.068.32-.795.588-2.394.944-3,1.455-.119.1-.444.1-.48.139-.248.294-.6.3-.934.392a21.794,21.794,0,0,1-4.066,1.7H59.4a5.819,5.819,0,0,1-1.7.728,12.415,12.415,0,0,1-1.889.8,1.254,1.254,0,0,1-1.367-.232,14.543,14.543,0,0,0-1.45-.624c-.475-.372-5.036-2.064-14.7-6.961-5.371-2.714-5.552-3.1-5.831-3.1a.279.279,0,0,1-.175-.083,3.431,3.431,0,0,0-1.032-.562,1.032,1.032,0,0,1-.557-1.362c.031-.041.077-.088.077-.129a6.192,6.192,0,0,1,.439-1.6,13.678,13.678,0,0,1,.356-1.708c.676-2.673,4.964-22.868,5.057-23.57a3.731,3.731,0,0,0-.717-.361.7.7,0,0,1-.459-.289,2.936,2.936,0,0,1-.991-.3c-.289-.15-.707.041-.908-.341-1.5-.475-3.612-1.068-3.1-2.064a4.432,4.432,0,0,1,.975-1.182,18.394,18.394,0,0,1,1.29-1.667c.325-.423.6-.877.918-1.311a10.758,10.758,0,0,0,.96-1.274c.062-.093.093-.217.17-.279.382-.3.562-.764.924-1.073a10.356,10.356,0,0,1,1.084-1.6c1.3-1.744,1.223-1.166,1.713-1.378a.344.344,0,0,1,.17.062c.593.47,2.74,1.032,3.426,1.6.47.4.671.083.851.315.3.392,1.032.423,1.187.583a8.2,8.2,0,0,0,1.672.867,1.032,1.032,0,0,0,.485.2c.33,0,.758.516,1.176.454a.449.449,0,0,1,.341.139c.341.372.64.372,1.3.629a1.476,1.476,0,0,0,.464.165c.516,0,.459.212.573.181.33-.088.516.191.758.294.15.062.325.062.48.124,3.813,1.455,4.525,1.058,5.444,1.5a.676.676,0,0,0,.273.031,13.359,13.359,0,0,1,1.992.444,4.469,4.469,0,0,1,1.109.2,5.057,5.057,0,0,1,1.161.114c.356.093.9.351.98.351.836,0,.681-.046.975.057a5.782,5.782,0,0,1,1.579.325c.784.408.655,2.141.81,2.58.222.63-.077.707.093.9.279.32.2.722.273,1.089a4.433,4.433,0,0,1,.217.779,7.112,7.112,0,0,0,.17,1.151.557.557,0,0,0,.077.258c.3.428-.041.955.248,1.765a5.614,5.614,0,0,1,0,.913c.31.624.072,1.032.3,2.012.181.8,0,.671.036.913.1.516.2.975.206,1.1.16,1.749.377,1.192.361,1.77,0,.052-.052.119-.036.15.227.346,0,.707.046,1.032.057.547,0,1.171.067,1.274.516.789.062,1.336.433,2.58A12.54,12.54,0,0,1,68.4,48.6c.088.557.227,1.151.212,1.187-.186.408.114.769.129,1.161a3.339,3.339,0,0,1,.041,1.176,18.623,18.623,0,0,1,.433,3.024c0,.15.093.294.108.449a18.471,18.471,0,0,0,.459,3.467,3.473,3.473,0,0,0,.2,1.2,5.16,5.16,0,0,0,.253,1.207c.041.114,0,.733.057.789.191.206-.139.372,0,.578Zm-34.241-33.5a15.01,15.01,0,0,0,2.58,1.032,8.193,8.193,0,0,0,2.224.882,5.32,5.32,0,0,0,1.656.619c.423.423.851.134,1.837.691a29.127,29.127,0,0,1,2.817,1.12.361.361,0,0,0,.186.036c1.032,0,1.548.593,2.064.63.671.046.516.418,1.073.387h.186a1.383,1.383,0,0,0,1.006.33c.248.273.619.222.924.341.072.031.134.083.206.114.583.258.728.181.939.335.387.284.454.057.64.181a3.5,3.5,0,0,0,1.249.418.949.949,0,0,0,1-.217c.48-.516,1.264-1.068,1.347-1.3.346-1.032,4.933-5.516,6.114-7.652a3.612,3.612,0,0,0-1.213-.335,16.46,16.46,0,0,1-2.951-.619,21.672,21.672,0,0,1-3.2-.6,11.383,11.383,0,0,0-1.672-.382,2.518,2.518,0,0,0-.552-.15,8.09,8.09,0,0,1-1.883-.428,12.046,12.046,0,0,1-2.064-.728c-.444,0-.449-.129-1.8-.588-.387-.129-.351-.232-.454-.232-.423,0-.6-.232-1.419-.593-.439-.2-.294.212-.81-.227a7.482,7.482,0,0,0-1.8-.841A8.669,8.669,0,0,1,42.86,20.9c-1.548-.846-2.461-1-3.689-1.806-.8-.516-1.213.3-1.579.769a13.3,13.3,0,0,0-1.548,2.064c-.093.212-.17.47-.475.516-.124,0-.433.733-.748,1.032a7.817,7.817,0,0,0-.882,1.1c-1.249,1.61-1.2,1.548-1.207,1.729s-.47.475-.96.975c-.15.15-.124.516,0,.516s.655.516.929.464.516.15.769.232c1.151.4,1.032.3,1.274.418a4.262,4.262,0,0,0,1.3.454Zm20.639,36.48c.072-.377.258-.717.3-1.115s-.057-.831.232-1.182c0,0,.516-2.895.516-2.9a3.355,3.355,0,0,1,.072-.655c.315-.728.041-1.032.387-1.646a7.909,7.909,0,0,0,.289-1.12c.237-.681-.114-1.032.372-2.2a8.813,8.813,0,0,0,.335-1.8c.1-.588.15-.139.387-1.342.96-4.871.759-3.55.867-4.128.175-.96.253-1.744.33-1.883.33-.562.2-1.238.485-1.811.083-.165-.062-.32.114-.877.439-1.342,1.548-8.885,1.548-8.9,1-6.553,1.145-4.763-.717-2.864a19.459,19.459,0,0,1-1.388,1.46,7.74,7.74,0,0,0-1.305,1.77c-1.362,2-1.729,1.656-2.188,2.461-.728,1.269-1.785.428-2.487.2-.206-.067-.433-.077-.635-.15s-.464-.227-.707-.315a3.483,3.483,0,0,1-.691-.2c-.392-.253-.836-.16-1-.263-.315-.212-.743-.165-1.032-.449a7.727,7.727,0,0,1-2.214-.877c-.114-.093-.47-.062-.516-.083-3.86-1.244-4.412-1.548-5.795-1.992-.924-.289-.573-.4-.913-.382-.614.031-.728-.3-1.063-.413-3.5-1.1-2.26-1.362-2.895.949a9.257,9.257,0,0,1-.279,1.161.63.63,0,0,0-.057.3,5.128,5.128,0,0,1-.464,1.584c-.6,2.172-.857,4.479-.939,4.572a1.383,1.383,0,0,0-.217.836c-.129,1.13-.82,3.385-.934,4.262a2.709,2.709,0,0,1-.335,1.3s0,.077,0,.114a4,4,0,0,1-.212.815,16.063,16.063,0,0,1-.568,2.8c-.083.31,0,.655-.227.929,0,0-.057.377-.155.753a4.448,4.448,0,0,0-.237.789c0,.624-.671,2.492-.64,3.137a1.806,1.806,0,0,1-.1.722c-.227.516-.279,1.223.31,1.414.356.114.114.237.573.335,1.1.232.877.671,1.775.98s1.827,1.264,2.4,1.032a2.963,2.963,0,0,0,1.218.893,3.679,3.679,0,0,0,.882.48c.681.2,1.032.712,1.656.908.753.237.547.47,1.084.645,1.44.475,5.562,2.477,5.573,2.482.273.165.516.428.9.4a.624.624,0,0,1,.568.2s1.827.9,2.136,1c.975.315.6.614,1.847.877.7.144,1.646.944,2.131.743.046,0,.108.026.516.237-.139-.691.325-.65.439-1.032a22.8,22.8,0,0,0,.655-2.941ZM52.272,58.58c.33.108.237.041.444.6a8.353,8.353,0,0,1-1.1.789,5.635,5.635,0,0,0-1.207.609,7.023,7.023,0,0,1-2.4.712c-2.26.351-2.281-.243-2.513-.046a.129.129,0,0,1-.1,0c-.165-.212-.423-.217-.65-.3a10.132,10.132,0,0,1-2.116-1.238c-.33-.418-1.44-1.156-1.641-1.7-.052-.129-.418-.273-.475-.593,0-.119-.279-.268-.279-.289a7.327,7.327,0,0,0-.63-1.032c-.129-.273-.284-.836-.382-1.032s-.206-.3-.186-.516a.325.325,0,0,0-.088-.165c-.423-.516-.222-.975-.3-1.063-.3-.356-.206-.872-.428-1.249s-.139-.408.217-.6.041-.15.4-.046c.877.237-.408.072,1.827,4.128.026.046.1.077.1.119,0,.516.392.8.63,1.176A5.547,5.547,0,0,0,42.421,57.9a1.135,1.135,0,0,0,.588.64A5.669,5.669,0,0,0,45.5,59.912a2.126,2.126,0,0,0,1.589.366,3.333,3.333,0,0,1,.815-.072,9,9,0,0,0,2.791-.965,1.249,1.249,0,0,0,.516-.428,1.171,1.171,0,0,1,1.073-.258ZM40.032,45.867a7.466,7.466,0,0,1-.144-2.786,17.109,17.109,0,0,1,1.5-4.546,1.078,1.078,0,0,1,.47-.733,2.921,2.921,0,0,1,1.409-.908,3.115,3.115,0,0,1,2.343.222,3.471,3.471,0,0,1,1.7,2.234c.975,2.208.108,1.883.294,2.8,0,.108-.108.232-.129.356a7.793,7.793,0,0,1-.96,3.71c-.088.119-.562,1.465-1.1,1.8a1.1,1.1,0,0,0-.243.289c-.48.2-.81.733-1.548.624-.17-.046-.516.072-.826-.175-.1-.088-.31-.041-.439-.114a6.641,6.641,0,0,1-.722-.516c-.439-.31-.366.072-.826-.7a2.73,2.73,0,0,1-.769-1.579Zm.975-3.1a2.46,2.46,0,0,0-.17,1.548c.062.155-.124.392.181.691.057.057-.031.2-.1.346a1.615,1.615,0,0,1,.212.516.887.887,0,0,0,.439.826c.33.191.6.758,1.4,1.032,1.3.433,2.012-1.269,2.141-1.331a.54.54,0,0,0,.243-.361,6.037,6.037,0,0,0,.728-2.11c.036-.325.3-1.13.356-1.641a2,2,0,0,1,.072-.645.712.712,0,0,0,.057-.552c-.114-.387.129-.237-.083-.795a4.1,4.1,0,0,0-.686-1.8c-.129-.186-.439-.568-.64-.464s.377.991.387,1.316c.077,2.157-.062,1.656-.562,3.194a.764.764,0,0,1-.3.48c-.052,0-.072.1-.114.144-.619.64-.676.552-1.6.609a1.837,1.837,0,0,1-1.2-1.171c-.046-.237-.165-.454-.222-.686-.036-.144.031,0-.052-.97-.108.124-.175.165-.186.217-.16.728-.191,1.249-.284,1.641Zm16.181,1.713a5.8,5.8,0,0,0,.031.733c0,.289-.325,2.291-.335,2.3-.258.31-.134.738-.33,1.073a.629.629,0,0,0-.062.377c.041.186-.083.289-.124.428a1.744,1.744,0,0,1-.253.635c-.47.593-.222.573-.341.645-.444.258-.485.795-.795,1.166-.7.831-.986,1.254-2.064,1.491-.088,0-.2.057-.268,0-.588-.351-.836.294-2.348-1.1-.449-.418-.1-.33-.3-.516-.681-.557-.671-1.486-.81-2.993a4.128,4.128,0,0,1,.114-1.4,13.451,13.451,0,0,1,.408-1.971c.077-.294.3-.516.4-.831.655-2.012,2.389-3.937,2.89-3.88a1.816,1.816,0,0,0,.764-.072,2.255,2.255,0,0,1,.929.077.165.165,0,0,1,.124.088c.32.63.815.206,1.548,1.032.206.222.227.568.47.784a5.877,5.877,0,0,1,.33,1.914ZM56.157,45.9c.062-1.945.346-3.679-1.548-3.885a4.541,4.541,0,0,1,.191,4.164c-.516,1.249-.366,1.342-1.429,1.966s-2.157.129-2.472-2.337c-.263.17-.212.222-.4,1.274s-.464.635.036,3.519c.057.325.32.232.516.815a1.78,1.78,0,0,0,1.6.831c.243,0,.4-.16.6-.222.681-.217.918-1.032,1.161-1.218a.609.609,0,0,0,.31-.418c0-.15.557-1,.722-1.548.093-.3.738-2.632.748-2.941ZM68.623,64.236c.031,0,.041-.077.077-.144-3.318-1.677-3.674-2.2-4.768-2.7-.516.815-1.636,1.661-2.239,2.58-.191.279,0,.165-.924,1.078-.717.707-.144-.062-.9.774-2.647,2.884-2.126,2.771-2.549,2.941-.036,0-.046.088-.114.222a1.084,1.084,0,0,0,.341,0c3.1-1.1,2.895-1.274,3.3-1.336a21.179,21.179,0,0,0,2.869-1.187,7.3,7.3,0,0,0,1.61-.826c.253-.15.8-.181,1.125-.377.6-.361,1.274-.588,2.177-1.032ZM64.237,34.18s-.046-.046-.1-.1a5.31,5.31,0,0,0-.175.965c0,.624-.33.784-.15,1.12a10.516,10.516,0,0,1-.212,1.373c-.083.372.041.795-.279,1.1v.072c.124.289-.31,1.068-.335,1.667-.067,1.4-.583,1.476-.516,2.157.072.6-.346,1.12-.31,2.064,0,.619-.212.516-.248,1.207-.046.8-.392.681-.3.841.144.253-.217.635-.206,1a16.972,16.972,0,0,1-.475,2.2,6.609,6.609,0,0,1-.15.913,3.21,3.21,0,0,0-.155,1.254,4.259,4.259,0,0,0-.361,1.672c0,.253-.444.516-.464,1.233,0,.072-.666,3.839-.769,4.03a1.47,1.47,0,0,0-.129.939c.062.516-.3.913-.268,1.357.067.758-.428,1.388-.418,2.126,0,.046-.046.093-.062.144-.227.758,0,1.274-.475,1.708a10.718,10.718,0,0,0-.129,1.9c.728-.66.877-1.125,1.44-1.584.325-.268.516-.686.882-.929.423-.3.619-.779,1-1.1.088-.077.206-.17.222-.268.057-.3.408-.392.475-.681a5.552,5.552,0,0,0,1-1.084c1.032-1.2.516-2.064.851-3.767.052-.253.062-5.124.067-5.16.284-1.13.093-2.58.3-3.406.046-.186-.041-.666,0-1.084a11.033,11.033,0,0,0,.15-1.651c-.057-.769.16-1.914.057-2.74-.083-.64.217-1.249.108-1.9a5.949,5.949,0,0,1,.041-1.352,4.835,4.835,0,0,1,.124-1.305,1.083,1.083,0,0,0,0-.387,12.513,12.513,0,0,1,.031-2.879,14.493,14.493,0,0,1-.062-1.7ZM69.18,63.044c0-.9-.119-.924-.134-1.579a7.864,7.864,0,0,0-.31-1.909c-.2-2.322-.031-1.378-.294-2.286-.072-.263-.382-3.147-.382-3.7a3.261,3.261,0,0,1-.258-1.352,16.468,16.468,0,0,1-.186-1.935v-.077c-.485-2.678-.279-2.193-.366-2.337a.769.769,0,0,1-.093-.6,2.817,2.817,0,0,0-.1-1.078s-.15-1.29-.17-1.342A1.311,1.311,0,0,1,66.8,44.1c.046-.222-.083-.423-.119-.63a5.227,5.227,0,0,1,0-.944c0-.7-.341-1.362-.3-2.064-.454-1.228-.129-2.425-.516-4.03a6.949,6.949,0,0,0-.124-1.14c-.2-.418.144-.691-.268-.795a9.815,9.815,0,0,0-.083,2.363,5.448,5.448,0,0,0,0,1.816c.057.64-.17.887-.093,1.249a22.518,22.518,0,0,1-.083,3.127c.155.516-.134.991,0,1.5.031.119-.083.268-.088.408v1.213c0,.3-.119,1-.072,1.166.139.516-.3.841-.15,1.233.119.284-.052.516-.026.8-.263.263-.15.562-.077.846.175.738-.2,1.9-.077,2.332v.114c-.232.243,0,.795-.026.851-.2.315-.067.66-.1.991a5.9,5.9,0,0,0-.026,1.837.764.764,0,0,0,0,.609,2.265,2.265,0,0,0-.134.485,8.615,8.615,0,0,1,0,1.264,1.636,1.636,0,0,0,.041.728c.181.49-.418.877.134,1.166a12.32,12.32,0,0,1,1.682.9c.769.6.583.237.769.516s-.15,0,1.207.676c.206.1.4.227.614.325.083.041.31-.062.31.062Z" transform="translate(-30.376 -17.73)" fill="#303030"/>
</svg>
