<svg id="Calque_2" data-name="Calque 2" xmlns="http://www.w3.org/2000/svg" width="42.65" height="35.975" viewBox="0 0 42.65 35.975">
  <path id="Tracé_347" data-name="Tracé 347" d="M20.192,51.493c.329-.474.4-.695.871-.871,3.614-1.422,5.437-.578,7.108,2.735a6,6,0,0,1,.141,4.1,8.618,8.618,0,0,1-1.2,1.245,18.07,18.07,0,0,1-1.936,1.12c-1.928,1.257-4.606.149-5.494.112a1.964,1.964,0,0,1-1.161-.4c-.157-.124-.341-.221-.49-.349a2.952,2.952,0,0,1-1.14-2.67,4.91,4.91,0,0,1,.723-2.273,3.393,3.393,0,0,1,.759-.879c.679-.458.57-.606.879-1.024a3.079,3.079,0,0,0-1.759-.181c-.687.129-.4.8-.6,1s-.8-.028-.743-.586c.092-.8,0-1.181.2-1.55s1.434-1.289,2.148-.887c1.136.659,1.112.586,1.719,1.361Zm-.667.321c0-.554-.357-.659-.984-1.052-.4-.257-.948.2-1.309.518-.51.438.819-.2,2.293.534Zm4.269,3.658c.052-.514.4-1.466-.317-1.94a3.473,3.473,0,0,0-1.369-.57c-.976-.161-1.325-.3-1.606-.145-.47.253-.679.032-.851.4-.233.514-.855.643-1.169,1.2a4.365,4.365,0,0,0-.586,1.253,3.823,3.823,0,0,0-.181,1.847c.181,1.148.936,1.337,1.353,1.606a.442.442,0,0,0,.2.032c.928.056,2.863.707,3.9.466a4.9,4.9,0,0,0,1.313-.377c2.49-1.518,4.136-1.843,3.04-5.734A5.361,5.361,0,0,0,26,51.24c-.863-.944-2.1-.659-3.53-.4a9.067,9.067,0,0,0-.855.4c-.442.169-.578.558-.743.948a6.151,6.151,0,0,1,2.052.478c.695.313,1.691.932,1.687,1.695,0,.237-.068,1.361-.261,1.474-.04,0-.542-.193-.57-.353ZM36.275,33.788a1.827,1.827,0,0,1,.193,1.321,2.349,2.349,0,0,1-1.2,1.759,7.293,7.293,0,0,1-.727.153c-.49.072-1.2-.526-1.446-.767-.518-.514-.06-1.418-.02-1.606a3.45,3.45,0,0,1-1.14-.53c-.273-.169-.116-.217-.51-.454-1.169-.7-1.144-.534-.49-1.867.3-.618.891-.751,1.574-1.016.056-.12,0-.024-.1-.137-.8-.8-.478-1.2-1.679-1.273A2.7,2.7,0,0,0,28.46,30.5c0,.044,0,.643-.53.373-.839-.4-.06-1.783-.293-2.662-.052-.2-.04-.237.618-1.157.377-.526.843-.47,1.3-.514.751-.068,1.2.458,1.578,1.068.309.514.518.478,1.566,1.53a6.232,6.232,0,0,1,.518.751,2.265,2.265,0,0,1,.719-1.317,4.465,4.465,0,0,1,1.341-.538,1.875,1.875,0,0,1,1.161.181c1.538,1.273.928,1.879.928,2.843.084-.032.153-.052.217-.084a1.494,1.494,0,0,1,1.883.879c.305.767,1.739-1.12,1.237-2.98-.128-.486-.566-.879-.9-.747-1.289.514-1.265,1.883-1.036,1.96a.928.928,0,0,1,.462.47.341.341,0,0,1-.369.128,3.433,3.433,0,0,1-.687-.394,1.68,1.68,0,0,1,.349-2.3c.574-.486.952-.747,1.654-.474a2.426,2.426,0,0,1,1.406,1.671c0,.217.044.43.06.647.068.912-.486,2.534-1.373,2.723-.217.044-.4.161-.659.056l-.116.542a2.305,2.305,0,0,1,.839-.108,1.791,1.791,0,0,1,1.385,1.932c-.454,2.092-.739.972-.173,1.819.2.3-.57.61-.2,1.514.12.3.964.486,1.2.133.478-.747.522-.8.4-.883a.438.438,0,0,1-.137-.6c.08-.189.112-.4.341-.526-.1-.518-.373-.651-.506-.647-.293,0-.466-.2-.679-.349-.06-.04-.032-.161.048-.209,1.06-.634,2.16.992,1.956,2.008-.044.213-.124.217.8.434a14.7,14.7,0,0,0,2.12.4,20.569,20.569,0,0,0,3.373,0c.526-.145.683,0,.257-.325s.112-.305.723-1.1c1.45-1.9-1.646-3.9-4.955-3.65a.2.2,0,0,0-.149.088,2.606,2.606,0,0,1,2.008.972c.442.53.265,1.373.072,2.16-.1.4-.454.245-.747-.044a.3.3,0,0,1-.068-.313c.028-.1,0-.2.129-.269s.4-1.293-.177-1.554a6.759,6.759,0,0,0-2.506-.329c-.044.1-.1.313-.161.345s-.213-.229-.329-.309c-.349.446-.574.96-1.341.863a2.558,2.558,0,0,1-1.43-.783.9.9,0,0,1,.08-1.165c.221-.221.715-.141.634.157-.265.952-.076,1.048.647,1.1.522.044.727-1.173.534-1.679-.1-.253-.133-.281-.4-.289-.743-.024-1.2.518-1.414.514-.052,0-.831-.277-.494-.554a2.041,2.041,0,0,1,1.771-.643c.7.072.875.4,1.2.775a9.525,9.525,0,0,1,2.409-3.614,2.82,2.82,0,0,1,1.719-.936c1.06-.108,1.466-.373,2.112.084,1.128.8.574.526,1.088,1.112A12,12,0,0,0,53,25.728c.281-.7.626-1.373,1.41-1.273.92.12.695.558,2.289,1.305a2.811,2.811,0,0,1,.53.333.377.377,0,0,1,.12.337,3.467,3.467,0,0,1-1.3-.1c-.859-.052-1.144.506-1.538.952a4.249,4.249,0,0,0-1.743,2.16c.8.068.169.032,1.723.088a5.506,5.506,0,0,1,1.779.723A2.217,2.217,0,0,1,57.16,32.2c-.044.217-.671.438-.879.325s0-.349.036-.8a1.478,1.478,0,0,0-.5-1.1,4.714,4.714,0,0,0-2.859-.4c-.341.052-1.02-.145-1-.434,0-.036-.036-.076-.06-.133-.273.345-.181.361-.755.185-.639-.2-.345-1.9-1.353-1.759-1.2.161-1.606.137-2.008.466a7.808,7.808,0,0,0-2.088,2.409c-.177.4-.859,1.538-.9,1.695a3.36,3.36,0,0,1,1.606-.478,10.265,10.265,0,0,1,2.1.265,4.958,4.958,0,0,1,2.743,1.482,2.27,2.27,0,0,1,.61,3.08c-.141.2-.442.47-.61.691a1.649,1.649,0,0,0,.337-.12,14.061,14.061,0,0,0,2.241-1.08c1.574-.667,1.867-3.47,2.622-2.691.257.265.145.149.229,0a.409.409,0,0,1,.478-.253c.361-.036.466,1.345.53,1.759.173,1.136.663,1.715.767,2.462a3.591,3.591,0,0,1,.213,2.293c-.434,1.293-2.257,2.108-3.136,2.51-3.417,1.574-1.9,1.229-4.4,1.8-2.253.514-2.666-.028-3.152.663-.7,1.036-.57,1.325-.707,2.907a16.6,16.6,0,0,0-.076,1.719c0,1.088-1.2,5.22.377,4.775,2.116-.59,5.975-.032,8.076.486.534.133,1.169.345,1.2.851,0,.317-.12.149-1.233.5-.775.245-1.944.691-2.751.9a9.128,9.128,0,0,0-1.847.466c-1.775.6-2.47,1.165-6.469.293-.9-.2-5.325-1.329-8.08-1.2a25.234,25.234,0,0,1-2.614.2c-1.755-.181-2.325-.213-2.839-1.092-.345-.59.4-.98,1.076-1.381,1.695-1.012,2.241-.08,3.654-.265a55.075,55.075,0,0,0,7.513-1.458c-.032-1.839-.245-.4-.4-3.486-.08-1.393.092-3.823-.068-3.972-.305-.124-.3-.253-.253-.466,0-.092.153-.064.229-.076.153-.028.313-.076.454.044.53.458.265.675.345,1.454.072.715-.04,1.422-.02,2.132.08,3.474.49,3.614.514,4.943,0,.305-.185.032-.739.281A66.582,66.582,0,0,1,35.5,54.975c-.9.092-1.871-1-3.863.8.349.153-.044.068,1.381.293,2.177.349,1.956-.691,8.389.422,3.333.578,3.614,1.229,6.991,1.016,1.2-.072,1.606-.63,4.016-1.128.7-.149,2.811-.835,2.409-.9a16.191,16.191,0,0,0-5.092-.454A4.935,4.935,0,0,0,48,55.212a1.426,1.426,0,0,1-1.329-.578,1.951,1.951,0,0,1-.546-1.41c-.181-1.779.426-2.088.369-5.14,0-.486.08-1.261.076-1.434a3.6,3.6,0,0,1,.8-2.241c.494-.739.8-.3,3.313-.747a7.573,7.573,0,0,0,2.189-.7c1.871-1.2,3.59-1.2,4.819-2.843.8-1.056-.562-3.257-1.048-5.7-.305.245-.94,2.265-2.265,2.811-.779.309-.582.454-1.63.839-2.847,1.048-2.482.514-4.152.751a12.529,12.529,0,0,1-4.775-.771c-.779,1.2-.7,1.02-.932,1.2a3.417,3.417,0,0,1,.618.337,1.606,1.606,0,0,1,.638,1.47c-.257,1.422-1.715,2.759-2.6,1.634-.145-.185-.5-.269-.438-.92a3.249,3.249,0,0,1,.305-1.04c.169-.438.526-.466.643-.2.253.566.145.257-.221,1.393-.137.434.2.618.522.4.932-.63,1.831-2.771-.177-2.293a.193.193,0,0,1-.2-.052c-.044-.036-.49-.249-.49-.325.108-.341.679-.2.253-.4-.879-.4-1.542-1.148-1.165-2.072.12-.293-.024-.076-.643.032a1.819,1.819,0,0,1-1.1-.361c-.341-.193-.128-.177-.3.474a3.04,3.04,0,0,1-.851,1.45c-.333.3-.4.169-.59.2a1.8,1.8,0,0,1-1.518-.651c-.514-.506-.181-1.072.333-1.771a1.157,1.157,0,0,1,.6-.51c.06,0,.4.129.4.229.048.317-1.325,1.767-.659,1.924.763.177.891,0,1.072-.233.377-.506.659-1.49.426-1.8-.377.112-.594-.193-.875-.341,0-.217.173-.285.313-.353a.976.976,0,0,1,.8.068c.241-.928.3-.671-.253-.8a4.7,4.7,0,0,1-1.45-.908,1.537,1.537,0,0,1-.285-1.2.731.731,0,0,1,.5-.63c-.08-.052-.124-.108-.165-.108a3.875,3.875,0,0,0-.992.016c-.233.072-.438.028-.462-.024-.076-.193-.285-.377-.157-.426,1.02-.4,1.646-.153,1.811-.655a2.674,2.674,0,0,0,.064-1.506c-.181-.747-1.012-.586-1.727-.309a1.325,1.325,0,0,0-.827,1.313c0,.4.2.4.309.7.064.181-.133.209-.277.116-.245-.149-.377-.357-.639-.177,1.088.687,1.124,1.361.9,2.614.6-.12.61-.129.867.173a.353.353,0,0,1,.084.434c-1.169.08-2.132,1.691-1.526,2.032,1.369.771,2.719-1.679,1.55-2.67.3-.538.622-.056.94.3Zm-7.839-4.542a4.333,4.333,0,0,1,2.538-.534c.177,0,.3.084.964.4-.94-.8-1.277-.92-1.542-1.47a.875.875,0,0,0-1.418-.137,1.877,1.877,0,0,0-.542,1.727ZM34.8,43.614c.177-.221.145-.309-.12-.7a.458.458,0,0,0-.129-.177c-.679-.377-.149.369-.634.458a6.053,6.053,0,0,1-3.389-.912c-.8-.47-.711-1.044-.4-1.819.462-1.2.554-1.385.494-1.542-.092-.241-.494-.526-.61-.341a5.725,5.725,0,0,0-.719,1.735,1.606,1.606,0,0,0,.028,1.41C29.918,43.092,34.01,44.614,34.8,43.614Zm-2.482-7c.683-.044,1.454.847,1.076,2.008a2.308,2.308,0,0,1-.96,1.486c-.514.261-1.2-.353-1.426-.651s-.153-.514-.072-.916c.153-.763.8-1.273.337-1.052a1.96,1.96,0,0,1-1.028.128c-.277-.157-.8-.506-.912-.8-.767-2.189,2.265-3.5,2.811-1.8.06.185.313.249.337.663a1.53,1.53,0,0,1-.177.944ZM31.689,35a1.422,1.422,0,0,0-1.663,1.654c.048.309.124.345.377.325a.94.94,0,0,0,.265-.04C31.837,36.506,31.8,35.972,31.689,35ZM32.966,32.6c.036.153-.265.129-.57,1.088-.1.333.723.5,1-.06.6-1.2.269-2.5-.542-2.148-.936.4-.887.141-1.55,1.434-.133.257.08.329.313.458.177-.329.514-1.2.863-1.157a.731.731,0,0,1,.482.4Zm-1.393,6.554c-.064.47.9.55,1.157-1.2a1.847,1.847,0,0,0,0-.422c0-.153-.044-.173-.189-.133-.4.108-.4-.4-.695-.153.719.916-.052.084-.289,1.924Zm.771,9.895c-.663-.671-.45-.6-.538-.976-.153-.614.454-1.2.972-1.606.2-.141.249-.466.928-.562.361-.048.554.466.751.723.871,1.153-1.008,3.522-2.112,2.409ZM33.889,46.8c-.245-.116-.337.116-.446.161a2.14,2.14,0,0,0-1.012,1.128c-.133.325.193.723.767.4.655-.4.988-1.534.695-1.671Zm1.675-6.024c-.1.8-.7,1.7-1.45,1.257s-.9-.719-1.016-1.157a2.482,2.482,0,0,1,.526-1.924.767.767,0,0,1,1.329.3C35.094,39.779,35.58,39.835,35.564,40.775Zm-1.349.647c.446,0,.574-.779.566-1.293,0-.1-.064-.161-.177-.161-1.2.024-.8,1.454-.4,1.454ZM35.74,43.55a1.966,1.966,0,0,1,.293-2.486c.369-.313.506-.189.759.161.313-.036.972-.217,1.281.478a1.309,1.309,0,0,1,.032,1.438,2.811,2.811,0,0,1-.8.94,2.359,2.359,0,0,1,.273,1.606c-.8,2.711-3.3.566-3-.586a3.229,3.229,0,0,1,1.157-1.526Zm.92,4.767c-.024-.064-.285-.3-.695,0-.675.534-1.084,1.072-.7,1.791,1.53,2.891,4.132-.582,2.028-1.843-.2-.124-.345-.072-.478.157a2.747,2.747,0,0,0,.4.518c.4.317,0,1.056-.4,1.381a.63.63,0,0,1-1.028-.554c.454-1.353,1.2-.466.843-1.47Zm.249-3.369a4.327,4.327,0,0,0-.04-.434.438.438,0,0,0-.707-.261,2.438,2.438,0,0,0-.859,1.177c-.177.831,1.3,1.546,1.606-.47Zm-.221-3.373a1.7,1.7,0,0,0-.526,1.5.518.518,0,0,0,.944.1,1.472,1.472,0,0,0,.4-1.249.751.751,0,0,1-.8-.341Zm.345-9.469c.1.345.128.341-.052.494-.98.8.952,2.2,1.5,1.012a4.016,4.016,0,0,0,.3-1.285c.028-.245-.189-.173-.269-.751C37.909,31.471,37.5,31.868,37.034,32.105Zm3.289,6.718a2.08,2.08,0,0,1,.257.671c.08.964-.9,2.859-2.008,2.128-.883-.574-1.341-1.345-.333-2.964.241-.4.454-.3.506-.369.181-.253,1.2-.261,1.582.546Zm-.98.028c-.1,0-.229-.052-.321.1A4.015,4.015,0,0,0,38.5,40c-.129.542-.133.843.116.976.647.345,1.2-1.028,1.169-1.747C39.784,38.916,39.7,38.852,39.343,38.852Zm.759,5.012c.4.514.731.133.827.711a2.654,2.654,0,0,1-.53,1.63c-.458.562-1.14,0-1.2-.57-.1-.924.643-1.04.522-1.385-.361-1.06-1.534.345-1.2,1.377.249.759,1.237,1.791,1.924,1.546.341-.12.281-.157.671-.57a2.329,2.329,0,0,0,.518-1.2c.281-1.293-1.305-2.5-1.711-1.735-.028.08.12.124.173.193ZM39.443,33.5c-.329.731-.4.956-.679,1.112-.185.1-.165.157-.072.321.3.518.153.2.036,1.1,0,.165.305.4.667.462.731.1,1.028-.353,1.325-1.028.213-.482.422-1.51-.157-1.663-.474-.129-.659.185-.887-.108a1.449,1.449,0,0,0-.229-.2Zm14.123-6.61c.309-.124.506-.486.916-.8.582-.45.687-.2.831-.4-.771-.47-.735-.582-.98-.365s-.233.181-.767,1.558Z" transform="translate(-16.14 -24.445)" fill="#303030"/>
</svg>
