<svg id="Calque_2" data-name="Calque 2" xmlns="http://www.w3.org/2000/svg" width="26.747" height="42.569" viewBox="0 0 26.747 42.569">
  <path id="Tracé_348" data-name="Tracé 348" d="M65.457,49.153c-.529.912-1.368,2.011-1.081,3.462-.794,1.058-1.943,2.011-2.281,3.193-.456,1.5-1.7,2.1-2.545,3.111a29.934,29.934,0,0,1-2.281,2.331L51.34,64.269H48.672a4.926,4.926,0,0,1-.958-.547c-1.419-1.263-2.536-2.8-4.534-3.444-1.008-.324-1.824-1.514-2.522-2.458a17.071,17.071,0,0,1-1.332-3.133V47.16c-.26-1.61-.411-1.332-.616-2.536.4-.429.173-.857.575-1.286v-5.4c1.368-3.152,3.425-5.437,3.649-8.351l4.8-4.744c1.277-.315,2.951-1.989,5.177-2.367a7.348,7.348,0,0,1,1.232,0l.835-.771c1.2.816,3.243.661,4.178,1.961,1.482-.255,1.87,1.236,2.842,1.765,1.368.743,1.008,2.4,2.016,3.389.543.534.369,1.8.525,2.773l.912.912ZM63.176,33.833l-1.227-1.314V29.937c-1.861-.547-2.043-2.5-3.01-3.913H57.826L56.576,24.9H51.782c-.753.753-1.441,2.025-2.167,2.043-1.5.041-2.107,1.761-3.608,1.533-.21-.032-.5.488-.816.821v3.033L42.87,36.61c1.035,1.824-1.537,2.645-1.159,4.447l1.09.525c1.368-1.368,2.9-2.737,4-2.8s2.226,1.14,3.165,2.144c-.21,1.925,1.674,2.481,2.422,3.7v3.489c-.433.538-1.081.981-1.1,1.446a2.641,2.641,0,0,1-1.049,1.961A6.217,6.217,0,0,0,49,52.8c-.356.607.041,1.578-1.263,2.021H43.353c-.141,0-.283.265-.424.406,0,.388-.046.775-.059,1.022,1.46,2.86,4.812,3.3,6.6,5.606h3.567c2.281-2.281,4.634-4.42,6.732-6.805a7.173,7.173,0,0,0,2.212-5.66l1.2-1.286Z" transform="translate(-38.71 -21.7)" fill="#303030"/>
</svg>
