<svg xmlns="http://www.w3.org/2000/svg" viewBox="0 0 981.33 88.41"><g data-name="Calque 2"><path d="M68.79 88.41c-9.92 0-14.34-5.28-14.34-15.2v-5.28c-4.64 10.56-17.14 20.48-29.87 20.48C7.12 88.41 0 80 0 69.43c0-13.9 17.57-20.7 32.78-27.06 11.21-4.74 21.67-8 21.67-14.88v-.21c0-15.2-3.56-21.13-17.79-21.13-16.28 0-31.27 12-31.27 34.93v2.37H2.7V5.39h2.69V25C10.46 11.32 22.32 3.23 36.87 3.23c21.78 0 31.38 10.35 31.38 26.2v44c0 7.12 1.51 10.89 4.31 10.89 4.31 0 5.28-2.91 5.28-11.1v-8h2.7v8.19c0 11.59-2.26 15-11.75 15zm-41-4.2c13.47 0 26.63-15.21 26.63-26.63V34.07c-3.34 3.88-10 6.47-20.6 11-13.12 5.5-18.73 8.73-18.73 19.41 0 11.85 1.84 19.73 12.73 19.73zM98.33 5.39h47.77c15.31 0 28.78 6.58 28.78 20.81s-14.77 21-29.32 21.13c20.81 7.23 13.91 36 26 36 4.53 0 6.69-2.26 6.69-8.19V63.61h2.69v11.54c0 9.06-5.07 13.26-14.12 13.26-29.54 0-10.46-41.08-33.43-41.08h-10v36.23h18.22v2.69H98.33v-2.69h11.22V8.09H98.33zm25 2.91v36.12h16.17c12.18 0 20.27-2.37 20.27-18.33S151.7 8.3 139.52 8.3zm153.45 44.42h2.69v33.43h-2.69V68.57c-5.07 13.05-17 19.84-34.4 19.84-29.86 0-43.77-14.66-43.77-41.83 0-27.93 13.37-43.35 43.12-43.35 16.93 0 28.15 7.23 32.89 20.49V5.39h2.69v35.47h-2.69c0-22.42-10.67-34.71-32.78-34.71-21.78 0-28.14 11.1-28.14 40.54 0 27.7 6.79 38.59 28.68 38.59 21.35 0 34.4-10.35 34.4-32.56zm65.66-47.33h37.31v2.7h-11.22v75.47h11.22v2.69h-37.31v-2.69h12.29V45.61h-30.84v38h12.3v2.69h-37.31v-2.74h11.21V8.09h-11.21v-2.7h37.31v2.7h-12.3V42.7h30.84V8.09h-12.29zm56.72 17.25H480v2.7h-33.51v58.22h33.42v2.69h-80.75v-2.69h33.53V25.34h-33.53zM430 9.6a9.6 9.6 0 1119.19 0 9.6 9.6 0 01-19.19 0zm69.43-4.21h39.46v14.66c3.23-12.5 10.24-16.82 19.84-16.82 8.84 0 14.66 3.89 17.79 15.1V5.39h2.69v44.53h-2.69v-3.13c0-32.67-5.61-40.43-17.79-40.43-14.45 0-18.76 10-18.76 33.43v43.77h30.51v2.69h-71.05v-2.69h26.74V8.09h-26.74zm181.14 43.02H614.8c.32 26.42 7.22 36.87 28.68 36.87 21.24 0 34.18-9.38 34.18-29.43h2.91c0 21.13-13.59 32.56-37.09 32.56-29.87 0-43.78-14.66-43.78-41.83 0-27.93 13.37-43.35 40-43.35 27.82 0 41.08 16.07 40.87 45.18zM614.8 45.5h50.67c-.21-28.5-6.79-39.35-25.66-39.35-18.44 0-24.81 10.78-25.01 39.35zm83.02-40.11h36.23v2.7h-11.76v48c0 25.44 1.62 27.6 9.82 27.6 20.27 0 36.33-22 39.13-47.12a26.94 26.94 0 01-12.5 2.8c-14.13 0-20.6-7.11-20.6-17.89s7.23-18.23 18.33-18.23c10.68 0 18.33 9.28 18.33 25v2.37c5.18-4.85 8.63-13.15 8.3-25.23h3.13c0 14.56-4.64 24-11.75 29.22-2.27 27.6-20 53.8-46.15 53.8-13 0-19.84-8.52-19.84-32.34v-48h-10.67zM760 36.33a22.21 22.21 0 0011.54-3.23c.11-1.4.11-2.91.11-4.42 0-14.23-5.93-22.43-15.1-22.43-9.38 0-15.42 5.5-15.42 15.21.03 9.48 4.87 14.87 18.87 14.87zm121.11 12.08h-65.77c.33 26.42 7.23 36.87 28.68 36.87 21.24 0 34.18-9.38 34.18-29.43h2.91c0 21.13-13.58 32.56-37.09 32.56-29.86 0-43.77-14.66-43.77-41.83 0-27.93 13.37-43.35 40-43.35 27.82 0 41.08 16.07 40.86 45.18zm-65.77-2.91H866c-.2-28.5-6.77-39.35-25.64-39.35-18.44 0-24.8 10.78-25.02 39.35zm95.03-15.41c0 2.93-1.68 4.48-4.79 4.48s-4.71-1.55-4.71-4.48c0-3.23 1.56-5 4.71-5s4.79 1.77 4.79 5zm-8.48 0c0 2.35 1.18 3.42 3.69 3.42s3.76-1.07 3.76-3.42c0-2.81-1.14-4-3.76-4s-3.69 1.23-3.69 4.04zm44.49 3.72h-28.45v-1h7.56v-6.18h-7.6v-.95h7.6v-7.56c0-9.12 4.29-13.56 11.81-13.56 5 0 8 2.58 8 7 0 8.51-14.06 7-14.93 13.91v.22h16v.95h-16v6.23h16zm-16-10.71c2.7-5.09 13.87-4.6 13.87-11.55 0-4.1-3-6-6.84-6-4.83 0-7 3.12-7 12.54zm22.84-17.78h13.9v5.17c1.14-4.41 3.61-5.93 7-5.93 3.12 0 5.17 1.37 6.27 5.32V5.32h1V21h-1v-1.1c0-11.51-2-14.25-6.27-14.25-5.09 0-6.61 3.53-6.61 11.78v15.43h10.76v1h-25v-1h9.42V6.27h-9.42z" data-name="Calque 1"/></g></svg>