<svg data-name="Calque 1" xmlns="http://www.w3.org/2000/svg" viewBox="0 0 138.53 138.53"><path d="M111.22 32.91v77.19H32.9V109h-1.11v-1.12h-2.24v-1.11h-1.12v-1.12h-1.12V28.43h7.83v1.12h1.12v1.12h1.12v1.12h1.12v-3.36h7.83v1.12h1.12v1.12h1.12v1.12h1.11v-3.36h7.84v1.12h1.11v1.12h1.12v1.12H62v1.11h1.12v4.48h12.3v-9h7.83v1.12h1.12v1.12h1.11v1.11h1.12v-3.3h7.83v1.12h1.12v1.11h1.12v1.12h1.12v-3.35h7.83v1.11h1.12v1.12h1.12v1.12H109v1.12zm-74.95-1.12H34v-1.12h-2.2v1.12h1.11v1.11h3.36zM109 35.14h-3.35V43H97.8v-7.86h-3.36V43h-7.83v-7.86h-3.36V43H60.88v-7.86h-3.36V43h-7.83v-7.86h-3.36V43H38.5v-7.86H34v72.72h25.76V92.2h1.12v-6.71H62v-3.36h1.12v-3.36h1.11v-1.12h1.12v-1.11h1.12v-1.12h1.12V74.3h2.24v-1.12h4.47v1.12h2.24v1.12h1.12v1.12h1.11v1.11h1.12v2.24H81v2.24h1.12v4.48h1.12v7.83h1.12v13.42H109zm-62.66-3.35v-1.12H43v1.12h1.1v1.11h3.36v-1.11zm4.46 29.08h1.12v5.59h-7.83v-5.59h1.11v-4.48h1.12v-2.23h1.12V53h1.12v1.12h1.12v2.23h1.12zm6.73-29.08v-1.12h-3.36v1.12h1.12v1.11h3.35v-1.11zm24.61 0v-1.12H79.9v1.12H81v1.11h2.23v-1.11zm13.42 0h-2.24v-1.12h-2.23v1.12h1.11v1.11h3.36zM98.9 62h1.1v4.47h-7.81v-6.72h1.12v-4.48h1.12v-1.11h1.12V53h1.11v1.12h1.12v2.23h1.12zm7.85-30.2h-2.24v-1.13h-2.24v1.12h1.12v1.11h3.36z" fill="#2caf38"/></svg>