<svg data-name="Calque 2" xmlns="http://www.w3.org/2000/svg" width="45.648" height="49.105"><path data-name="Tracé 345" d="M7.498 28.112c.95-.309 2.028-.608 3.191-.864l.209.332c-1.2.261-2.3.565-3.286.883a35.861 35.861 0 00-7.3 3.267l-.233.147H0v-.057l9.5-7.46.1.385-6.757 5.114 7-4.364c.043.114.09.233.142.347l-5.931 3.7a37.587 37.587 0 013.514-1.334zM45.62 49.057v.047h-.176a.128.128 0 01-.038-.033.085.085 0 01-.028-.043c-4.245-9.578-9.768-16.1-16.459-19.469.095-.09.185-.185.275-.275 5.7 2.892 10.523 8.03 14.455 15.357l-12.945-32.66-.878.712v-.028a10.832 10.832 0 01.7 2.465c.038.242.066.475.085.717a11.292 11.292 0 01-2.08 13.581 9.022 9.022 0 00-12.75 2.018 11.278 11.278 0 01-6.173-12.27c-.052-.233-.1-.475-.138-.708A10.651 10.651 0 0126.46 8.32L40.254 0h.1v.033l-12.242 9.83a10.684 10.684 0 011.529 2.417v-.024l.992-.807a.166.166 0 01.161-.033.185.185 0 01.128.109l14.726 37.333v.19zM30.097 15.252a10.257 10.257 0 00-3.737-6.415l-10.31 6.221a.2.2 0 01-.095.028.185.185 0 01-.161-.09.19.19 0 01.066-.256l10.186-6.145a10.281 10.281 0 104.051 6.648zm1.558 20.134a8.68 8.68 0 11-9.929-7.218 8.828 8.828 0 011.382-.09 8.69 8.69 0 018.547 7.308zM26.697 8.633a10.447 10.447 0 011.163 1.111l9.972-7.811z" fill="#303030"/></svg>